<svg width="88" height="87" viewBox="0 0 88 87" fill="none" xmlns="http://www.w3.org/2000/svg">
<g clip-path="url(#clip0_36_113)">
<path d="M48.5289 5.24741C28.9692 2.88811 29.1606 11.5601 29.1606 11.5601L28.1177 20.3957L46.7786 22.6466L46.4588 25.2978L20.3932 22.1538C20.3932 22.1538 8.04784 19.2156 5.65525 39.0512C3.26265 58.8869 14.2703 59.4982 14.2703 59.4982L20.7859 60.2842L21.8958 51.0821C21.8958 51.0821 22.87 40.0629 33.9722 41.402L52.4791 43.6343C52.4791 43.6343 62.8582 45.0556 64.0971 34.7847L66.1459 17.7992C66.1459 17.7992 68.9615 7.71201 48.5257 5.24702L48.5289 5.24741ZM37.5225 9.94406C39.3777 10.1678 40.6978 11.8576 40.4725 13.7256C40.2476 15.5904 38.5635 16.9177 36.7083 16.694C34.8499 16.4698 33.533 14.7805 33.7579 12.9157C33.9832 11.0476 35.6641 9.7199 37.5225 9.94406Z" fill="#342E37"/>
<path d="M39.7925 82.3461C59.3457 84.7046 59.1543 76.0327 59.1543 76.0327L60.1973 67.197L41.5364 64.9461L41.8562 62.2949L67.9282 65.4397C67.9282 65.4397 80.2735 68.3779 82.6661 48.5423C85.0587 28.7066 74.0479 28.0949 74.0479 28.0949L67.5323 27.309L66.4223 36.511C66.4223 36.511 65.4481 47.5302 54.3459 46.1911L35.8423 43.9592C35.8423 43.9592 25.4632 42.5379 24.2243 52.8088L22.1755 69.7943C22.1755 69.7943 19.3567 79.8811 39.7925 82.3461ZM50.7989 77.6494C48.9405 77.4253 47.6236 75.7359 47.8489 73.8679C48.0738 72.0031 49.7547 70.6754 51.6131 70.8995C53.4683 71.1233 54.7884 72.813 54.5635 74.6778C54.3382 76.5459 52.6541 77.8732 50.7989 77.6494Z" fill="#342E37"/>
</g>
<defs>
<clipPath id="clip0_36_113">
<rect width="77.59" height="77.59" fill="white" transform="translate(10.2891 0.634888) rotate(6.87784)"/>
</clipPath>
</defs>
</svg>
