<svg width="109" height="110" viewBox="0 0 109 110" fill="none" xmlns="http://www.w3.org/2000/svg">
<g clip-path="url(#clip0_122_295)">
<path d="M0.037088 1.52276C-0.189853 0.606232 0.662135 -0.212185 1.5716 0.0494371L28.068 7.65855C28.3058 7.65799 28.5388 7.72502 28.7399 7.85179L80.996 22.8585C81.2123 22.8628 81.426 22.9243 81.6117 23.0352L108.11 30.6452C109.02 30.9068 109.305 32.0535 108.622 32.7084L28.6602 109.432C27.9777 110.087 26.8404 109.759 26.6135 108.842L13.3496 55.2805C13.3318 55.2254 13.3178 55.1693 13.3078 55.1123L0.037088 1.52276ZM22.7338 82.944L28.4903 106.19L45.8256 89.5559L22.7338 82.944V82.944ZM40.5902 64.5608L23.8063 80.6977L46.165 87.1006L40.5902 64.5608ZM43.0814 64.3884L48.6387 86.8568L65.3766 70.7968L43.0814 64.3884V64.3884ZM16.2274 56.6697L21.809 79.2104L38.5728 63.0926L16.2274 56.6697V56.6697ZM60.3826 45.5092L43.3297 61.9055L66.0549 68.4376L60.3826 45.5092ZM62.7721 44.926L68.4444 67.8536L85.5442 51.4466L62.7721 44.926ZM33.9974 37.9009L16.9078 54.3117L39.6748 60.8552L33.9974 37.9009V37.9009ZM36.3775 37.2821L41.9527 59.8215L58.7366 43.6842L36.3779 37.2821H36.3775ZM9.53116 29.6275L15.2047 52.5411L32.2819 36.1422L9.53073 29.6275H9.53116ZM80.2926 26.4465L63.5087 42.5833L85.8673 48.9863L80.2926 26.4465V26.4465ZM82.691 25.8986L88.3454 48.7591L105.38 32.4145L82.691 25.8986V25.8986ZM53.7975 18.8883L37.0894 34.9326L59.3429 41.3045L53.7979 18.8883H53.7975ZM56.1823 18.2857L61.7652 40.8522L78.5537 24.7102L56.1823 18.2857ZM27.394 11.2465L10.6101 27.3838L32.9687 33.7859L27.394 11.2465ZM29.7945 10.7075L35.3556 33.1904L52.0986 17.113L29.7945 10.7075V10.7075ZM2.93538 2.99438L8.60806 25.9011L25.6487 9.51708L2.93538 2.99438Z" fill="#FCB55F"/>
</g>
<defs>
<clipPath id="clip0_122_295">
<rect width="109" height="110" fill="white"/>
</clipPath>
</defs>
</svg>
