<svg width="78" height="78" viewBox="0 0 78 78" fill="none" xmlns="http://www.w3.org/2000/svg">
<g clip-path="url(#clip0_206_611)">
<path fill-rule="evenodd" clip-rule="evenodd" d="M46.1559 7.78611C29.1006 3.61472 11.908 14.0501 7.7366 31.1054C4.39571 44.765 10.4102 58.4636 21.6804 65.5549C23.1578 66.2025 23.9631 65.418 24.1613 64.6077C24.3406 63.8745 24.8966 61.4342 25.5289 58.8489C17.4238 58.3796 16.2289 54.5704 16.0362 52.683C15.906 51.7106 15.0712 48.6029 13.9385 47.5489C12.9997 46.7058 11.8054 44.9006 14.4002 45.4943C16.8405 46.0503 18.0201 48.7516 18.3724 49.8192C20.0087 55.1677 24.7671 54.9411 26.7402 54.5649C27.5011 52.6245 28.6417 51.4721 29.718 50.9175C23.0383 48.4658 16.5124 44.048 19.4003 32.2405C20.2213 28.8835 22.097 26.3978 24.5934 24.7182C24.4735 23.871 24.1669 20.4427 26.9029 16.6134C26.9029 16.6134 29.6864 16.4354 34.6181 21.8537C37.2575 21.7632 39.9663 22.0577 42.5902 22.6994C45.2141 23.3412 47.753 24.3302 50.0527 25.6288C56.938 23.0597 59.3156 24.5409 59.3156 24.5409C59.9753 29.2007 58.121 32.1005 57.6236 32.7968C59.063 35.4389 59.5891 38.4711 58.7586 41.8668C55.8613 53.7129 48.0038 54.5719 40.9467 53.6638C41.8297 54.9021 42.3414 56.9902 41.6336 59.8842C40.6238 64.013 39.7736 67.322 39.5187 68.3638C39.3206 69.1741 39.6634 70.2804 41.2824 70.3492C47.9164 69.779 54.2046 67.1429 59.2621 62.8118C64.3195 58.4808 67.8914 52.6728 69.4752 46.2054C73.6466 29.1501 63.2112 11.9575 46.1559 7.78611Z" fill="#E06775"/>
</g>
<defs>
<clipPath id="clip0_206_611">
<rect width="63.5583" height="63.5583" fill="white" transform="translate(15.2866 0.236084) rotate(13.7436)"/>
</clipPath>
</defs>
</svg>
