<svg width="72" height="72" viewBox="0 0 72 72" fill="none" xmlns="http://www.w3.org/2000/svg">
<g clip-path="url(#clip0_36_121)">
<path d="M31.7197 34.2653C31.2803 33.632 30.8705 33.0144 30.4312 32.381C29.9919 31.7477 29.5889 31.1527 29.2086 30.5509C28.8352 29.9718 28.4981 29.431 28.1748 28.9356L28.1295 28.9493C28.221 29.9849 28.2671 31.0342 28.2454 32.1041C28.2353 33.2942 28.2389 34.5295 28.2199 35.7716C28.2531 37.0227 28.2361 38.1901 28.1848 39.2442L33.9369 37.5001C33.6562 37.0634 33.304 36.5545 32.921 36.0252C32.5324 35.4778 32.1295 34.8829 31.7197 34.2653ZM45.4373 4.31441L10.336 14.9579C5.01417 16.5715 2.01611 22.179 3.62979 27.5008L13.8612 61.2433C15.4749 66.5651 21.0823 69.5632 26.4042 67.9495L61.5055 57.306C66.8273 55.6924 69.8253 50.0849 68.2116 44.7631L57.9802 11.0206C56.3665 5.69878 50.7591 2.70072 45.4373 4.31441ZM45.3518 45.2159L40.6165 46.6518C40.4671 46.7218 40.2742 46.6566 40.1809 46.5119L36.6896 41.6852L28.2653 44.2396L28.1579 50.0833C28.1744 50.3008 28.0344 50.4917 27.8245 50.5331L23.567 51.824C23.3179 51.8996 23.2081 51.782 23.1943 51.4919L24.1202 28.2857C24.1194 28.0387 24.1118 27.769 24.12 27.4697C24.0664 26.9667 23.9606 26.4548 23.8096 25.9566C23.7526 25.8502 23.8088 25.7095 23.9152 25.6525L29.7805 23.874C29.9617 23.8191 30.0729 23.8596 30.1298 23.9659L45.4684 44.7849C45.6112 45.0112 45.5782 45.1473 45.3518 45.2159ZM52.9484 42.5416C53.0239 42.7907 52.97 42.9307 52.7661 42.9925L48.3253 44.339C48.0988 44.4077 47.9437 44.3039 47.8757 44.0797L42.5883 26.6423C42.5196 26.4158 42.585 26.2971 42.7888 26.2353L47.2728 24.8757C47.4766 24.8139 47.5992 24.9003 47.661 25.1041L52.9484 42.5416ZM46.2744 22.2357C46.0894 22.5885 45.8309 22.8975 45.5166 23.1421C45.2022 23.3867 44.8391 23.5612 44.4517 23.6539C43.7113 23.9032 42.8973 23.8285 42.1936 23.4731C41.5028 23.0631 40.9997 22.3992 40.7919 21.6232C40.5358 20.8601 40.6105 20.0461 40.9938 19.3612C41.3839 18.6741 42.0262 18.1826 42.7735 17.956C43.6589 17.6875 44.4162 17.7547 45.0746 18.1238C45.7376 18.5162 46.2291 19.1585 46.4331 19.9127C46.6892 20.6758 46.644 21.5055 46.2744 22.2357Z" fill="#342E37"/>
</g>
<defs>
<clipPath id="clip0_36_121">
<rect width="56.794" height="56.794" fill="white" transform="translate(0.505371 17.1968) rotate(-16.8684)"/>
</clipPath>
</defs>
</svg>
