<svg width="62" height="62" viewBox="0 0 62 62" fill="none" xmlns="http://www.w3.org/2000/svg">
<path d="M51.7463 56.1374L18.5663 61.4684C15.633 61.9397 12.6326 61.2264 10.2252 59.4855C7.81778 57.7446 6.20054 55.1187 5.72926 52.1854L0.398302 19.0053C-0.0729835 16.072 0.640281 13.0717 2.38119 10.6642C4.12209 8.25684 6.74803 6.63961 9.68133 6.16833L42.8614 0.837371C45.7947 0.366085 48.795 1.07935 51.2024 2.82025C53.6098 4.56116 55.2271 7.1871 55.6984 10.1204L61.0293 43.3004C61.5006 46.2337 60.7873 49.2341 59.0464 51.6415C57.3055 54.0489 54.6796 55.6661 51.7463 56.1374ZM10.5698 11.6983C9.10317 11.934 7.7902 12.7426 6.91975 13.9463C6.0493 15.15 5.69266 16.6502 5.92831 18.1168L11.2593 51.2969C11.4949 52.7635 12.3035 54.0765 13.5072 54.9469C14.7109 55.8174 16.2111 56.174 17.6778 55.9384L50.8578 50.6074C52.3244 50.3718 53.6374 49.5632 54.5079 48.3595C55.3783 47.1558 55.7349 45.6556 55.4993 44.1889L50.1683 11.0089C49.9327 9.54224 49.1241 8.22927 47.9204 7.35882C46.7167 6.48837 45.2165 6.13173 43.7499 6.36738L10.5698 11.6983ZM43.2375 42.6873C42.0495 42.9276 40.825 42.9234 39.6387 42.6752C38.4524 42.4269 37.329 41.9397 36.3371 41.2432C34.212 39.4841 32.8616 36.9616 32.5762 34.2176C32.0959 31.5833 32.6263 28.8648 34.0617 26.6043C34.8226 25.488 35.8109 24.5452 36.9619 23.8377C38.1128 23.1303 39.4003 22.6742 40.7399 22.4993L41.3841 22.3958L40.4956 16.8658C40.4263 16.4344 40.7211 16.0269 41.152 15.9548L44.7935 15.3697C44.9944 15.3297 45.203 15.3671 45.3776 15.4744C45.4638 15.5332 45.5365 15.6097 45.5909 15.6988C45.6453 15.7878 45.6801 15.8874 45.6931 15.991L49.1045 37.2234C49.2084 37.9584 49.3649 38.6849 49.5674 39.3983L49.5785 39.4674C49.611 39.6426 49.5842 39.8235 49.5023 39.9817C49.4298 40.1072 49.3297 40.2145 49.2095 40.2954C47.4377 41.5197 45.4159 42.3347 43.2904 42.6816L43.2375 42.6873V42.6873ZM38.432 28.9484L38.4208 28.9673C37.7302 30.2605 37.5185 31.7561 37.8229 33.1903C37.9514 34.7149 38.6269 36.1416 39.7249 37.2073C40.5937 37.9016 41.7293 38.173 42.8181 37.9413C43.1675 37.8905 43.5098 37.7993 43.8381 37.6696L42.1282 27.0272C41.8613 27.0134 41.5937 27.0288 41.3301 27.0731C40.7376 27.1521 40.1702 27.3621 39.6691 27.688C39.168 28.0138 38.7458 28.4472 38.4333 28.9567L38.432 28.9484V28.9484ZM33.4061 43.9378L29.3941 44.5824C29.19 44.629 28.9765 44.6106 28.7834 44.5297C28.5904 44.4488 28.4275 44.3096 28.3176 44.1314L27.5414 43.0081L27.5227 42.9799L26.7742 41.9401L26.5382 41.6008C25.3638 39.9231 24.1529 38.1946 22.9304 36.4112C22.1133 39.4259 21.2561 42.4296 20.3589 45.4214L20.3633 45.4491L20.3535 45.4762C20.2859 45.6461 20.1777 45.7969 20.0383 45.9154C19.8964 46.0344 19.724 46.1112 19.5407 46.1372L15.7499 46.7462C15.5926 46.7795 15.4288 46.7606 15.2832 46.6924C15.1376 46.6241 15.0183 46.5103 14.9432 46.3682C14.8915 46.259 14.8655 46.1395 14.8673 46.0187C14.869 45.898 14.8984 45.7792 14.9532 45.6716L19.2235 32.8997L11.3457 21.9293C11.2468 21.8261 11.1792 21.6971 11.1507 21.5571C11.1222 21.4171 11.1339 21.2719 11.1846 21.1383C11.2343 21.0165 11.3146 20.9096 11.4178 20.8279C11.5209 20.7463 11.6434 20.6926 11.7734 20.6721L15.7384 20.0351C15.9293 19.9938 16.128 20.0071 16.3118 20.0734C16.5002 20.1506 16.6578 20.2878 16.7603 20.4637C18.7421 23.3362 20.425 25.8313 21.9015 28.0475C22.7704 24.7879 23.7171 21.4647 24.3556 19.2604L24.3646 19.2278L24.3767 19.1974L24.3718 19.167C24.4221 19.0376 24.4916 18.9165 24.5779 18.8077C24.726 18.6375 24.9311 18.5269 25.1547 18.4967L28.8681 17.9C29.0095 17.8734 29.1556 17.8883 29.2887 17.943C29.4218 17.9976 29.5362 18.0896 29.6182 18.2078C29.6859 18.3173 29.7261 18.4416 29.7353 18.57C29.7446 18.6984 29.7227 18.8271 29.6714 18.9452L25.5674 31.4805L33.8318 42.6328C33.9151 42.7278 33.976 42.8403 34.0098 42.9621C34.0436 43.0839 34.0495 43.2117 34.027 43.336C33.9979 43.4876 33.9225 43.6264 33.8111 43.7332C33.6997 43.84 33.5579 43.9096 33.4052 43.9323L33.4061 43.9378V43.9378Z" fill="#96C0ED"/>
</svg>
