<svg width="72" height="72" viewBox="0 0 72 72" fill="none" xmlns="http://www.w3.org/2000/svg">
<g clip-path="url(#clip0_205_501)">
<path d="M31.7198 34.2653C31.2805 33.632 30.8707 33.0144 30.4313 32.381C29.992 31.7477 29.5891 31.1527 29.2088 30.5509C28.8353 29.9718 28.4983 29.431 28.1749 28.9356L28.1296 28.9493C28.2211 29.9849 28.2673 31.0342 28.2455 32.1041C28.2354 33.2942 28.2391 34.5295 28.2201 35.7716C28.2532 37.0227 28.2363 38.1901 28.185 39.2442L33.9371 37.5001C33.6563 37.0634 33.3041 36.5545 32.9211 36.0252C32.5326 35.4778 32.1296 34.8829 31.7198 34.2653V34.2653ZM45.4374 4.31441L10.3361 14.9579C5.0143 16.5715 2.01624 22.179 3.62993 27.5008L13.8614 61.2433C15.4751 66.5651 21.0825 69.5632 26.4043 67.9495L61.5056 57.306C66.8274 55.6924 69.8255 50.0849 68.2118 44.7631L57.9803 11.0206C56.3667 5.69878 50.7592 2.70072 45.4374 4.31441ZM45.3519 45.2159L40.6166 46.6518C40.4672 46.7218 40.2744 46.6566 40.181 46.5119L36.6898 41.6852L28.2655 44.2396L28.158 50.0833C28.1746 50.3008 28.0346 50.4917 27.8246 50.5331L23.5671 51.824C23.318 51.8996 23.2082 51.782 23.1944 51.4919L24.1203 28.2857C24.1196 28.0387 24.112 27.769 24.1201 27.4697C24.0665 26.9667 23.9608 26.4548 23.8097 25.9566C23.7527 25.8502 23.809 25.7095 23.9153 25.6525L29.7806 23.874C29.9618 23.8191 30.073 23.8596 30.13 23.9659L45.4685 44.7849C45.6113 45.0112 45.5784 45.1473 45.3519 45.2159V45.2159ZM52.9486 42.5416C53.0241 42.7907 52.9701 42.9307 52.7663 42.9925L48.3254 44.3391C48.0989 44.4077 47.9438 44.3039 47.8758 44.0797L42.5885 26.6423C42.5198 26.4158 42.5852 26.2971 42.789 26.2353L47.2729 24.8757C47.4767 24.8139 47.5994 24.9003 47.6612 25.1041L52.9486 42.5416V42.5416ZM46.2746 22.2357C46.0895 22.5885 45.8311 22.8975 45.5167 23.1421C45.2023 23.3867 44.8393 23.5612 44.4519 23.6539C43.7114 23.9032 42.8975 23.8285 42.1938 23.4731C41.5029 23.0631 40.9998 22.3992 40.7921 21.6232C40.536 20.8601 40.6106 20.0461 40.9939 19.3612C41.384 18.6741 42.0263 18.1826 42.7736 17.956C43.6591 17.6875 44.4163 17.7547 45.0747 18.1238C45.7377 18.5162 46.2292 19.1585 46.4332 19.9127C46.6893 20.6758 46.6442 21.5055 46.2746 22.2357V22.2357Z" fill="#96C0ED"/>
</g>
<defs>
<clipPath id="clip0_205_501">
<rect width="56.794" height="56.794" fill="white" transform="translate(0.505554 17.1968) rotate(-16.8684)"/>
</clipPath>
</defs>
</svg>
