<svg width="78" height="78" viewBox="0 0 78 78" fill="none" xmlns="http://www.w3.org/2000/svg">
<g clip-path="url(#clip0_36_97)">
<path d="M59.7461 64.1373L26.566 69.4683C23.6327 69.9395 20.6324 69.2263 18.225 67.4854C15.8176 65.7445 14.2003 63.1185 13.729 60.1852L8.39808 27.0052C7.92679 24.0719 8.64006 21.0715 10.381 18.6641C12.1219 16.2567 14.7478 14.6395 17.6811 14.1682L50.8611 8.83725C53.7944 8.36596 56.7948 9.07923 59.2022 10.8201C61.6096 12.561 63.2268 15.187 63.6981 18.1203L69.0291 51.3003C69.5004 54.2336 68.7871 57.234 67.0462 59.6414C65.3053 62.0488 62.6794 63.666 59.7461 64.1373ZM18.5696 19.6982C17.1029 19.9339 15.79 20.7425 14.9195 21.9462C14.0491 23.1499 13.6924 24.6501 13.9281 26.1167L19.259 59.2967C19.4947 60.7634 20.3033 62.0764 21.507 62.9468C22.7107 63.8173 24.2109 64.1739 25.6775 63.9383L58.8576 58.6073C60.3242 58.3717 61.6372 57.563 62.5076 56.3593C63.3781 55.1556 63.7347 53.6554 63.4991 52.1888L58.1681 19.0088C57.9325 17.5421 57.1239 16.2291 55.9202 15.3587C54.7165 14.4882 53.2163 14.1316 51.7496 14.3673L18.5696 19.6982ZM51.2372 50.6871C50.0493 50.9274 48.8248 50.9233 47.6385 50.6751C46.4522 50.4268 45.3288 49.9396 44.3369 49.2431C42.2118 47.484 40.8614 44.9614 40.576 42.2175C40.0957 39.5832 40.6261 36.8647 42.0615 34.6042C42.8224 33.4879 43.8107 32.5451 44.9616 31.8376C46.1126 31.1302 47.4 30.674 48.7397 30.4992L49.3839 30.3957L48.4954 24.8656C48.4261 24.4343 48.7208 24.0267 49.1517 23.9547L52.7932 23.3696C52.9942 23.3296 53.2028 23.367 53.3773 23.4743C53.4635 23.5331 53.5362 23.6096 53.5907 23.6987C53.6451 23.7877 53.6799 23.8873 53.6929 23.9909L57.1043 45.2233C57.2082 45.9583 57.3646 46.6848 57.5672 47.3982L57.5783 47.4673C57.6108 47.6425 57.584 47.8234 57.5021 47.9816C57.4296 48.1071 57.3295 48.2144 57.2093 48.2953C55.4375 49.5195 53.4157 50.3346 51.2902 50.6815L51.2372 50.6871ZM46.4317 36.9483L46.4206 36.9671C45.73 38.2604 45.5183 39.756 45.8227 41.1901C45.9512 42.7148 46.6267 44.1415 47.7246 45.2072C48.5935 45.9015 49.7291 46.1729 50.8179 45.9412C51.1673 45.8904 51.5096 45.7992 51.8379 45.6695L50.128 35.027C49.8611 35.0132 49.5934 35.0287 49.3299 35.073C48.7374 35.152 48.17 35.362 47.6689 35.6878C47.1678 36.0137 46.7456 36.4471 46.4331 36.9566L46.4317 36.9483ZM41.4059 51.9377L37.3939 52.5823C37.1898 52.6289 36.9763 52.6105 36.7832 52.5296C36.5901 52.4487 36.4272 52.3094 36.3173 52.1313L35.5412 51.008L35.5225 50.9798L34.774 49.94L34.5379 49.6006C33.3636 47.923 32.1527 46.1945 30.9302 44.4111C30.1131 47.4258 29.2559 50.4295 28.3587 53.4213L28.3631 53.449L28.3533 53.4761C28.2857 53.646 28.1774 53.7968 28.0381 53.9153C27.8962 54.0342 27.7238 54.1111 27.5405 54.1371L23.7497 54.7461C23.5924 54.7794 23.4285 54.7605 23.283 54.6922C23.1374 54.624 23.018 54.5102 22.943 54.368C22.8913 54.2589 22.8653 54.1393 22.867 54.0186C22.8688 53.8978 22.8982 53.7791 22.953 53.6715L27.2233 40.8996L19.3454 29.9292C19.2466 29.826 19.179 29.697 19.1505 29.557C19.122 29.417 19.1337 29.2718 19.1843 29.1382C19.2341 29.0164 19.3144 28.9095 19.4175 28.8278C19.5207 28.7462 19.6432 28.6925 19.7731 28.672L23.7382 28.035C23.9291 27.9937 24.1278 28.007 24.3116 28.0733C24.5 28.1505 24.6576 28.2876 24.76 28.4636C26.7419 31.3361 28.4248 33.8312 29.9012 36.0474C30.7702 32.7878 31.7168 29.4646 32.3554 27.2603L32.3643 27.2276L32.3765 27.1973L32.3716 27.1669C32.4219 27.0375 32.4914 26.9164 32.5777 26.8076C32.7258 26.6373 32.9308 26.5268 33.1545 26.4965L36.8679 25.8999C37.0093 25.8733 37.1554 25.8882 37.2885 25.9428C37.4216 25.9975 37.536 26.0894 37.618 26.2077C37.6856 26.3172 37.7258 26.4415 37.7351 26.5699C37.7444 26.6983 37.7225 26.827 37.6712 26.9451L33.5671 39.4804L41.8316 50.6327C41.9149 50.7277 41.9757 50.8402 42.0095 50.962C42.0433 51.0837 42.0492 51.2116 42.0268 51.3359C41.9977 51.4875 41.9222 51.6262 41.8108 51.733C41.6995 51.8399 41.5576 51.9094 41.405 51.9322L41.4059 51.9377Z" fill="#342E37"/>
</g>
<defs>
<clipPath id="clip0_36_97">
<rect width="67.2111" height="67.2111" fill="white" transform="translate(0.202637 11.3036) rotate(-9.12757)"/>
</clipPath>
</defs>
</svg>
