<svg width="71" height="71" viewBox="0 0 71 71" fill="none" xmlns="http://www.w3.org/2000/svg">
<g clip-path="url(#clip0_36_118)">
<path d="M55.2434 1.88048L7.33638 8.62316C3.63221 9.14451 1.05203 12.57 1.57337 16.2741L8.31605 64.1812C8.83739 67.8853 12.2628 70.4655 15.967 69.9442L63.874 63.2015C67.5782 62.6801 70.1584 59.2547 69.6371 55.5505L62.8944 7.64349C62.373 3.93933 58.9476 1.35914 55.2434 1.88048Z" fill="#342E37"/>
<path d="M48.4493 25.8474L50.682 41.7109C51.4514 47.1771 51.4203 49.8549 50.5397 52.2899C49.735 54.6242 48.4624 56.2079 45.6536 58.1441L38.8734 56.0168C41.6953 54.1696 42.9866 52.7191 43.6506 50.6763C44.3532 48.5838 44.3456 46.2735 43.5076 40.3191L41.6063 26.8106L48.4493 25.8474ZM36.0753 16.8114L40.5335 48.4873C37.1169 49.6477 34.577 50.2771 31.7776 50.6711C23.4233 51.8469 18.537 48.6831 17.5175 41.4395C16.5356 34.4628 20.5193 29.2801 27.6732 28.2732C28.7842 28.1169 29.641 28.0867 30.7006 28.2094L29.232 17.775L36.0756 16.8118L36.0753 16.8114ZM29.1156 33.6892C25.6495 34.177 23.9498 36.5915 24.4751 40.324C24.9881 43.9683 27.1805 45.6987 30.6911 45.2046C31.4461 45.0983 32.0622 44.9664 33.021 44.6959L31.4761 33.7192C30.6388 33.5654 29.9599 33.5703 29.1156 33.6892ZM46.967 15.3156L47.9552 22.3368L41.1122 23.2999L40.124 16.2789L46.9671 15.3158L46.967 15.3156Z" fill="#FFFFFD"/>
</g>
<defs>
<clipPath id="clip0_36_118">
<rect width="61.9254" height="61.9254" fill="white" transform="translate(0.629395 9.56714) rotate(-8.01148)"/>
</clipPath>
</defs>
</svg>
