<svg width="91" height="92" viewBox="0 0 91 92" fill="none" xmlns="http://www.w3.org/2000/svg">
<g clip-path="url(#clip0_205_505)">
<path d="M58.0576 38.828C60.6821 39.4218 63.4346 38.97 65.7316 37.5684C68.0286 36.1668 69.6893 33.9256 70.3616 31.3201C71.0339 28.7146 70.6649 25.9497 69.3328 23.6117C68.0007 21.2737 65.8104 19.5465 63.2262 18.7963L43.1916 13.6269C40.5671 13.0331 37.8145 13.4849 35.5175 14.8865C33.2206 16.2881 31.5598 18.5293 30.8875 21.1348C30.2153 23.7403 30.5843 26.5052 31.9163 28.8432C33.2484 31.1812 35.4388 32.9084 38.0229 33.6585C35.3841 33.0262 32.6025 33.4556 30.2772 34.8543C27.9519 36.253 26.269 38.5091 25.5911 41.1366C24.9131 43.7641 25.2943 46.5528 26.6525 48.9019C28.0108 51.2511 30.2374 52.9728 32.8527 53.6961C30.2219 53.0856 27.4567 53.5278 25.1474 54.9282C22.8382 56.3286 21.1679 58.5762 20.4931 61.1913C19.8184 63.8063 20.1927 66.5815 21.5361 68.9244C22.8795 71.2673 25.0855 72.9921 27.6833 73.7307C30.3405 74.4147 33.1605 74.0157 35.5237 72.6214C37.8868 71.2272 39.5998 68.9517 40.2861 66.2952L48.0402 36.2432L58.0576 38.828Z" fill="#96C0ED"/>
<path d="M52.888 58.8625C58.4204 60.29 64.0626 56.9623 65.4901 51.4299C66.9176 45.8975 63.5899 40.2554 58.0575 38.8279C52.5251 37.4004 46.8829 40.7281 45.4554 46.2605C44.0279 51.7929 47.3556 57.435 52.888 58.8625Z" fill="#96C0ED"/>
</g>
<defs>
<clipPath id="clip0_205_505">
<rect width="74.5167" height="74.5167" fill="white" transform="translate(18.6872 0.875) rotate(14.4682)"/>
</clipPath>
</defs>
</svg>
