<svg width="91" height="92" viewBox="0 0 91 92" fill="none" xmlns="http://www.w3.org/2000/svg">
<g clip-path="url(#clip0_206_627)">
<path d="M58.0577 38.828C60.6822 39.4218 63.4348 38.97 65.7318 37.5684C68.0287 36.1668 69.6894 33.9256 70.3617 31.3201C71.034 28.7146 70.665 25.9497 69.3329 23.6117C68.0009 21.2737 65.8105 19.5465 63.2263 18.7963L43.1917 13.6269C40.5672 13.0331 37.8146 13.4849 35.5177 14.8865C33.2207 16.2881 31.56 18.5293 30.8877 21.1348C30.2154 23.7403 30.5844 26.5052 31.9165 28.8432C33.2485 31.1812 35.4389 32.9084 38.0231 33.6585C35.3842 33.0262 32.6026 33.4556 30.2773 34.8543C27.952 36.253 26.2692 38.5091 25.5912 41.1366C24.9132 43.7641 25.2944 46.5528 26.6527 48.9019C28.0109 51.2511 30.2375 52.9728 32.8528 53.6961C30.222 53.0856 27.4568 53.5278 25.1476 54.9282C22.8383 56.3286 21.168 58.5762 20.4932 61.1913C19.8185 63.8063 20.1928 66.5815 21.5362 68.9244C22.8796 71.2673 25.0857 72.9921 27.6834 73.7307C30.3406 74.4147 33.1606 74.0157 35.5238 72.6214C37.8869 71.2272 39.5999 68.9517 40.2862 66.2952L48.0404 36.2432L58.0577 38.828Z" fill="#E06775"/>
<path d="M52.888 58.8625C58.4204 60.29 64.0626 56.9623 65.4901 51.4299C66.9176 45.8975 63.5899 40.2554 58.0575 38.8279C52.5251 37.4004 46.8829 40.7281 45.4554 46.2605C44.0279 51.7929 47.3556 57.435 52.888 58.8625Z" fill="#E06775"/>
</g>
<defs>
<clipPath id="clip0_206_627">
<rect width="74.5167" height="74.5167" fill="white" transform="translate(18.6873 0.875) rotate(14.4682)"/>
</clipPath>
</defs>
</svg>
