<svg width="53" height="52" viewBox="0 0 53 52" fill="none" xmlns="http://www.w3.org/2000/svg">
<path d="M24.1999 25.0076L24.8561 24.1877L22.7436 22.4978L24.8561 20.8079L24.1999 19.988L21.575 22.0878C21.5135 22.137 21.4639 22.1994 21.4298 22.2703C21.3956 22.3413 21.3779 22.4191 21.3779 22.4978C21.3779 22.5765 21.3956 22.6543 21.4298 22.7253C21.4639 22.7962 21.5135 22.8586 21.575 22.9078L24.1999 25.0076ZM29.0558 19.988L28.3996 20.8079L30.512 22.4978L28.3996 24.1877L29.0558 25.0076L31.6806 22.9078C31.7421 22.8586 31.7917 22.7962 31.8258 22.7253C31.86 22.6543 31.8777 22.5765 31.8777 22.4978C31.8777 22.4191 31.86 22.3413 31.8258 22.2703C31.7917 22.1994 31.7421 22.137 31.6806 22.0878L29.0558 19.988ZM28.1901 17.8865L26.0902 27.3359L25.065 27.108L27.1648 17.6587L28.1901 17.8865Z" fill="#342E37"/>
<path d="M38.5072 12.8384H14.7489C14.2238 12.8384 13.7202 13.0494 13.3489 13.425C12.9776 13.8006 12.769 14.3101 12.769 14.8413V30.8648C12.769 31.396 12.9776 31.9055 13.3489 32.2811C13.7202 32.6567 14.2238 32.8677 14.7489 32.8677H22.6683V36.8736H18.7086V38.8765H34.5475V36.8736H30.5878V32.8677H38.5072C39.0323 32.8677 39.5359 32.6567 39.9072 32.2811C40.2785 31.9055 40.4871 31.396 40.4871 30.8648V14.8413C40.4871 14.3101 40.2785 13.8006 39.9072 13.425C39.5359 13.0494 39.0323 12.8384 38.5072 12.8384ZM28.6079 36.8736H24.6482V32.8677H28.6079V36.8736ZM38.5072 30.8648H14.7489V14.8413H38.5072V30.8648Z" fill="#342E37"/>
<circle cx="26.628" cy="25.8575" r="25.6182" fill="#342E37" fill-opacity="0.2"/>
</svg>
