<svg width="67" height="67" viewBox="0 0 67 67" fill="none" xmlns="http://www.w3.org/2000/svg">
<g clip-path="url(#clip0_205_495)">
<path d="M64.8094 30.3395L36.1013 1.63548C35.7082 1.24222 35.2415 0.930253 34.7279 0.717412C34.2142 0.50457 33.6636 0.39502 33.1076 0.39502C32.5516 0.39502 32.001 0.50457 31.4874 0.717412C30.9737 0.930253 30.507 1.24222 30.1139 1.63548L24.1554 7.59407L31.7166 15.1553C32.6084 14.8509 33.5677 14.8032 34.4853 15.0179C35.4028 15.2325 36.2415 15.7008 36.9057 16.3692C37.5698 17.0376 38.0327 17.8793 38.2414 18.7982C38.4501 19.7171 38.3963 20.6762 38.0861 21.5659L45.3721 28.856C46.45 28.4764 47.625 28.4753 48.7037 28.8527C49.7824 29.2301 50.7004 29.9636 51.3066 30.9324C51.9127 31.9012 52.1709 33.0476 52.0386 34.1827C51.9063 35.3178 51.3914 36.3741 50.5786 37.1775C49.7559 38.0053 48.6712 38.5217 47.51 38.6387C46.3487 38.7556 45.1829 38.4657 44.2116 37.8185C43.2404 37.1713 42.5239 36.207 42.1847 35.0902C41.8455 33.9735 41.9045 32.7736 42.3517 31.6956L35.5589 24.8987V42.7868C36.5914 43.2979 37.4175 44.1474 37.8996 45.1937C38.3817 46.2401 38.4906 47.4201 38.2082 48.537C37.9258 49.654 37.2691 50.6404 36.3476 51.3318C35.426 52.0232 34.2954 52.378 33.144 52.3368C31.9927 52.2957 30.8902 51.8612 30.0204 51.1058C29.1505 50.3504 28.5658 49.3197 28.3638 48.1854C28.1618 47.0512 28.3546 45.882 28.9101 44.8727C29.4656 43.8634 30.3503 43.075 31.4166 42.6388V24.5863C30.8014 24.3342 30.2422 23.9629 29.7711 23.4936C29.3001 23.0244 28.9266 22.4666 28.6722 21.8523C28.4178 21.238 28.2875 20.5795 28.2888 19.9146C28.2901 19.2498 28.423 18.5917 28.6798 17.9785L21.2295 10.5241L1.54557 30.208C1.15231 30.601 0.840349 31.0677 0.627507 31.5814C0.414665 32.0951 0.305115 32.6456 0.305115 33.2016C0.305115 33.7577 0.414665 34.3082 0.627507 34.8219C0.840349 35.3356 1.15231 35.8023 1.54557 36.1953L30.2537 64.9034C30.6467 65.2967 31.1134 65.6086 31.6271 65.8215C32.1408 66.0343 32.6913 66.1439 33.2473 66.1439C33.8034 66.1439 34.3539 66.0343 34.8676 65.8215C35.3813 65.6086 35.848 65.2967 36.241 64.9034L64.8135 36.3309C65.6067 35.5366 66.0523 34.4599 66.0523 33.3373C66.0523 32.2147 65.6067 31.1379 64.8135 30.3436" fill="#96C0ED"/>
</g>
<defs>
<clipPath id="clip0_205_495">
<rect width="65.75" height="65.75" fill="white" transform="translate(0.299988 0.394531)"/>
</clipPath>
</defs>
</svg>
