<svg width="67" height="67" viewBox="0 0 67 67" fill="none" xmlns="http://www.w3.org/2000/svg">
<g clip-path="url(#clip0_238_501)">
<path d="M64.8095 30.3395L36.1014 1.63548C35.7083 1.24222 35.2416 0.930253 34.7279 0.717412C34.2143 0.50457 33.6637 0.39502 33.1077 0.39502C32.5517 0.39502 32.0011 0.50457 31.4874 0.717412C30.9738 0.930253 30.5071 1.24222 30.114 1.63548L24.1554 7.59407L31.7167 15.1553C32.6084 14.8509 33.5678 14.8032 34.4853 15.0179C35.4029 15.2325 36.2416 15.7008 36.9057 16.3692C37.5699 17.0376 38.0327 17.8793 38.2415 18.7982C38.4502 19.7171 38.3964 20.6762 38.0862 21.5659L45.3721 28.856C46.4501 28.4764 47.6251 28.4753 48.7038 28.8527C49.7825 29.2301 50.7005 29.9636 51.3066 30.9324C51.9128 31.9012 52.171 33.0476 52.0387 34.1827C51.9063 35.3178 51.3914 36.3741 50.5787 37.1775C49.7559 38.0053 48.6713 38.5217 47.51 38.6387C46.3488 38.7556 45.1829 38.4657 44.2117 37.8185C43.2404 37.1713 42.524 36.207 42.1847 35.0902C41.8455 33.9735 41.9045 32.7736 42.3517 31.6956L35.5589 24.8987V42.7868C36.5914 43.2979 37.4176 44.1474 37.8997 45.1937C38.3818 46.2401 38.4907 47.4201 38.2083 48.537C37.9258 49.654 37.2691 50.6404 36.3476 51.3318C35.4261 52.0232 34.2954 52.378 33.1441 52.3368C31.9927 52.2957 30.8903 51.8612 30.0204 51.1058C29.1506 50.3504 28.5659 49.3197 28.3639 48.1854C28.1619 47.0512 28.3547 45.882 28.9102 44.8727C29.4657 43.8634 30.3503 43.075 31.4167 42.6388V24.5863C30.8015 24.3342 30.2422 23.9629 29.7712 23.4936C29.3002 23.0244 28.9267 22.4666 28.6723 21.8523C28.4179 21.238 28.2876 20.5795 28.2889 19.9146C28.2901 19.2498 28.423 18.5917 28.6798 17.9785L21.2295 10.5241L1.54563 30.208C1.15237 30.601 0.84041 31.0677 0.627568 31.5814C0.414726 32.0951 0.305176 32.6456 0.305176 33.2016C0.305176 33.7577 0.414726 34.3082 0.627568 34.8219C0.84041 35.3356 1.15237 35.8023 1.54563 36.1953L30.2537 64.9034C30.6468 65.2967 31.1135 65.6086 31.6272 65.8215C32.1408 66.0343 32.6914 66.1439 33.2474 66.1439C33.8034 66.1439 34.354 66.0343 34.8677 65.8215C35.3813 65.6086 35.848 65.2967 36.2411 64.9034L64.8136 36.3309C65.6068 35.5366 66.0523 34.4599 66.0523 33.3373C66.0523 32.2147 65.6068 31.1379 64.8136 30.3436" fill="#FCB55F"/>
</g>
<defs>
<clipPath id="clip0_238_501">
<rect width="65.75" height="65.75" fill="white" transform="translate(0.300049 0.394531)"/>
</clipPath>
</defs>
</svg>
