<svg width="67" height="67" viewBox="0 0 67 67" fill="none" xmlns="http://www.w3.org/2000/svg">
<g clip-path="url(#clip0_36_125)">
<path d="M64.809 30.3395L36.1009 1.63548C35.7078 1.24222 35.2411 0.930253 34.7275 0.717412C34.2138 0.50457 33.6632 0.39502 33.1072 0.39502C32.5512 0.39502 32.0006 0.50457 31.4869 0.717412C30.9733 0.930253 30.5066 1.24222 30.1135 1.63548L24.1549 7.59407L31.7162 15.1553C32.6079 14.8509 33.5673 14.8032 34.4848 15.0179C35.4024 15.2325 36.2411 15.7008 36.9052 16.3692C37.5694 17.0376 38.0322 17.8793 38.241 18.7982C38.4497 19.7171 38.3959 20.6762 38.0857 21.5659L45.3716 28.856C46.4496 28.4764 47.6246 28.4753 48.7033 28.8527C49.782 29.2301 50.7 29.9636 51.3061 30.9324C51.9123 31.9012 52.1705 33.0476 52.0382 34.1827C51.9059 35.3178 51.3909 36.3741 50.5782 37.1775C49.7554 38.0053 48.6708 38.5217 47.5095 38.6387C46.3483 38.7556 45.1824 38.4657 44.2112 37.8185C43.2399 37.1713 42.5235 36.207 42.1843 35.0902C41.845 33.9735 41.904 32.7736 42.3512 31.6956L35.5584 24.8987V42.7868C36.591 43.2979 37.4171 44.1474 37.8992 45.1937C38.3813 46.2401 38.4902 47.4201 38.2078 48.537C37.9254 49.654 37.2687 50.6404 36.3471 51.3318C35.4256 52.0232 34.2949 52.378 33.1436 52.3368C31.9923 52.2957 30.8898 51.8612 30.0199 51.1058C29.1501 50.3504 28.5654 49.3197 28.3634 48.1854C28.1614 47.0512 28.3542 45.882 28.9097 44.8727C29.4652 43.8634 30.3498 43.075 31.4162 42.6388V24.5863C30.801 24.3342 30.2417 23.9629 29.7707 23.4936C29.2997 23.0244 28.9262 22.4666 28.6718 21.8523C28.4174 21.238 28.2871 20.5795 28.2884 19.9146C28.2897 19.2498 28.4225 18.5917 28.6793 17.9785L21.229 10.5241L1.54514 30.208C1.15188 30.601 0.839921 31.0677 0.62708 31.5814C0.414238 32.0951 0.304688 32.6456 0.304688 33.2016C0.304688 33.7577 0.414238 34.3082 0.62708 34.8219C0.839921 35.3356 1.15188 35.8023 1.54514 36.1953L30.2532 64.9034C30.6463 65.2967 31.113 65.6086 31.6267 65.8215C32.1403 66.0343 32.6909 66.1439 33.2469 66.1439C33.8029 66.1439 34.3535 66.0343 34.8672 65.8215C35.3808 65.6086 35.8475 65.2967 36.2406 64.9034L64.8131 36.3309C65.6063 35.5366 66.0518 34.4599 66.0518 33.3373C66.0518 32.2147 65.6063 31.1379 64.8131 30.3436" fill="#342E37"/>
</g>
<defs>
<clipPath id="clip0_36_125">
<rect width="65.75" height="65.75" fill="white" transform="translate(0.299805 0.394531)"/>
</clipPath>
</defs>
</svg>
