<svg width="78" height="78" viewBox="0 0 78 78" fill="none" xmlns="http://www.w3.org/2000/svg">
<g clip-path="url(#clip0_36_123)">
<path fill-rule="evenodd" clip-rule="evenodd" d="M46.1559 7.78623C29.1006 3.61484 11.908 14.0502 7.7366 31.1055C4.39571 44.7651 10.4102 58.4637 21.6804 65.555C23.1578 66.2027 23.9631 65.4181 24.1613 64.6078C24.3406 63.8747 24.8966 61.4343 25.5289 58.849C17.4238 58.3797 16.2289 54.5705 16.0362 52.6831C15.906 51.7107 15.0712 48.603 13.9385 47.549C12.9997 46.7059 11.8054 44.9007 14.4002 45.4944C16.8405 46.0504 18.0201 48.7517 18.3724 49.8194C20.0087 55.1678 24.7671 54.9412 26.7402 54.565C27.5011 52.6246 28.6417 51.4722 29.718 50.9176C23.0383 48.466 16.5124 44.0481 19.4003 32.2406C20.2213 28.8836 22.097 26.3979 24.5934 24.7184C24.4735 23.8711 24.1669 20.4428 26.9029 16.6135C26.9029 16.6135 29.6864 16.4355 34.6181 21.8539C37.2575 21.7633 39.9663 22.0578 42.5902 22.6995C45.2141 23.3413 47.753 24.3303 50.0527 25.6289C56.9379 23.0598 59.3156 24.541 59.3156 24.541C59.9753 29.2008 58.121 32.1007 57.6236 32.7969C59.063 35.4391 59.5891 38.4713 58.7586 41.8669C55.8613 53.713 48.0038 54.572 40.9467 53.6639C41.8297 54.9023 42.3414 56.9903 41.6336 59.8843C40.6238 64.0131 39.7736 67.3221 39.5187 68.364C39.3206 69.1743 39.6634 70.2805 41.2824 70.3493C47.9164 69.7791 54.2046 67.143 59.2621 62.8119C64.3195 58.4809 67.8914 52.6729 69.4752 46.2055C73.6466 29.1503 63.2112 11.9576 46.1559 7.78623Z" fill="#342E37"/>
</g>
<defs>
<clipPath id="clip0_36_123">
<rect width="63.5583" height="63.5583" fill="white" transform="translate(15.2866 0.236084) rotate(13.7436)"/>
</clipPath>
</defs>
</svg>
