<svg width="59" height="59" viewBox="0 0 59 59" fill="none" xmlns="http://www.w3.org/2000/svg">
<circle cx="29.5038" cy="29.5788" r="25.4684" transform="rotate(-9.68909 29.5038 29.5788)" fill="#342E37" fill-opacity="0.2"/>
<g clip-path="url(#clip0_282_436)">
<path d="M39.2196 16.6443C40.6858 17.6824 41.0328 19.7144 39.9941 21.1808L37.6509 24.4888L30.9646 19.7536L33.3078 16.4456C34.3465 14.9793 36.3805 14.632 37.8468 15.6706L39.2196 16.6443ZM19.4401 36.0281L30.0259 21.0802L36.712 25.8144L26.1212 40.7601C25.8428 41.1531 25.4689 41.4695 25.0311 41.6835L20.0743 44.0611C19.675 44.2531 19.2026 44.21 18.8341 43.912C18.48 43.6992 18.2859 43.2683 18.334 42.8269L18.9337 37.3623C18.9857 36.8791 19.1602 36.4213 19.4401 36.0281ZM27.5492 21.7639L21.4835 30.3273L16.3564 26.6912C15.2573 25.9147 14.9973 24.3917 15.7761 23.2925L19.0191 18.714C19.7976 17.6146 21.3207 17.3545 22.4179 18.1337L23.5789 18.9543C23.5663 18.9714 23.5489 18.9903 23.5367 19.0094L20.8779 22.7638C20.6153 23.1283 20.7025 23.6393 21.0712 23.896C21.4357 24.1586 21.9467 24.0713 22.2034 23.7027L24.8624 19.9494C24.8747 19.9308 24.8468 19.918 24.8989 19.8911L27.5492 21.7639ZM39.5329 30.2567C39.5196 30.2693 39.503 30.2928 39.4905 30.3104L36.8316 34.0642C36.569 34.4287 36.6562 34.9397 37.0249 35.1964C37.3894 35.459 37.9004 35.3718 38.1571 35.0031L40.8161 31.2493C40.8208 31.1866 40.8 31.2159 40.8526 31.1915L42.0139 32.0141C43.1107 32.791 43.3708 34.314 42.5939 35.4108L39.3492 39.9916C38.5723 41.0885 37.0492 41.3485 35.9524 40.5716L30.8211 36.9414L36.8868 28.378L39.5329 30.2567Z" fill="#342E37"/>
</g>
<defs>
<clipPath id="clip0_282_436">
<rect width="26.0221" height="26.0221" fill="white" transform="translate(14.1694 18.717) rotate(-9.68909)"/>
</clipPath>
</defs>
</svg>
