<svg width="35" height="35" viewBox="0 0 35 35" fill="none" xmlns="http://www.w3.org/2000/svg">
<g clip-path="url(#clip0_36_104)">
<path fill-rule="evenodd" clip-rule="evenodd" d="M1.08963 12.0575C0.503216 8.06555 3.26391 4.35408 7.25581 3.76767L22.7631 1.48963C26.755 0.90322 30.4665 3.66391 31.0529 7.65582L33.3309 23.1631C33.9173 27.155 31.1566 30.8665 27.1647 31.4529L11.6575 33.7309C7.66555 34.3173 3.95408 31.5566 3.36767 27.5647L1.08963 12.0575ZM26.6235 26.5838C25.7962 26.7053 25.1454 26.5387 24.5963 26.1945C23.9552 25.7926 23.1214 25.6579 22.5293 26.1291C21.9522 26.5884 21.8219 27.4381 22.3843 27.9153C23.4873 28.851 25.0537 29.3665 27.0554 29.0724C29.7296 28.6796 31.517 26.9988 31.1445 24.4631C30.7992 22.1123 29.2948 21.2657 26.7518 20.5896L26.0035 20.3922C24.7179 20.0454 24.1448 19.7814 24.0206 18.9362C23.9203 18.2533 24.3678 17.6531 25.1918 17.5321C25.5369 17.4814 25.8387 17.5006 26.1189 17.6012C26.8291 17.8562 27.6612 18.0534 28.2303 17.5578C28.7551 17.1008 28.8465 16.2891 28.3015 15.8564C27.3254 15.0813 26.1987 14.8754 24.831 15.0763C22.3166 15.4457 20.9436 17.2901 21.2539 19.4026C21.5904 21.6935 23.0981 22.5803 25.2577 23.1469L26.0063 23.3456C27.3735 23.7187 28.189 23.9484 28.3308 24.9135C28.4493 25.72 27.7896 26.4125 26.6235 26.5838ZM15.7092 28.168C15.3038 28.2275 14.9804 28.1564 14.7004 28.0005C14.0093 27.6157 13.1784 27.4034 12.5686 27.9071C12.0156 28.3639 11.8812 29.1884 12.4189 29.663C13.3039 30.4441 14.5407 30.9058 16.1968 30.6625C18.6924 30.2959 20.2066 28.7177 19.7784 25.8025L18.573 17.5969C18.4588 16.8195 17.736 16.2819 16.9586 16.3961C16.1811 16.5103 15.6435 17.2331 15.7577 18.0105L16.9576 26.1786C17.1643 27.5856 16.633 28.0323 15.7079 28.1682L15.7092 28.168Z" fill="#342E37"/>
</g>
<defs>
<clipPath id="clip0_36_104">
<rect width="30.2848" height="30.2848" fill="white" transform="translate(0.027832 4.82947) rotate(-8.35704)"/>
</clipPath>
</defs>
</svg>
