<svg width="36" height="76" viewBox="0 0 36 76" fill="none" xmlns="http://www.w3.org/2000/svg">
<path d="M24.5248 8.86248C21.3748 5.11248 18.6373 1.36248 18.1123 0.537476H17.9998C17.4748 1.32498 14.7373 5.11248 11.5873 8.86248C-15.4127 43.325 15.8623 66.575 15.8623 66.575L16.1248 66.7625C16.3498 70.325 16.9498 75.5 16.9498 75.5H19.2748C19.2748 75.5 19.8373 70.3625 20.0623 66.7625L20.3248 66.5375C20.3248 66.5375 51.5248 43.325 24.5248 8.86248V8.86248ZM17.9998 66.05C17.3426 65.5101 16.7397 64.9072 16.1998 64.25L17.9998 26.75L19.6873 64.25C19.1814 64.9006 18.6165 65.5032 17.9998 66.05V66.05Z" fill="#96C0ED"/>
</svg>
