<svg width="90" height="90" viewBox="0 0 90 90" fill="none" xmlns="http://www.w3.org/2000/svg">
<path d="M51.5248 15.8625C48.3748 12.1125 45.6373 8.36248 45.1123 7.53748H44.9998C44.4748 8.32498 41.7373 12.1125 38.5873 15.8625C11.5873 50.325 42.8623 73.575 42.8623 73.575L43.1248 73.7625C43.3498 77.325 43.9498 82.5 43.9498 82.5H46.2748C46.2748 82.5 46.8373 77.3625 47.0623 73.7625L47.3248 73.5375C47.3248 73.5375 78.5248 50.325 51.5248 15.8625V15.8625ZM44.9998 73.05C44.3426 72.5101 43.7397 71.9072 43.1998 71.25L44.9998 33.75L46.6873 71.25C46.1814 71.9006 45.6165 72.5032 44.9998 73.05V73.05Z" fill="#E06775"/>
</svg>
