<svg width="52" height="59" viewBox="0 0 52 59" fill="none" xmlns="http://www.w3.org/2000/svg">
<path d="M25.875 0C25.0987 0 24.2938 0.20125 23.6325 0.575L2.2425 12.9375C0.8625 13.7425 0 15.2375 0 16.8475V41.515C0 43.125 0.8625 44.62 2.2425 45.425L7.84875 48.645C10.58 49.9675 11.5 49.9962 12.765 49.9962C16.79 49.9962 19.1187 47.5525 19.1187 43.2975V18.9462C19.1187 18.6012 18.8313 18.3138 18.4863 18.3138H15.8125C15.4388 18.3138 15.1513 18.6012 15.1513 18.9462V43.2975C15.1513 45.195 13.1963 47.0637 10.0625 45.4825L4.16875 42.1187C4.07195 42.0504 3.9928 41.96 3.93781 41.855C3.88282 41.75 3.85358 41.6335 3.8525 41.515V16.8475C3.8525 16.5888 3.9675 16.3588 4.16875 16.2438L25.5588 3.91C25.7313 3.795 26.0187 3.795 26.1912 3.91L47.5812 16.2438C47.7825 16.3588 47.8975 16.5888 47.8975 16.8475V41.515C47.8975 41.745 47.7825 41.975 47.5812 42.1187L26.1912 54.4525C26.0187 54.5675 25.7313 54.5675 25.53 54.4525L20.125 51.175C19.895 51.0887 19.665 51.06 19.5212 51.1462C17.9975 52.0087 17.71 52.1812 16.3013 52.6125C15.9563 52.7275 15.41 52.9287 16.5025 53.5325L23.6325 57.7588C24.3225 58.1613 25.07 58.3625 25.875 58.3625C26.68 58.3625 27.4275 58.1613 28.1175 57.7588L49.5075 45.425C50.8875 44.62 51.75 43.125 51.75 41.515V16.8475C51.75 15.2375 50.8875 13.7425 49.5075 12.9375L28.1175 0.575C27.4562 0.20125 26.68 0 25.875 0ZM31.625 17.6813C25.53 17.6813 21.8787 20.24 21.8787 24.5525C21.8787 29.1812 25.5012 30.5325 31.3662 31.1075C38.3525 31.7975 38.8988 32.8325 38.8988 34.2125C38.8988 36.5987 36.9725 37.605 32.4875 37.605C26.795 37.605 25.5875 36.1962 25.1562 33.3787C25.126 33.2331 25.0467 33.1023 24.9315 33.0081C24.8164 32.9139 24.6725 32.8621 24.5237 32.8612H21.7637C21.4187 32.8612 21.16 33.12 21.16 33.4937C21.16 37.0587 23.115 41.3712 32.4875 41.3712C39.2438 41.3712 43.125 38.6975 43.125 34.04C43.125 29.4112 40.02 28.2038 33.4363 27.3125C26.795 26.45 26.1338 25.99 26.1338 24.4375C26.1338 23.1438 26.7087 21.4188 31.625 21.4188C35.9375 21.4188 37.6337 22.3675 38.295 25.3287C38.3525 25.6162 38.6113 25.8175 38.8988 25.8175H41.6875C41.8313 25.8175 42.0037 25.76 42.1187 25.6162C42.2337 25.5012 42.32 25.3287 42.2625 25.1562C41.86 20.0388 38.4675 17.6813 31.625 17.6813Z" fill="#96C0ED"/>
</svg>
