<svg width="88" height="87" viewBox="0 0 88 87" fill="none" xmlns="http://www.w3.org/2000/svg">
<g clip-path="url(#clip0_206_639)">
<path d="M48.529 5.24729C28.9694 2.88799 29.1608 11.5599 29.1608 11.5599L28.1178 20.3956L46.7787 22.6465L46.4589 25.2977L20.3933 22.1536C20.3933 22.1536 8.04797 19.2155 5.65537 39.0511C3.26278 58.8868 14.2704 59.4981 14.2704 59.4981L20.786 60.284L21.896 51.082C21.896 51.082 22.8702 40.0627 33.9724 41.4019L52.4792 43.6342C52.4792 43.6342 62.8584 45.0555 64.0972 34.7846L66.146 17.7991C66.146 17.7991 68.9616 7.71189 48.5258 5.2469L48.529 5.24729ZM37.5226 9.94394C39.3778 10.1677 40.698 11.8574 40.4726 13.7255C40.2477 15.5903 38.5636 16.9176 36.7084 16.6938C34.85 16.4697 33.5331 14.7803 33.758 12.9155C33.9834 11.0475 35.6642 9.71978 37.5226 9.94394Z" fill="#E06775"/>
<path d="M39.7928 82.346C59.346 84.7045 59.1546 76.0325 59.1546 76.0325L60.1975 67.1969L41.5366 64.946L41.8564 62.2948L67.9284 65.4396C67.9284 65.4396 80.2738 68.3778 82.6664 48.5421C85.059 28.7065 74.0481 28.0947 74.0481 28.0947L67.5325 27.3088L66.4226 36.5109C66.4226 36.5109 65.4484 47.5301 54.3462 46.191L35.8425 43.959C35.8425 43.959 25.4634 42.5378 24.2245 52.8087L22.1757 69.7941C22.1757 69.7941 19.3569 79.881 39.7928 82.346ZM50.7991 77.6493C48.9408 77.4252 47.6238 75.7358 47.8491 73.8678C48.0741 72.003 49.7549 70.6753 51.6133 70.8994C53.4685 71.1232 54.7887 72.8129 54.5637 74.6777C54.3384 76.5457 52.6543 77.8731 50.7991 77.6493Z" fill="#E06775"/>
</g>
<defs>
<clipPath id="clip0_206_639">
<rect width="77.59" height="77.59" fill="white" transform="translate(10.2891 0.634766) rotate(6.87784)"/>
</clipPath>
</defs>
</svg>
