<svg width="45" height="45" viewBox="0 0 45 45" fill="none" xmlns="http://www.w3.org/2000/svg">
<path d="M20.3142 0.375464C32.4632 -0.726295 43.3048 8.31239 44.4065 20.4614C45.5083 32.6105 36.4696 43.4521 24.3205 44.5538C12.1715 45.6556 1.32993 36.6169 0.228174 24.4678C-0.873585 12.3188 8.1651 1.47722 20.3142 0.375464ZM18.5631 30.1823C18.9519 31.3998 19.052 32.5043 18.8636 33.4957L18.7631 33.9224C18.7756 34.0604 18.65 34.211 18.65 34.211C18.424 34.7883 18.1854 35.2275 17.8214 35.8173C16.704 37.3105 14.9594 38.0255 14.0935 37.6865C13.2276 37.3474 13.4539 35.239 14.8349 33.5827C16.3413 31.7757 18.4501 30.471 18.4501 30.471L18.5631 30.1823V30.1823ZM34.9712 8.51136C33.6543 4.7334 27.0404 3.94126 21.0281 6.71358C17.5638 8.41968 13.748 10.8536 11.0866 13.7396C7.92318 17.2279 7.7594 20.0266 7.99762 21.1186C9.18904 25.0471 14.9617 27.3075 17.484 29.0274C16.8187 29.3662 12.074 32.3019 11.2075 35.0252C10.2153 37.899 11.7712 39.7066 12.7501 39.757C15.7244 40.3224 18.624 38.5284 19.9298 36.0437C21.2356 33.559 20.8346 30.6723 20.0066 29.2163C21.0505 28.7872 22.1877 28.6361 23.3074 28.7777C27.2106 28.8413 28.2643 31.2512 28.0758 32.2427C27.8874 33.2341 27.2472 33.849 26.9961 34.1501C26.7325 34.3132 26.6069 34.4638 26.745 34.4513C26.7575 34.5893 26.8956 34.5768 27.1717 34.5518C27.4478 34.5267 29.1674 33.5356 28.9922 31.6028C28.9174 29.2433 26.3325 26.8331 22.3289 27.1961C20.6722 27.3464 19.5802 27.5846 18.915 27.9233C18.9025 27.7853 18.7644 27.7978 18.7644 27.7978C16.0415 25.4001 11.3103 23.8804 11.1229 20.2784C11.0102 19.0359 11.2494 15.5344 19.1573 10.6414C25.6091 6.57654 31.219 7.04214 32.3732 9.02536C34.0167 11.7994 30.2377 17.7098 23.2719 19.1766C20.5358 19.7032 19.0676 18.862 18.7539 18.4728C18.3022 18.0962 18.3022 18.0962 18.1641 18.1087C17.9005 18.2718 18.0636 18.5354 18.2267 18.799C18.5529 19.3262 19.4689 20.2175 21.0376 20.632C22.3177 20.9335 25.518 20.9216 29.2459 19.0525C33.3755 17.0076 36.2757 12.1513 34.9587 8.37331L34.9712 8.51136Z" fill="#96C0ED"/>
</svg>
