<svg width="45" height="45" viewBox="0 0 45 45" fill="none" xmlns="http://www.w3.org/2000/svg">
<path d="M20.3143 0.375464C32.4633 -0.726295 43.3049 8.31239 44.4066 20.4614C45.5084 32.6105 36.4697 43.4521 24.3207 44.5538C12.1716 45.6556 1.33006 36.6169 0.228296 24.4678C-0.873463 12.3188 8.16523 1.47722 20.3143 0.375464ZM18.5632 30.1823C18.952 31.3998 19.0522 32.5043 18.8637 33.4957L18.7632 33.9224C18.7757 34.0604 18.6502 34.211 18.6502 34.211C18.4241 34.7883 18.1856 35.2275 17.8215 35.8173C16.7042 37.3105 14.9595 38.0255 14.0936 37.6865C13.2277 37.3474 13.4541 35.239 14.835 33.5827C16.3414 31.7757 18.4502 30.471 18.4502 30.471L18.5632 30.1823ZM34.9714 8.51136C33.6544 4.7334 27.0405 3.94126 21.0283 6.71358C17.564 8.41968 13.7481 10.8536 11.0868 13.7396C7.9233 17.2279 7.75952 20.0266 7.99774 21.1186C9.18917 25.0471 14.9619 27.3075 17.4841 29.0274C16.8189 29.3662 12.0742 32.3019 11.2076 35.0252C10.2155 37.899 11.7713 39.7066 12.7502 39.757C15.7246 40.3224 18.6241 38.5284 19.9299 36.0437C21.2357 33.559 20.8347 30.6723 20.0067 29.2163C21.0506 28.7872 22.1879 28.6361 23.3076 28.7777C27.2107 28.8413 28.2644 31.2512 28.076 32.2427C27.8875 33.2341 27.2473 33.849 26.9962 34.1501C26.7326 34.3132 26.6071 34.4638 26.7451 34.4513C26.7576 34.5893 26.8957 34.5768 27.1718 34.5518C27.4479 34.5267 29.1676 33.5356 28.9923 31.6028C28.9175 29.2433 26.3326 26.8331 22.329 27.1962C20.6723 27.3464 19.5804 27.5846 18.9151 27.9233C18.9026 27.7853 18.7645 27.7978 18.7645 27.7978C16.0416 25.4001 11.3104 23.8804 11.123 20.2784C11.0103 19.0359 11.2495 15.5344 19.1574 10.6414C25.6092 6.57654 31.2191 7.04214 32.3733 9.02536C34.0168 11.7994 30.2378 17.7098 23.272 19.1766C20.5359 19.7032 19.0677 18.862 18.754 18.4728C18.3023 18.0962 18.3023 18.0962 18.1642 18.1087C17.9006 18.2718 18.0637 18.5354 18.2268 18.799C18.553 19.3262 19.469 20.2175 21.0377 20.632C22.3178 20.9335 25.5182 20.9216 29.2461 19.0525C33.3756 17.0076 36.2758 12.1513 34.9588 8.37331L34.9714 8.51136Z" fill="#342E37"/>
</svg>
