<svg width="47" height="48" viewBox="0 0 47 48" fill="none" xmlns="http://www.w3.org/2000/svg">
<g clip-path="url(#clip0_36_93)">
<path d="M41.79 15.9977L36.135 10.9658C35.8157 10.6814 35.4159 10.5033 34.9909 10.4563C34.5659 10.4093 34.1367 10.4957 33.763 10.7035L6.70147 24.1367C6.37345 24.2986 6.12317 24.5841 6.00567 24.9305C5.88818 25.2769 5.9131 25.6558 6.07495 25.9838C6.09461 26.0226 6.11459 26.0603 6.13749 26.0964L7.43484 28.1897C7.60426 28.4636 7.86426 28.6695 8.16969 28.7716C8.47512 28.8738 8.80669 28.8657 9.1068 28.7489L40.5687 16.5344C40.8064 16.442 41.0651 16.4178 41.3158 16.4645C41.5665 16.5112 41.7991 16.627 41.9876 16.7987C42.176 16.9705 42.3128 17.1915 42.3825 17.4368C42.4522 17.682 42.452 17.9419 42.382 18.1871L42.4038 18.1109C42.5108 17.7366 42.5099 17.3397 42.4013 16.9659C42.2928 16.5921 42.0809 16.2565 41.79 15.9977Z" fill="#342E37"/>
<path d="M34.6557 40.9499L27.1951 42.2334C26.7738 42.3055 26.3404 42.245 25.9549 42.0603C25.5694 41.8756 25.2508 41.5758 25.043 41.2022L9.17219 15.4933C8.97931 15.1826 8.91778 14.8079 9.00115 14.4517C9.08452 14.0956 9.30595 13.7871 9.61673 13.5942C9.65395 13.5716 9.69083 13.5502 9.72934 13.5317L11.9371 12.4405C12.2262 12.2968 12.5566 12.2591 12.8706 12.334C13.1847 12.409 13.4624 12.5918 13.6554 12.8506L33.9026 39.8489C34.0556 40.0529 34.2624 40.2102 34.4999 40.303C34.7374 40.3959 34.9961 40.4206 35.2468 40.3744C35.4976 40.3282 35.7305 40.213 35.9193 40.0416C36.1081 39.8702 36.2453 39.6495 36.3155 39.4044L36.2921 39.4863C36.1842 39.8592 35.9734 40.1943 35.6841 40.4531C35.3947 40.7119 35.0383 40.8841 34.6557 40.9499Z" fill="#342E37"/>
<path d="M27.1952 42.2333C26.7739 42.3054 26.3405 42.245 25.955 42.0603C25.5695 41.8756 25.2508 41.5757 25.043 41.2021C25.1603 41.41 25.3363 41.5787 25.5489 41.687C25.7616 41.7953 26.0015 41.8384 26.2386 41.811C26.4757 41.7835 26.6994 41.6867 26.8817 41.5326C27.064 41.3786 27.1967 41.1742 27.2633 40.945L35.5118 12.0942C35.5779 11.8638 35.5741 11.6188 35.5009 11.3905C35.4277 11.1622 35.2884 10.9607 35.1006 10.8116C34.9128 10.6626 34.685 10.5726 34.446 10.5531C34.207 10.5336 33.9676 10.5855 33.7581 10.7022C34.1319 10.4945 34.5609 10.4081 34.9859 10.4549C35.4109 10.5016 35.8108 10.6793 36.1304 10.9633L41.7856 15.9904C42.0777 16.2486 42.2909 16.5842 42.4005 16.9584C42.5101 17.3326 42.5117 17.7301 42.4051 18.1052L36.2922 39.4862C36.1852 39.8608 35.9745 40.1976 35.6844 40.4577C35.3944 40.7178 35.0367 40.8907 34.6527 40.9564L27.1952 42.2333Z" fill="#342E37"/>
</g>
<defs>
<clipPath id="clip0_36_93">
<rect width="37.8514" height="37.8514" fill="white" transform="translate(10.4326 0.844482) rotate(15.9553)"/>
</clipPath>
</defs>
</svg>
