<svg width="47" height="48" viewBox="0 0 47 48" fill="none" xmlns="http://www.w3.org/2000/svg">
<g clip-path="url(#clip0_205_526)">
<path d="M41.7898 15.9977L36.1348 10.9658C35.8155 10.6814 35.4156 10.5033 34.9906 10.4563C34.5656 10.4093 34.1365 10.4957 33.7628 10.7035L6.70124 24.1367C6.37322 24.2986 6.12294 24.5841 6.00544 24.9305C5.88795 25.2769 5.91287 25.6558 6.07473 25.9838C6.09438 26.0226 6.11436 26.0603 6.13726 26.0964L7.43461 28.1897C7.60403 28.4636 7.86403 28.6695 8.16946 28.7716C8.47489 28.8738 8.80646 28.8657 9.10657 28.7489L40.5685 16.5344C40.8062 16.442 41.0649 16.4178 41.3156 16.4645C41.5662 16.5112 41.7989 16.627 41.9873 16.7987C42.1758 16.9705 42.3126 17.1915 42.3822 17.4367C42.4519 17.682 42.4518 17.9419 42.3818 18.1871L42.4036 18.1109C42.5105 17.7366 42.5097 17.3397 42.4011 16.9659C42.2925 16.5921 42.0806 16.2565 41.7898 15.9977Z" fill="#96C0ED"/>
<path d="M34.6556 40.9498L27.1951 42.2332C26.7737 42.3054 26.3404 42.2449 25.9549 42.0602C25.5694 41.8755 25.2507 41.5757 25.0429 41.2021L9.17213 15.4932C8.97925 15.1824 8.91772 14.8077 9.00109 14.4516C9.08446 14.0954 9.30589 13.787 9.61667 13.5941C9.65388 13.5715 9.69077 13.5501 9.72928 13.5316L11.9371 12.4404C12.2261 12.2967 12.5565 12.259 12.8706 12.3339C13.1846 12.4088 13.4623 12.5917 13.6554 12.8505L33.9026 39.8487C34.0555 40.0528 34.2624 40.2101 34.4998 40.3029C34.7373 40.3958 34.996 40.4205 35.2468 40.3743C35.4975 40.3281 35.7304 40.2128 35.9192 40.0415C36.108 39.8701 36.2453 39.6494 36.3155 39.4043L36.292 39.4862C36.1841 39.8591 35.9734 40.1941 35.684 40.453C35.3946 40.7118 35.0383 40.884 34.6556 40.9498V40.9498Z" fill="#96C0ED"/>
<path d="M27.1952 42.2333C26.7738 42.3054 26.3405 42.245 25.955 42.0603C25.5695 41.8756 25.2508 41.5757 25.043 41.2021C25.1602 41.41 25.3362 41.5787 25.5489 41.687C25.7616 41.7953 26.0015 41.8384 26.2386 41.811C26.4756 41.7835 26.6993 41.6867 26.8816 41.5326C27.0639 41.3786 27.1967 41.1742 27.2633 40.945L35.5118 12.0942C35.5779 11.8638 35.5741 11.6188 35.5009 11.3905C35.4277 11.1622 35.2884 10.9607 35.1006 10.8116C34.9128 10.6626 34.6849 10.5726 34.4459 10.5531C34.207 10.5336 33.9676 10.5855 33.7581 10.7022C34.1318 10.4945 34.5609 10.4081 34.9858 10.4549C35.4108 10.5016 35.8108 10.6793 36.1304 10.9633L41.7855 15.9904C42.0777 16.2486 42.2909 16.5842 42.4005 16.9584C42.5101 17.3326 42.5117 17.7301 42.405 18.1052L36.2921 39.4862C36.1851 39.8608 35.9745 40.1976 35.6844 40.4577C35.3943 40.7178 35.0367 40.8907 34.6527 40.9564L27.1952 42.2333Z" fill="#96C0ED"/>
</g>
<defs>
<clipPath id="clip0_205_526">
<rect width="37.8514" height="37.8514" fill="white" transform="translate(10.4325 0.844482) rotate(15.9553)"/>
</clipPath>
</defs>
</svg>
