<svg width="78" height="78" viewBox="0 0 78 78" fill="none" xmlns="http://www.w3.org/2000/svg">
<g clip-path="url(#clip0_206_602)">
<path d="M59.7463 64.1374L26.5663 69.4684C23.633 69.9397 20.6326 69.2264 18.2252 67.4855C15.8178 65.7446 14.2006 63.1187 13.7293 60.1854L8.39832 27.0053C7.92704 24.072 8.6403 21.0717 10.3812 18.6642C12.1221 16.2568 14.7481 14.6396 17.6813 14.1683L50.8614 8.83737C53.7947 8.36608 56.795 9.07935 59.2025 10.8203C61.6099 12.5612 63.2271 15.1871 63.6984 18.1204L69.0293 51.3004C69.5006 54.2337 68.7874 57.2341 67.0464 59.6415C65.3055 62.0489 62.6796 63.6661 59.7463 64.1374ZM18.5698 19.6983C17.1032 19.934 15.7902 20.7426 14.9198 21.9463C14.0493 23.15 13.6927 24.6502 13.9283 26.1168L19.2593 59.2969C19.4949 60.7635 20.3035 62.0765 21.5072 62.9469C22.7109 63.8174 24.2111 64.174 25.6778 63.9384L58.8578 58.6074C60.3245 58.3718 61.6374 57.5632 62.5079 56.3595C63.3783 55.1558 63.735 53.6556 63.4993 52.1889L58.1684 19.0089C57.9327 17.5422 57.1241 16.2293 55.9204 15.3588C54.7167 14.4884 53.2165 14.1317 51.7499 14.3674L18.5698 19.6983ZM51.2375 50.6873C50.0495 50.9276 48.8251 50.9234 47.6387 50.6752C46.4524 50.4269 45.3291 49.9397 44.3371 49.2432C42.212 47.4841 40.8616 44.9616 40.5762 42.2176C40.0959 39.5833 40.6264 36.8648 42.0617 34.6043C42.8226 33.488 43.811 32.5452 44.9619 31.8377C46.1128 31.1303 47.4003 30.6742 48.7399 30.4993L49.3841 30.3958L48.4957 24.8658C48.4263 24.4344 48.7211 24.0269 49.152 23.9548L52.7935 23.3697C52.9944 23.3297 53.2031 23.3671 53.3776 23.4744C53.4638 23.5332 53.5365 23.6097 53.5909 23.6988C53.6453 23.7878 53.6802 23.8874 53.6932 23.991L57.1045 45.2234C57.2084 45.9584 57.3649 46.6849 57.5674 47.3983L57.5785 47.4674C57.611 47.6426 57.5842 47.8235 57.5023 47.9817C57.4299 48.1072 57.3297 48.2145 57.2095 48.2954C55.4377 49.5197 53.416 50.3347 51.2905 50.6816L51.2375 50.6873V50.6873ZM46.432 36.9484L46.4208 36.9673C45.7303 38.2605 45.5185 39.7561 45.8229 41.1903C45.9514 42.7149 46.627 44.1416 47.7249 45.2073C48.5937 45.9016 49.7293 46.173 50.8182 45.9413C51.1675 45.8905 51.5098 45.7993 51.8382 45.6696L50.1283 35.0272C49.8613 35.0134 49.5937 35.0288 49.3301 35.0731C48.7376 35.1521 48.1702 35.3621 47.6691 35.688C47.168 36.0138 46.7458 36.4472 46.4333 36.9567L46.432 36.9484V36.9484ZM41.4061 51.9378L37.3941 52.5824C37.1901 52.629 36.9765 52.6106 36.7834 52.5297C36.5904 52.4488 36.4275 52.3096 36.3176 52.1314L35.5415 51.0081L35.5227 50.9799L34.7742 49.9401L34.5382 49.6008C33.3638 47.9231 32.1529 46.1946 30.9304 44.4112C30.1133 47.4259 29.2561 50.4296 28.3589 53.4214L28.3634 53.4491L28.3535 53.4762C28.2859 53.6461 28.1777 53.7969 28.0383 53.9154C27.8964 54.0344 27.7241 54.1112 27.5407 54.1372L23.7499 54.7462C23.5926 54.7795 23.4288 54.7606 23.2832 54.6924C23.1376 54.6241 23.0183 54.5103 22.9432 54.3682C22.8915 54.259 22.8655 54.1395 22.8673 54.0187C22.869 53.898 22.8984 53.7792 22.9533 53.6716L27.2235 40.8997L19.3457 29.9293C19.2469 29.8261 19.1793 29.6971 19.1507 29.5571C19.1222 29.4171 19.134 29.2719 19.1846 29.1383C19.2343 29.0165 19.3146 28.9096 19.4178 28.8279C19.5209 28.7463 19.6434 28.6926 19.7734 28.6721L23.7384 28.0351C23.9294 27.9938 24.1281 28.0071 24.3118 28.0734C24.5002 28.1506 24.6579 28.2878 24.7603 28.4637C26.7421 31.3362 28.425 33.8313 29.9015 36.0475C30.7704 32.7879 31.7171 29.4647 32.3557 27.2604L32.3646 27.2278L32.3767 27.1974L32.3718 27.167C32.4222 27.0376 32.4916 26.9165 32.5779 26.8077C32.7261 26.6375 32.9311 26.5269 33.1548 26.4967L36.8682 25.9C37.0096 25.8734 37.1556 25.8883 37.2887 25.943C37.4218 25.9976 37.5363 26.0896 37.6182 26.2078C37.6859 26.3173 37.7261 26.4416 37.7354 26.57C37.7446 26.6984 37.7227 26.8271 37.6714 26.9452L33.5674 39.4805L41.8318 50.6328C41.9151 50.7278 41.976 50.8403 42.0098 50.9621C42.0436 51.0839 42.0495 51.2117 42.0271 51.336C41.9979 51.4876 41.9225 51.6264 41.8111 51.7332C41.6997 51.84 41.5579 51.9096 41.4053 51.9323L41.4061 51.9378V51.9378Z" fill="#E06775"/>
</g>
<defs>
<clipPath id="clip0_206_602">
<rect width="67.2111" height="67.2111" fill="white" transform="translate(0.202759 11.3037) rotate(-9.12757)"/>
</clipPath>
</defs>
</svg>
