<svg width="125" height="125" viewBox="0 0 125 125" fill="none" xmlns="http://www.w3.org/2000/svg">
<g clip-path="url(#clip0_205_537)">
<path d="M92.1974 16.8386L14.8943 35.9612C13.4299 36.3235 12.1693 37.2527 11.39 38.5443C10.6106 39.836 10.3763 41.3844 10.7386 42.8488L25.7635 103.587C26.1257 105.051 27.0549 106.312 28.3466 107.091C29.6382 107.871 31.1866 108.105 32.651 107.743L109.954 88.6201C111.419 88.2578 112.679 87.3287 113.459 86.037C114.238 84.7453 114.472 83.197 114.11 81.7326L99.085 20.9944C98.7227 19.5299 97.7936 18.2694 96.5019 17.49C95.2102 16.7107 93.6619 16.4764 92.1974 16.8386V16.8386ZM16.2602 41.4829L93.5633 22.3603L95.0658 28.4341L17.7627 47.5567L16.2602 41.4829ZM31.2851 102.221L18.8554 51.974L96.1586 32.8514L108.588 83.0985L31.2851 102.221Z" fill="#96C0ED"/>
<path d="M63.0781 76.7778L79.6431 72.6801L81.009 78.2018L64.444 82.2995L63.0781 76.7778Z" fill="#96C0ED"/>
<path d="M30.4707 63.398L51.3475 67.3746L34.7254 80.598L36.2279 86.6718L59.7201 67.9402L58.4839 62.9431L28.9682 57.3242L30.4707 63.398Z" fill="#96C0ED"/>
</g>
<defs>
<clipPath id="clip0_205_537">
<rect width="102.386" height="102.386" fill="white" transform="translate(0.436111 24.8889) rotate(-13.8944)"/>
</clipPath>
</defs>
</svg>
