<svg width="125" height="125" viewBox="0 0 125 125" fill="none" xmlns="http://www.w3.org/2000/svg">
<g clip-path="url(#clip0_238_543)">
<path d="M92.1975 16.8388L14.8943 35.9614C13.4299 36.3236 12.1694 37.2528 11.39 38.5445C10.6106 39.8361 10.3763 41.3845 10.7386 42.8489L25.7635 103.587C26.1258 105.052 27.0549 106.312 28.3466 107.091C29.6383 107.871 31.1866 108.105 32.651 107.743L109.954 88.6202C111.419 88.258 112.679 87.3288 113.459 86.0371C114.238 84.7455 114.472 83.1971 114.11 81.7327L99.085 20.9945C98.7228 19.5301 97.7936 18.2695 96.5019 17.4902C95.2103 16.7108 93.6619 16.4765 92.1975 16.8388V16.8388ZM16.2602 41.483L93.5634 22.3604L95.0659 28.4342L17.7627 47.5568L16.2602 41.483ZM31.2851 102.221L18.8554 51.9742L96.1586 32.8515L108.588 83.0986L31.2851 102.221Z" fill="#FCB55F"/>
<path d="M63.0781 76.7778L79.6431 72.6801L81.009 78.2018L64.444 82.2995L63.0781 76.7778Z" fill="#FCB55F"/>
<path d="M30.4708 63.398L51.3476 67.3746L34.7255 80.598L36.228 86.6718L59.7202 67.9402L58.484 62.9431L28.9683 57.3242L30.4708 63.398Z" fill="#FCB55F"/>
</g>
<defs>
<clipPath id="clip0_238_543">
<rect width="102.386" height="102.386" fill="white" transform="translate(0.436157 24.8889) rotate(-13.8944)"/>
</clipPath>
</defs>
</svg>
