<svg width="72" height="72" viewBox="0 0 72 72" fill="none" xmlns="http://www.w3.org/2000/svg">
<g clip-path="url(#clip0_206_623)">
<path d="M31.7199 34.2653C31.2806 33.632 30.8708 33.0144 30.4314 32.381C29.9921 31.7477 29.5892 31.1527 29.2089 30.5509C28.8354 29.9718 28.4984 29.431 28.175 28.9356L28.1298 28.9493C28.2212 29.9849 28.2674 31.0342 28.2456 32.1041C28.2355 33.2942 28.2392 34.5295 28.2202 35.7716C28.2533 37.0227 28.2364 38.1901 28.1851 39.2442L33.9372 37.5001C33.6564 37.0634 33.3043 36.5545 32.9212 36.0252C32.5327 35.4778 32.1297 34.8829 31.7199 34.2653V34.2653ZM45.4375 4.31441L10.3362 14.9579C5.01441 16.5715 2.01635 22.179 3.63003 27.5008L13.8615 61.2433C15.4752 66.5651 21.0826 69.5632 26.4044 67.9495L61.5057 57.306C66.8275 55.6924 69.8256 50.0849 68.2119 44.7631L57.9804 11.0206C56.3668 5.69878 50.7593 2.70072 45.4375 4.31441ZM45.352 45.2159L40.6167 46.6518C40.4673 46.7218 40.2745 46.6566 40.1811 46.5119L36.6899 41.6852L28.2656 44.2396L28.1582 50.0833C28.1747 50.3008 28.0347 50.4917 27.8247 50.5331L23.5672 51.824C23.3181 51.8996 23.2083 51.782 23.1945 51.4919L24.1204 28.2857C24.1197 28.0387 24.1121 27.769 24.1203 27.4697C24.0666 26.9667 23.9609 26.4548 23.8098 25.9566C23.7528 25.8502 23.8091 25.7095 23.9154 25.6525L29.7807 23.874C29.9619 23.8191 30.0731 23.8596 30.1301 23.9659L45.4686 44.7849C45.6114 45.0112 45.5785 45.1473 45.352 45.2159V45.2159ZM52.9487 42.5416C53.0242 42.7907 52.9702 42.9307 52.7664 42.9925L48.3255 44.3391C48.0991 44.4077 47.9439 44.3039 47.876 44.0797L42.5886 26.6423C42.5199 26.4158 42.5853 26.2971 42.7891 26.2353L47.273 24.8757C47.4768 24.8139 47.5995 24.9003 47.6613 25.1041L52.9487 42.5416V42.5416ZM46.2747 22.2357C46.0896 22.5885 45.8312 22.8975 45.5168 23.1421C45.2024 23.3867 44.8394 23.5612 44.452 23.6539C43.7115 23.9032 42.8976 23.8285 42.1939 23.4731C41.503 23.0631 40.9999 22.3992 40.7922 21.6232C40.5361 20.8601 40.6107 20.0461 40.994 19.3612C41.3841 18.6741 42.0264 18.1826 42.7737 17.956C43.6592 17.6875 44.4164 17.7547 45.0748 18.1238C45.7378 18.5162 46.2293 19.1585 46.4333 19.9127C46.6894 20.6758 46.6443 21.5055 46.2747 22.2357V22.2357Z" fill="#E06775"/>
</g>
<defs>
<clipPath id="clip0_206_623">
<rect width="56.794" height="56.794" fill="white" transform="translate(0.505615 17.1968) rotate(-16.8684)"/>
</clipPath>
</defs>
</svg>
