<svg width="554" height="329" viewBox="0 0 554 329" fill="none" xmlns="http://www.w3.org/2000/svg">
<g filter="url(#filter0_d_48_561)">
<path d="M206 324C234.938 324 261.443 313.583 281.97 296.295C357.304 233.941 399.823 257.73 434.966 299.854C447.07 314.596 465.437 324 486 324C522.451 324 552 294.451 552 258C552 238.201 543.282 220.438 529.475 208.341C513.058 193.809 506.964 188.085 511.857 146.245C512.611 140.604 513 134.847 513 129C513 57.7553 455.245 0 384 0C342.393 0 305.387 19.6978 281.798 50.2767C254.641 84.751 246.39 87.8706 205.68 88.0004C205.663 88.0004 205.647 88.0005 205.631 88.0006C140.631 88.1996 88 140.954 88 206C88 271.17 140.83 324 206 324Z" fill="#E6E6E6"/>
</g>
<g filter="url(#filter1_i_48_561)">
<path d="M218.065 302C244.321 302 268.37 292.805 286.995 277.544C355.347 222.503 393.926 243.502 425.812 280.686C436.794 293.699 453.459 302 472.116 302C505.189 302 532 275.916 532 243.741C532 226.264 524.09 210.584 511.563 199.906C496.667 187.078 491.137 182.026 495.578 145.093C496.261 140.113 496.614 135.032 496.614 129.87C496.614 66.9815 444.211 16 379.569 16C341.818 16 308.241 33.3876 286.838 60.38C262.198 90.8111 254.712 93.5648 217.774 93.6794C217.759 93.6794 217.745 93.6795 217.73 93.6795C158.753 93.8552 111 140.422 111 197.84C111 255.366 158.934 302 218.065 302Z" fill="#342E37"/>
</g>
<path d="M227.604 173.283C232.128 173.283 235.795 169.617 235.795 165.095C235.795 160.573 232.128 156.907 227.604 156.907C223.08 156.907 219.413 160.573 219.413 165.095C219.413 169.617 223.08 173.283 227.604 173.283Z" fill="#F7C4A7"/>
<path d="M225.01 158.544C225.01 158.544 228.833 159.568 230.812 159.977C232.792 160.387 232.587 159.227 232.587 159.227C232.587 159.227 235.181 159.568 235.044 159.295C234.908 159.022 236.136 157.589 234.703 155.952C233.27 154.314 233.679 153.086 233.679 153.086H232.45L232.109 152.608H230.198C230.198 152.608 228.085 150.756 224.331 151.302C220.577 151.848 216.137 153.29 215.728 155.542C215.672 155.848 215.599 156.187 215.514 156.545C214.487 160.878 216.669 164.931 218.931 168.766C219.487 169.709 222.176 171.764 222.107 170.354C222.039 168.944 219.686 165.777 221.325 165.572C222.963 165.368 225.761 161.205 225.01 158.544Z" fill="#1F1D20"/>
<path d="M222.958 191.565C221.377 191.438 219.809 191.181 218.27 190.795L218.356 189.162L219.073 176.179L219.08 176.08H233.508L235.773 188.034L236.078 189.647C235.48 189.879 234.876 190.098 234.259 190.29C234.252 190.29 234.252 190.297 234.246 190.297C233.389 190.563 232.519 190.795 231.642 190.987C230.477 191.239 229.297 191.42 228.11 191.532C227.192 191.623 226.271 191.667 225.348 191.664C224.551 191.664 223.748 191.631 222.958 191.565Z" fill="#1F1D20"/>
<path d="M213.682 189.255C213.084 188.996 212.507 188.717 211.936 188.425L211.69 188.299C211.524 188.213 211.352 188.12 211.186 188.027C210.96 187.901 210.74 187.775 210.528 187.649C210.322 187.529 210.11 187.403 209.904 187.277C209.891 187.27 209.884 187.264 209.871 187.264C209.154 186.806 208.45 186.335 207.773 185.823C207.66 185.737 207.547 185.651 207.434 185.565L207.314 183.653L207.487 183.547L219.074 176.179L219.233 176.08L219.246 176.073L220.879 176.08V182.16C221.803 183.494 222.427 186.288 222.812 189.945C222.865 190.47 222.911 191.007 222.958 191.565C221.377 191.438 219.809 191.181 218.27 190.795C218.104 190.762 217.945 190.722 217.779 190.675C216.811 190.422 215.858 190.117 214.924 189.759C214.638 189.653 214.359 189.54 214.08 189.428L214.054 189.414C213.934 189.361 213.802 189.308 213.682 189.255Z" fill="#A6F17E"/>
<path d="M211.185 188.027C210.959 187.901 210.74 187.775 210.528 187.649C210.322 187.529 210.11 187.403 209.904 187.277C209.89 187.27 209.884 187.264 209.871 187.264C209.154 186.806 208.45 186.335 207.772 185.824C207.66 185.737 207.547 185.651 207.434 185.565C207.381 185.518 207.328 185.478 207.268 185.432C206.843 185.107 206.431 184.768 206.033 184.41C206.013 184.396 206 184.377 205.979 184.363C206.382 184.054 206.833 183.814 207.314 183.653L207.786 183.792L211.146 184.801L211.165 186.162L211.185 188.027Z" fill="#A6F17E"/>
<path d="M239.478 188.047C239.278 188.153 239.079 188.259 238.88 188.359C238.834 188.386 238.794 188.405 238.754 188.425C238.488 188.558 238.23 188.691 237.964 188.817C237.957 188.824 237.944 188.824 237.944 188.83C237.931 188.837 237.911 188.844 237.898 188.85C237.3 189.136 236.696 189.401 236.078 189.647C235.481 189.879 234.876 190.098 234.259 190.291C234.252 190.291 234.252 190.297 234.246 190.297C233.389 190.563 232.519 190.795 231.642 190.987C231.633 190.442 231.704 189.899 231.855 189.375L231.862 189.282L232.433 180.042L231.669 176.08L233.86 175.754L245.912 182.239C245.912 182.239 244.584 183.567 239.132 186.394C238.65 186.644 239.358 187.476 239.478 188.047Z" fill="#A6F17E"/>
<path d="M227.964 189.939C227.101 190.018 226.224 190.058 225.348 190.058C224.498 190.058 223.655 190.025 222.811 189.945C222.865 190.47 222.911 191.007 222.958 191.565C223.748 191.631 224.551 191.664 225.348 191.664C226.27 191.667 227.192 191.623 228.11 191.532C229.297 191.42 230.477 191.239 231.642 190.987C231.632 190.442 231.704 189.899 231.855 189.374L231.861 189.282C230.58 189.593 229.277 189.813 227.964 189.939ZM253.056 152.689C251.653 148.66 249.387 144.986 246.418 141.922C243.448 138.858 239.845 136.478 235.861 134.949C231.877 133.42 227.607 132.778 223.349 133.068C219.092 133.358 214.948 134.573 211.208 136.628C207.468 138.683 204.222 141.529 201.695 144.967C199.169 148.405 197.423 152.353 196.579 156.535C195.735 160.717 195.814 165.032 196.811 169.18C197.807 173.329 199.696 177.21 202.347 180.553C202.613 180.885 202.885 181.217 203.164 181.536C203.191 181.562 203.204 181.582 203.224 181.602C203.909 182.392 204.639 183.144 205.408 183.852C205.594 184.025 205.787 184.197 205.979 184.363C205.999 184.376 206.013 184.396 206.032 184.41C206.431 184.768 206.843 185.107 207.267 185.432C207.327 185.478 207.38 185.518 207.433 185.565C207.546 185.651 207.659 185.737 207.772 185.823C208.449 186.334 209.153 186.806 209.87 187.264C209.884 187.264 209.89 187.27 209.903 187.277C210.109 187.403 210.322 187.529 210.528 187.649C210.74 187.775 210.959 187.901 211.185 188.027C211.351 188.12 211.524 188.213 211.69 188.299L211.935 188.425C212.506 188.717 213.084 188.996 213.681 189.255C213.801 189.308 213.934 189.361 214.053 189.414L214.08 189.428C214.359 189.54 214.638 189.653 214.923 189.759C215.858 190.117 216.811 190.422 217.778 190.675C217.944 190.722 218.104 190.762 218.27 190.795C219.808 191.181 221.376 191.438 222.958 191.565C223.748 191.631 224.551 191.664 225.348 191.664C226.27 191.667 227.192 191.623 228.11 191.532C229.297 191.42 230.477 191.239 231.642 190.987C232.519 190.795 233.389 190.563 234.245 190.297C234.252 190.297 234.252 190.29 234.259 190.29C234.876 190.098 235.48 189.879 236.078 189.647C236.695 189.401 237.3 189.136 237.897 188.85C237.911 188.844 237.93 188.837 237.944 188.83C237.944 188.824 237.957 188.824 237.964 188.817C238.229 188.691 238.488 188.558 238.754 188.425C238.794 188.405 238.833 188.386 238.88 188.359C239.079 188.259 239.278 188.153 239.477 188.047C239.491 188.04 239.497 188.034 239.511 188.027C240.035 187.735 240.553 187.43 241.064 187.104C241.204 187.018 241.343 186.932 241.483 186.832C241.689 186.706 241.888 186.567 242.08 186.427C242.339 186.248 242.598 186.062 242.851 185.87C242.934 185.816 243.014 185.756 243.089 185.691C243.707 185.226 244.305 184.735 244.876 184.217C249.206 180.36 252.294 175.306 253.75 169.694C255.207 164.082 254.965 158.164 253.056 152.689L253.056 152.689ZM244.378 182.505C243.659 183.181 242.905 183.819 242.12 184.416C241.948 184.549 241.768 184.682 241.589 184.801C241.416 184.934 241.244 185.06 241.065 185.18C240.912 185.286 240.759 185.392 240.6 185.492C240.586 185.505 240.567 185.511 240.553 185.525C240.44 185.604 240.321 185.677 240.208 185.75C239.856 185.969 239.491 186.189 239.132 186.394C239.046 186.441 238.966 186.494 238.88 186.54C238.833 186.567 238.787 186.593 238.734 186.62C238.535 186.733 238.335 186.832 238.136 186.939C238.11 186.958 238.077 186.965 238.05 186.985C238.04 186.987 238.031 186.991 238.023 186.998C237.884 187.071 237.745 187.138 237.605 187.204C237.486 187.264 237.373 187.323 237.253 187.377C236.768 187.609 236.27 187.828 235.772 188.034C235.248 188.246 234.717 188.439 234.179 188.618C234.046 188.664 233.907 188.717 233.767 188.757C233.136 188.956 232.506 189.136 231.861 189.282C230.58 189.593 229.277 189.813 227.964 189.939C227.101 190.018 226.224 190.058 225.348 190.058C224.498 190.058 223.655 190.025 222.811 189.945C221.307 189.808 219.817 189.546 218.356 189.162C218.303 189.149 218.243 189.136 218.19 189.122C216.992 188.81 215.818 188.411 214.678 187.928C214.618 187.901 214.551 187.881 214.498 187.855C214.432 187.828 214.372 187.808 214.319 187.781C214.252 187.755 214.193 187.728 214.133 187.702C213.635 187.483 213.15 187.244 212.666 186.998L212.44 186.879C212.008 186.653 211.583 186.421 211.165 186.162C211.019 186.082 210.866 185.989 210.72 185.896C210.554 185.797 210.388 185.691 210.229 185.584C210.189 185.558 210.149 185.531 210.109 185.505C209.738 185.253 209.359 185 209.001 184.728C208.748 184.542 208.503 184.363 208.257 184.171C208.097 184.051 207.938 183.925 207.785 183.792C207.686 183.719 207.586 183.633 207.487 183.547C207.354 183.434 207.221 183.321 207.088 183.202C206.883 183.036 206.69 182.85 206.504 182.677C205.756 181.989 205.049 181.257 204.386 180.487C204.16 180.235 203.947 179.982 203.742 179.717C203.694 179.665 203.65 179.609 203.609 179.551C200.266 175.333 198.224 170.233 197.731 164.874C197.238 159.515 198.316 154.129 200.834 149.372C203.351 144.615 207.199 140.693 211.908 138.085C216.617 135.477 221.984 134.296 227.353 134.685C232.723 135.074 237.863 137.017 242.146 140.276C246.43 143.535 249.672 147.971 251.477 153.041C253.282 158.111 253.572 163.596 252.311 168.828C251.051 174.06 248.294 178.812 244.378 182.505L244.378 182.505Z" fill="#A6F17E"/>
<path d="M436 100H275V112H436V100Z" fill="#A6F17E"/>
<path d="M283 108C284.105 108 285 107.105 285 106C285 104.895 284.105 104 283 104C281.895 104 281 104.895 281 106C281 107.105 281.895 108 283 108Z" fill="#342E37"/>
<path d="M290 108C291.105 108 292 107.105 292 106C292 104.895 291.105 104 290 104C288.895 104 288 104.895 288 106C288 107.105 288.895 108 290 108Z" fill="#342E37"/>
<path d="M297 108C298.105 108 299 107.105 299 106C299 104.895 298.105 104 297 104C295.895 104 295 104.895 295 106C295 107.105 295.895 108 297 108Z" fill="#342E37"/>
<path d="M277.239 133.948C276.99 133.948 276.751 134.047 276.574 134.223C276.398 134.4 276.299 134.639 276.299 134.888C276.299 135.138 276.398 135.377 276.574 135.553C276.751 135.73 276.99 135.829 277.239 135.829H328.855C329.104 135.829 329.344 135.73 329.52 135.553C329.696 135.377 329.795 135.138 329.795 134.888C329.795 134.639 329.696 134.4 329.52 134.223C329.344 134.047 329.104 133.948 328.855 133.948H277.239Z" fill="#F5F5F5"/>
<path d="M277.239 139.59C276.99 139.591 276.752 139.69 276.576 139.866C276.4 140.043 276.301 140.282 276.301 140.531C276.301 140.78 276.4 141.019 276.576 141.195C276.752 141.371 276.99 141.47 277.239 141.471H303.59C303.839 141.47 304.078 141.371 304.254 141.195C304.43 141.019 304.529 140.78 304.529 140.531C304.529 140.282 304.43 140.043 304.254 139.866C304.078 139.69 303.839 139.591 303.59 139.59H277.239Z" fill="#F5F5F5"/>
<path d="M276.354 167C275.995 167 275.65 167.105 275.397 167.293C275.143 167.48 275 167.735 275 168C275 168.265 275.143 168.52 275.397 168.707C275.65 168.895 275.995 169 276.354 169H415.646C416.005 169 416.35 168.895 416.603 168.707C416.857 168.52 417 168.265 417 168C417 167.735 416.857 167.48 416.603 167.293C416.35 167.105 416.005 167 415.646 167H276.354Z" fill="#F5F5F5"/>
<path d="M276.164 172C275.855 172.001 275.559 172.106 275.341 172.294C275.123 172.481 275 172.735 275 173C275 173.265 275.123 173.519 275.341 173.706C275.559 173.894 275.855 173.999 276.164 174H364.836C365.145 173.999 365.441 173.894 365.659 173.706C365.877 173.519 366 173.265 366 173C366 172.735 365.877 172.481 365.659 172.294C365.441 172.106 365.145 172.001 364.836 172H276.164Z" fill="#F5F5F5"/>
<path d="M276.189 178C275.874 178.001 275.571 178.106 275.348 178.294C275.125 178.481 275 178.735 275 179C275 179.265 275.125 179.519 275.348 179.706C275.571 179.894 275.874 179.999 276.189 180H398.811C399.126 179.999 399.429 179.894 399.652 179.706C399.875 179.519 400 179.265 400 179C400 178.735 399.875 178.481 399.652 178.294C399.429 178.106 399.126 178.001 398.811 178H276.189Z" fill="#F5F5F5"/>
<path d="M276.33 184C275.977 184.001 275.639 184.106 275.389 184.294C275.14 184.481 275 184.735 275 185C275 185.265 275.14 185.519 275.389 185.706C275.639 185.894 275.977 185.999 276.33 186H377.67C378.023 185.999 378.361 185.894 378.611 185.706C378.86 185.519 379 185.265 379 185C379 184.735 378.86 184.481 378.611 184.294C378.361 184.106 378.023 184.001 377.67 184H276.33Z" fill="#F5F5F5"/>
<path d="M276.973 131L278.612 123.714H281.42L283.059 131H281.58L281.291 129.682H278.741L278.452 131H276.973ZM279.759 124.936L279.02 128.396H281.012L280.273 124.936H279.759ZM286.493 125.514C287.243 125.514 287.79 125.721 288.133 126.136C288.483 126.543 288.658 127.275 288.658 128.332C288.658 129.389 288.458 130.121 288.058 130.529C287.658 130.929 286.968 131.129 285.99 131.129C285.683 131.129 285.122 131.093 284.308 131.021L283.901 130.979V123.5H285.336V125.804C285.793 125.611 286.179 125.514 286.493 125.514ZM285.99 129.843C286.468 129.843 286.79 129.729 286.954 129.5C287.118 129.264 287.201 128.846 287.201 128.246C287.201 127.282 286.901 126.8 286.301 126.8C286.015 126.8 285.743 126.836 285.486 126.907L285.336 126.939V129.8C285.665 129.829 285.883 129.843 285.99 129.843ZM290.018 126.254C290.396 125.761 291.029 125.514 291.914 125.514C292.8 125.514 293.432 125.761 293.811 126.254C294.189 126.739 294.379 127.425 294.379 128.311C294.379 130.189 293.557 131.129 291.914 131.129C290.271 131.129 289.45 130.189 289.45 128.311C289.45 127.425 289.639 126.739 290.018 126.254ZM291.121 129.521C291.271 129.779 291.536 129.907 291.914 129.907C292.293 129.907 292.554 129.779 292.696 129.521C292.846 129.264 292.921 128.861 292.921 128.311C292.921 127.761 292.846 127.361 292.696 127.111C292.554 126.861 292.293 126.736 291.914 126.736C291.536 126.736 291.271 126.861 291.121 127.111C290.979 127.361 290.907 127.761 290.907 128.311C290.907 128.861 290.979 129.264 291.121 129.521ZM298.592 125.643H300.027V131H298.602V130.7C298.088 130.986 297.642 131.129 297.263 131.129C296.52 131.129 296.02 130.925 295.763 130.518C295.506 130.104 295.377 129.414 295.377 128.45V125.643H296.813V128.471C296.813 129 296.856 129.361 296.942 129.554C297.027 129.746 297.235 129.843 297.563 129.843C297.877 129.843 298.174 129.793 298.452 129.693L298.592 129.65V125.643ZM304.321 126.864H303.003V129.061C303.003 129.275 303.007 129.429 303.014 129.521C303.028 129.607 303.068 129.682 303.132 129.746C303.203 129.811 303.31 129.843 303.453 129.843L304.268 129.821L304.332 130.968C303.853 131.075 303.489 131.129 303.239 131.129C302.596 131.129 302.157 130.986 301.921 130.7C301.685 130.407 301.568 129.871 301.568 129.093V126.864H300.935V125.643H301.568V124.154H303.003V125.643H304.321V126.864ZM307.739 131V123.714H310.257L311.542 129.029L312.828 123.714H315.346V131H313.867V125.364H313.707L312.282 130.679H310.803L309.378 125.364H309.217V131H307.739ZM317.923 128.932C317.93 129.261 318.016 129.5 318.18 129.65C318.352 129.793 318.595 129.864 318.909 129.864C319.573 129.864 320.166 129.843 320.687 129.8L320.987 129.768L321.009 130.829C320.187 131.029 319.445 131.129 318.78 131.129C317.973 131.129 317.387 130.914 317.023 130.486C316.659 130.057 316.477 129.361 316.477 128.396C316.477 126.475 317.266 125.514 318.845 125.514C320.402 125.514 321.18 126.321 321.18 127.936L321.073 128.932H317.923ZM319.766 127.839C319.766 127.411 319.698 127.114 319.562 126.95C319.427 126.779 319.187 126.693 318.845 126.693C318.509 126.693 318.27 126.782 318.127 126.961C317.991 127.132 317.92 127.425 317.912 127.839H319.766Z" fill="#F5F5F5"/>
<line x1="325" y1="130" x2="337" y2="130" stroke="#A6F17E" stroke-width="2" stroke-linecap="round"/>
<path d="M29.7935 320.889L29.3767 320.118C34.9646 317.097 41.919 313.338 45.5514 307.168C49.1321 301.086 49.2124 292.827 45.761 285.614C42.8239 279.475 37.4284 273.976 30.1582 269.709C28.7241 268.868 27.2187 268.07 25.7629 267.299C22.2439 265.435 18.6051 263.507 15.6048 260.772C11.4723 257.005 8.34559 250.683 10.676 245.052C11.4425 243.255 12.6977 241.708 14.2991 240.588C15.9006 239.468 17.7841 238.819 19.7358 238.715L19.7852 239.59C17.9972 239.685 16.2716 240.279 14.8041 241.304C13.3367 242.33 12.1863 243.746 11.4833 245.392C9.31774 250.625 12.2889 256.563 16.1952 260.125C19.1136 262.785 22.7025 264.686 26.1732 266.525C27.6373 267.301 29.1514 268.103 30.6019 268.954C38.0234 273.309 43.5388 278.939 46.5515 285.236C50.127 292.708 50.0332 301.283 46.3066 307.612C42.5505 313.992 35.4771 317.816 29.7935 320.889Z" fill="#A6F17E"/>
<path d="M25.2896 243.332C29.5243 243.332 32.9572 241.665 32.9572 239.609C32.9572 237.553 29.5243 235.886 25.2896 235.886C21.055 235.886 17.6221 237.553 17.6221 239.609C17.6221 241.665 21.055 243.332 25.2896 243.332Z" fill="#A6F17E"/>
<path d="M31.4239 267.86C35.6586 267.86 39.0915 266.193 39.0915 264.137C39.0915 262.081 35.6586 260.414 31.4239 260.414C27.1892 260.414 23.7563 262.081 23.7563 264.137C23.7563 266.193 27.1892 267.86 31.4239 267.86Z" fill="#A6F17E"/>
<path d="M17.4029 271.802C21.6376 271.802 25.0705 270.135 25.0705 268.079C25.0705 266.023 21.6376 264.356 17.4029 264.356C13.1682 264.356 9.73535 266.023 9.73535 268.079C9.73535 270.135 13.1682 271.802 17.4029 271.802Z" fill="#A6F17E"/>
<path d="M39.3106 292.387C43.5453 292.387 46.9782 290.72 46.9782 288.664C46.9782 286.608 43.5453 284.941 39.3106 284.941C35.076 284.941 31.6431 286.608 31.6431 288.664C31.6431 290.72 35.076 292.387 39.3106 292.387Z" fill="#A6F17E"/>
<path d="M54.6456 292.387C58.8803 292.387 62.3132 290.72 62.3132 288.664C62.3132 286.608 58.8803 284.941 54.6456 284.941C50.4109 284.941 46.978 286.608 46.978 288.664C46.978 290.72 50.4109 292.387 54.6456 292.387Z" fill="#A6F17E"/>
<path d="M71.6088 315.548L76.9805 315.548L79.5357 294.836L71.6079 294.837L71.6088 315.548Z" fill="#F7C4A7"/>
<path d="M70.2388 313.795L80.8174 313.795H80.8178C82.6057 313.795 84.3204 314.505 85.5847 315.769C86.8489 317.032 87.5592 318.746 87.5594 320.534V320.753L70.2391 320.753L70.2388 313.795Z" fill="#A6F17E"/>
<path d="M91.7636 315.548L97.1352 315.548L99.6905 294.836L91.7627 294.837L91.7636 315.548Z" fill="#F7C4A7"/>
<path d="M90.3936 313.795L100.972 313.795H100.973C102.761 313.795 104.475 314.505 105.739 315.769C107.004 317.032 107.714 318.746 107.714 320.534V320.753L90.3939 320.753L90.3936 313.795Z" fill="#A6F17E"/>
<path d="M55.3104 233.706C55.75 233.236 56.081 232.675 56.2802 232.062C56.4794 231.45 56.5419 230.801 56.4632 230.162C56.3845 229.523 56.1666 228.909 55.8249 228.364C55.4831 227.818 55.0258 227.354 54.4852 227.004L58.2174 211.803L50.5532 214.533L48.184 228.549C47.656 229.496 47.4939 230.604 47.7282 231.662C47.9626 232.721 48.5772 233.656 49.4556 234.292C50.3341 234.928 51.4152 235.219 52.4943 235.111C53.5733 235.003 54.5753 234.504 55.3104 233.706V233.706Z" fill="#F7C4A7"/>
<path d="M112.331 232.392C111.891 231.922 111.56 231.361 111.361 230.748C111.162 230.136 111.099 229.487 111.178 228.848C111.257 228.209 111.475 227.595 111.816 227.05C112.158 226.504 112.615 226.04 113.156 225.69L109.424 210.489L117.088 213.219L119.457 227.235C119.985 228.182 120.147 229.29 119.913 230.348C119.679 231.407 119.064 232.342 118.186 232.978C117.307 233.614 116.226 233.905 115.147 233.797C114.068 233.689 113.066 233.19 112.331 232.392V232.392Z" fill="#F7C4A7"/>
<path d="M62.3774 223.052L69.8229 310.24L80.7169 309.247L85.0769 241.862L88.958 268.544L89.7353 310.926L99.5936 310.269L105.068 264.675L103.725 220.518L66.2997 216.729L62.3774 223.052Z" fill="#A6F17E"/>
<path d="M82.8585 143.712C89.0981 143.712 94.1564 138.656 94.1564 132.418C94.1564 126.181 89.0981 121.124 82.8585 121.124C76.6188 121.124 71.5605 126.181 71.5605 132.418C71.5605 138.656 76.6188 143.712 82.8585 143.712Z" fill="#F7C4A7"/>
<path d="M79.2812 123.383C79.2812 123.383 84.5536 124.795 87.2839 125.36C90.0143 125.924 89.7318 124.324 89.7318 124.324C89.7318 124.324 93.3095 124.795 93.1212 124.418C92.9329 124.042 94.6276 122.066 92.6505 119.807C90.6733 117.548 91.2382 115.854 91.2382 115.854H89.5435L89.0728 115.195H86.4366C86.4366 115.195 83.522 112.64 78.3438 113.393C73.1656 114.146 67.0418 116.136 66.4769 119.242C66.4003 119.663 66.2994 120.131 66.1823 120.626C64.7663 126.601 67.7749 132.193 70.8953 137.483C71.6622 138.783 75.3717 141.618 75.2768 139.673C75.1819 137.728 71.9375 133.359 74.1971 133.077C76.4567 132.795 80.3169 127.054 79.2812 123.383Z" fill="#1F1D20"/>
<path d="M71.1023 147.57H90.9993L105.068 221.842C105.068 221.842 92.8026 222.89 85.7923 225.518C78.7819 228.146 67.1279 219.515 67.1279 219.515L71.1023 147.57Z" fill="#1F1D20"/>
<path d="M73.5862 155.958V147.57L71.3334 147.556L54.8735 158.018L58.4451 215.334C58.4451 215.334 62.6724 234.456 69.0841 234.258C75.4957 234.059 80.4396 165.892 73.5862 155.958Z" fill="#A6F17E"/>
<path d="M60.1608 159.601L54.8737 158.018C54.8737 158.018 50.9597 159.163 50.9597 163.105C50.9597 167.047 47.5874 223.052 47.5874 223.052L58.3004 223.998L60.599 195.516L60.1608 159.601Z" fill="#A6F17E"/>
<path d="M89.5163 153.031L88.4624 147.57L91.488 147.118L102.442 151.498C102.442 151.498 112.3 223.548 107.918 225.737C103.537 227.927 100.579 226.231 100.579 226.231C100.579 226.231 86.1674 173.091 88.7182 165.908L89.5163 153.031Z" fill="#A6F17E"/>
<path d="M94.7744 152.593L96.6438 151.78C96.6438 151.78 102.131 149.062 105.244 154.55C108.357 160.039 119.311 221.357 119.311 221.357L110.298 223.052L103.56 200.984L94.7744 152.593Z" fill="#A6F17E"/>
<path d="M167.372 321H0.438147C0.321943 321 0.210498 320.954 0.12833 320.872C0.0461614 320.79 0 320.678 0 320.562C0 320.446 0.0461614 320.334 0.12833 320.252C0.210498 320.17 0.321943 320.124 0.438147 320.124H167.372C167.488 320.124 167.6 320.17 167.682 320.252C167.764 320.334 167.81 320.446 167.81 320.562C167.81 320.678 167.764 320.79 167.682 320.872C167.6 320.954 167.488 321 167.372 321Z" fill="#F5F5F5"/>
<defs>
<filter id="filter0_d_48_561" x="86" y="0" width="468" height="329" filterUnits="userSpaceOnUse" color-interpolation-filters="sRGB">
<feFlood flood-opacity="0" result="BackgroundImageFix"/>
<feColorMatrix in="SourceAlpha" type="matrix" values="0 0 0 0 0 0 0 0 0 0 0 0 0 0 0 0 0 0 127 0" result="hardAlpha"/>
<feOffset dy="3"/>
<feGaussianBlur stdDeviation="1"/>
<feComposite in2="hardAlpha" operator="out"/>
<feColorMatrix type="matrix" values="0 0 0 0 0 0 0 0 0 0 0 0 0 0 0 0 0 0 0.22 0"/>
<feBlend mode="normal" in2="BackgroundImageFix" result="effect1_dropShadow_48_561"/>
<feBlend mode="normal" in="SourceGraphic" in2="effect1_dropShadow_48_561" result="shape"/>
</filter>
<filter id="filter1_i_48_561" x="111" y="16" width="422" height="287" filterUnits="userSpaceOnUse" color-interpolation-filters="sRGB">
<feFlood flood-opacity="0" result="BackgroundImageFix"/>
<feBlend mode="normal" in="SourceGraphic" in2="BackgroundImageFix" result="shape"/>
<feColorMatrix in="SourceAlpha" type="matrix" values="0 0 0 0 0 0 0 0 0 0 0 0 0 0 0 0 0 0 127 0" result="hardAlpha"/>
<feOffset dx="1" dy="1"/>
<feGaussianBlur stdDeviation="1"/>
<feComposite in2="hardAlpha" operator="arithmetic" k2="-1" k3="1"/>
<feColorMatrix type="matrix" values="0 0 0 0 0 0 0 0 0 0 0 0 0 0 0 0 0 0 0.25 0"/>
<feBlend mode="normal" in2="shape" result="effect1_innerShadow_48_561"/>
</filter>
</defs>
</svg>
