<svg width="411" height="259" viewBox="0 0 411 259" fill="none" xmlns="http://www.w3.org/2000/svg">
<g clip-path="url(#clip0_48_606)">
<path d="M299.893 63.075C299.893 87.9238 261.016 161.205 238.725 201.179C237.213 203.891 235.003 206.151 232.324 207.724C229.645 209.297 226.594 210.126 223.487 210.126C220.38 210.126 217.329 209.297 214.65 207.724C211.971 206.151 209.761 203.891 208.249 201.179C185.958 161.205 147.081 87.9238 147.081 63.075C147.081 28.2397 181.289 0 223.487 0C265.685 0 299.893 28.2397 299.893 63.075Z" fill="#A6F17E" fill-opacity="0.4"/>
<path d="M223.846 103.931C246.827 103.931 265.457 85.318 265.457 62.3583C265.457 39.3986 246.827 20.7861 223.846 20.7861C200.865 20.7861 182.235 39.3986 182.235 62.3583C182.235 85.318 200.865 103.931 223.846 103.931Z" fill="#A6F17E"/>
<path d="M50.2069 99.9735C63.9716 99.9735 75.1301 88.8253 75.1301 75.0734C75.1301 61.3215 63.9716 50.1733 50.2069 50.1733C36.4422 50.1733 25.2837 61.3215 25.2837 75.0734C25.2837 88.8253 36.4422 99.9735 50.2069 99.9735Z" fill="#A6F17E"/>
<path d="M223.487 259C256.807 259 283.817 256.917 283.817 254.347C283.817 251.777 256.807 249.694 223.487 249.694C190.168 249.694 163.157 251.777 163.157 254.347C163.157 256.917 190.168 259 223.487 259Z" fill="#A6F17E"/>
<path opacity="0.4" d="M45.1322 97.2167C46.4007 89.4072 41.0923 82.0491 33.2757 80.7818C25.459 79.5145 18.0941 84.818 16.8256 92.6274C15.5571 100.437 20.8654 107.795 28.6821 109.062C36.4988 110.33 43.8637 105.026 45.1322 97.2167Z" fill="#A6F17E"/>
<path d="M366.441 168.819C253.525 126.53 115.807 167.758 36.2948 252.092C35.8428 252.565 35.3908 253.046 34.9532 253.526H33.7407C34.1568 253.046 34.5873 252.565 35.0106 252.092C116.173 161.343 252.061 125.175 366.441 168.819Z" fill="#A6F17E"/>
<path d="M397.297 182.846C387.316 177.528 377.01 172.843 366.44 168.819C377.038 172.777 387.348 177.464 397.297 182.846V182.846Z" fill="#3F3D56"/>
<path opacity="0.4" d="M335.498 140.654C344.183 140.654 351.224 133.62 351.224 124.942C351.224 116.265 344.183 109.231 335.498 109.231C326.813 109.231 319.772 116.265 319.772 124.942C319.772 133.62 326.813 140.654 335.498 140.654Z" fill="#A6F17E"/>
<path d="M337.249 245.793C338.465 250.281 342.627 253.061 342.627 253.061C342.627 253.061 344.819 248.563 343.604 244.075C342.389 239.587 338.226 236.807 338.226 236.807C338.226 236.807 336.034 241.304 337.249 245.793Z" fill="#3F3D56"/>
<path d="M339.035 244.828C342.37 248.071 342.777 253.057 342.777 253.057C342.777 253.057 337.778 252.784 334.443 249.541C331.109 246.298 330.701 241.312 330.701 241.312C330.701 241.312 335.701 241.585 339.035 244.828Z" fill="#A6F17E"/>
<path d="M2.41078 183.387V190.311L2.06641 190.684V183.316C2.18119 183.337 2.29601 183.366 2.41078 183.387Z" fill="#3F3D56"/>
<path d="M24.4932 252.089C24.3928 252.254 24.2851 252.419 24.1775 252.584H2.06641V183.731L2.41078 183.387L5.34505 186.72V181.846H14.6716V197.314L24.0914 208.001L24.1775 208.101C24.2923 208.46 24.3999 208.818 24.5075 209.176C24.5083 209.182 24.5108 209.187 24.5147 209.191C25.9274 213.708 27.0867 218.3 27.9871 222.945C30.0389 233.905 29.7304 243.954 24.4932 252.089Z" fill="#CCCCCC"/>
<path d="M9.82988 221.446H3.89355V226.388H9.82988V221.446Z" fill="#342E37"/>
<path d="M9.82988 230.342H3.89355V235.284H9.82988V230.342Z" fill="#342E37"/>
<path d="M192.692 212.055L189.724 207.113L217.427 183.39C237.907 173.541 262.595 176.383 288.663 183.39V190.309L262.939 217.986L233.257 223.917L192.692 212.055Z" fill="#A6F17E"/>
<path d="M300.926 197.311C305.845 191.844 306.529 186.646 300.926 181.846H291.599V186.723L288.663 183.39L264.918 207.113L260.96 211.067L256.013 230.836L264.918 252.582H310.429V208.102L300.926 197.311Z" fill="#CCCCCC"/>
<path d="M189.724 207.113H264.918V252.582H189.724C180.627 242.749 185.353 224.827 189.724 207.113Z" fill="#F2F2F2"/>
<path d="M254.529 221.446H238.699V235.284H254.529V221.446Z" fill="#342E37"/>
<path d="M232.268 220.951H218.417V252.582H232.268V220.951Z" fill="#CCCCCC"/>
<path d="M202.586 225.894V220.952H196.65V225.894H202.091H202.586Z" fill="#342E37"/>
<path d="M202.091 229.848H196.65V234.79H202.586V229.848H202.091Z" fill="#342E37"/>
<path d="M212.48 220.951H206.544V225.894H212.48V220.951Z" fill="#342E37"/>
<path d="M212.48 229.848H206.544V234.79H212.48V229.848Z" fill="#342E37"/>
<path d="M286.19 226.389V221.446H280.253V226.389H285.695H286.19Z" fill="#342E37"/>
<path d="M285.695 230.342H280.253V235.284H286.19V230.342H285.695Z" fill="#342E37"/>
<path d="M296.083 221.446H290.147V226.388H296.083V221.446Z" fill="#342E37"/>
<path d="M296.083 230.342H290.147V235.284H296.083V230.342Z" fill="#342E37"/>
<path d="M58.8046 129.024L53.8579 125.07L81.5607 100.358H151.807V122.105L106.295 152.748L58.8046 129.024Z" fill="#A6F17E"/>
<path d="M164.614 114.22V100.852H155.288V104.126L151.807 100.358L129.051 125.07L120.147 131.001L106.34 231.78L127.162 252.582H175.552C182.967 215.319 188.846 177.04 175.552 126.058L164.614 114.22Z" fill="#CCCCCC"/>
<path d="M53.8577 125.07H129.051V252.582H53.8577C45.6294 203.045 41.6108 157.106 53.8577 125.07Z" fill="#F2F2F2"/>
<path d="M96.8959 221.446H83.0444V252.582H96.8959V221.446Z" fill="#CCCCCC"/>
<path d="M68.2036 230.342V225.4H62.2676V230.342H67.7093H68.2036Z" fill="#342E37"/>
<path d="M67.7093 234.296H62.2676V239.239H68.2036V234.296H67.7093Z" fill="#342E37"/>
<path d="M78.0975 225.4H72.1611V230.342H78.0975V225.4Z" fill="#342E37"/>
<path d="M108.274 234.296H102.833V239.239H108.769V234.296H108.274Z" fill="#342E37"/>
<path d="M118.662 225.4H112.726V230.342H118.662V225.4Z" fill="#342E37"/>
<path d="M118.662 234.296H112.726V239.238H118.662V234.296Z" fill="#342E37"/>
<path d="M150.323 131.495V126.553H144.387V131.495H149.828H150.323Z" fill="#342E37"/>
<path d="M149.828 135.449H144.387V140.391H150.323V135.449H149.828Z" fill="#342E37"/>
<path d="M160.217 126.553H154.28V131.495H160.217V126.553Z" fill="#342E37"/>
<path d="M160.217 135.449H154.28V140.391H160.217V135.449Z" fill="#342E37"/>
<path d="M150.323 159.173V154.23H144.387V159.173H149.828H150.323Z" fill="#342E37"/>
<path d="M149.828 163.126H144.387V168.069H150.323V163.126H149.828Z" fill="#342E37"/>
<path d="M160.217 154.23H154.28V159.172H160.217V154.23Z" fill="#342E37"/>
<path d="M160.217 163.126H154.28V168.068H160.217V163.126Z" fill="#342E37"/>
<path d="M150.323 186.85V181.907H144.387V186.85H149.828H150.323Z" fill="#342E37"/>
<path d="M149.828 190.803H144.387V195.746H150.323V190.803H149.828Z" fill="#342E37"/>
<path d="M160.217 181.907H154.28V186.849H160.217V181.907Z" fill="#342E37"/>
<path d="M160.217 190.803H154.28V195.746H160.217V190.803Z" fill="#342E37"/>
<path d="M150.323 214.527V209.584H144.387V214.527H149.828H150.323Z" fill="#342E37"/>
<path d="M149.828 218.48H144.387V223.423H150.323V218.48H149.828Z" fill="#342E37"/>
<path d="M160.217 209.584H154.28V214.526H160.217V209.584Z" fill="#342E37"/>
<path d="M160.217 218.48H154.28V223.423H160.217V218.48Z" fill="#342E37"/>
<path d="M62.2676 131.495H119.652V143.357C101.259 138.285 82.0777 138.649 62.2676 143.357V131.495Z" fill="#342E37"/>
<path d="M62.2676 155.218C80.1779 160.49 99.306 160.49 119.652 155.218V167.08H62.2676V155.218Z" fill="#342E37"/>
<path d="M62.2676 178.942H119.652V190.803C100.096 184.564 80.9472 184.27 62.2676 190.803V178.942Z" fill="#342E37"/>
<path d="M62.2676 202.665C80.9824 209.871 100.128 209.571 119.652 202.665V214.526H62.2676V202.665Z" fill="#342E37"/>
<path d="M370.68 182.057H411V201.467L407.398 202.593L395.417 206.329L376.621 201.979L357.846 197.632L347.931 195.337L342.98 193.507C347.098 187.862 354.588 183.422 370.68 182.057Z" fill="#A6F17E"/>
<path d="M411 193.507V252.584H342.98C342.959 252.547 342.944 252.514 342.923 252.477V252.474C342.907 252.433 342.888 252.393 342.866 252.354C341.804 250.219 340.852 248.09 340.01 245.965C332.872 227.99 333.647 210.49 342.98 193.507H411Z" fill="#F2F2F2"/>
<path d="M386.019 221.446H372.168V252.582H386.019V221.446Z" fill="#CCCCCC"/>
<path d="M357.327 230.342V225.4H351.391V230.342H356.833H357.327Z" fill="#342E37"/>
<path d="M356.833 234.296H351.391V239.239H357.327V234.296H356.833Z" fill="#342E37"/>
<path d="M367.221 225.4H361.285V230.342H367.221V225.4Z" fill="#342E37"/>
<path d="M367.221 234.296H361.285V239.238H367.221V234.296Z" fill="#342E37"/>
<path d="M397.892 230.342V225.4H391.956V230.342H397.397H397.892Z" fill="#342E37"/>
<path d="M397.397 234.296H391.956V239.239H397.892V234.296H397.397Z" fill="#342E37"/>
<path d="M407.786 225.4H401.85V230.342H407.786V225.4Z" fill="#342E37"/>
<path d="M407.786 234.296H401.85V239.238H407.786V234.296Z" fill="#342E37"/>
<path d="M357.848 159.121H366.375C374.785 159.121 382.851 162.459 388.798 168.401C394.745 174.342 398.086 182.4 398.086 190.803V190.803H357.848V159.121Z" fill="#A6F17E"/>
<path d="M99.5737 73.1097H108.101C116.511 73.1097 124.577 76.4476 130.524 82.3892C136.471 88.3307 139.812 96.3891 139.812 104.792V104.792H99.5737V73.1097Z" fill="#A6F17E"/>
<path d="M235.885 152.67H244.412C252.822 152.67 260.888 156.008 266.835 161.95C272.782 167.891 276.123 175.95 276.123 184.352V184.352H235.885V152.67Z" fill="#A6F17E"/>
<path d="M398.086 202.665H357.848V214.526H398.086V202.665Z" fill="#342E37"/>
<path d="M411 252.092H2.06641V253.526H411V252.092Z" fill="#A6F17E"/>
<path d="M39.782 195.465H38.3472V252.089H39.782V195.465Z" fill="#A6F17E"/>
<path d="M53.0239 202.681C53.1153 222.481 39.1719 238.597 39.1719 238.597C39.1719 238.597 21.3157 222.267 24.9892 202.81C28.6836 183.242 40.1979 166.977 38.8412 166.894C38.8412 166.894 52.9326 182.881 53.0239 202.681Z" fill="#A6F17E"/>
<path d="M183.267 195.465H181.833V252.089H183.267V195.465Z" fill="#A6F17E"/>
<path d="M196.51 202.681C197.803 222.439 182.658 238.597 182.658 238.597C182.658 238.597 168.566 222.61 168.475 202.81C168.384 183.01 182.327 166.894 182.327 166.894C180.968 172.322 195.463 186.694 196.51 202.681Z" fill="#A6F17E"/>
<path d="M90.0464 103.421L152.372 100.375L178.517 122.178L173.895 126.347L132.493 125.416L90.0464 103.421Z" fill="#A6F17E"/>
<path d="M27.8577 204.604L24.5002 207.635L24.0912 208.001L23.2375 208.775L2.06619 208.302V183.316C1.37746 183.165 0.68873 183.022 0 182.886L1.71466 182.8L2.06619 183.094L5.34484 185.824L14.6714 193.608L25.0884 202.296L27.8577 204.604Z" fill="#A6F17E"/>
<path d="M226.358 185.848L288.684 182.802L314.829 204.605L310.207 208.775L268.805 207.844L226.358 185.848Z" fill="#A6F17E"/>
</g>
<defs>
<clipPath id="clip0_48_606">
<rect width="411" height="259" fill="white"/>
</clipPath>
</defs>
</svg>
