<svg width="411" height="274" viewBox="0 0 411 274" fill="none" xmlns="http://www.w3.org/2000/svg">
<g clip-path="url(#clip0_48_687)">
<path d="M70.3584 261.717L76.5502 263.394L85.9666 240.304L76.8271 237.828L70.3584 261.717Z" fill="#F7C4A7"/>
<path d="M68.3901 268.119L87.4325 273.277L87.4977 273.036C88.0301 271.07 87.7598 268.973 86.7464 267.207C85.733 265.44 84.0594 264.148 82.0938 263.615L82.0933 263.615L79.3298 260.034L72.1251 260.915L70.4629 260.465L68.3901 268.119Z" fill="#A6F17E"/>
<path d="M113.114 267.091L119.529 267.091L122.581 242.341L113.113 242.342L113.114 267.091Z" fill="#F7C4A7"/>
<path d="M112.888 273.784L132.617 273.784V273.534C132.616 271.497 131.807 269.544 130.367 268.104C128.927 266.663 126.974 265.854 124.938 265.854H124.937L121.334 263.12L114.61 265.855L112.888 265.855L112.888 273.784Z" fill="#A6F17E"/>
<path d="M115.853 124.379L124.463 246.34L110.598 247.569L91.2553 157.181L93.3987 209.479L85.7217 250.611L73.9861 244.936L74.1811 202.106L58.7734 132.895L62.8743 124.379H115.853Z" fill="#A6F17E"/>
<path d="M60.7398 139.554L60.6538 139.433C56.0589 132.999 62.9696 117.538 64.0119 115.297C62.7742 114.895 61.714 114.077 61.0119 112.981C60.3097 111.886 60.0091 110.58 60.1611 109.288L60.6104 105.468L61.0788 101.721L57.7235 98.365L57.714 98.2813L55.7831 81.3832L52.9756 70.1596C51.9178 65.9167 52.0079 61.4687 53.2368 57.2722C54.4657 53.0756 56.7891 49.2817 59.9684 46.28L66.4579 45.2493L74.3447 37.6492H87.063L91.4239 41.8162C99.5646 43.2442 100.963 42.7779 107.956 51.1705L104.778 77.2631L103.986 80.8527L103.988 85.7213L106.003 87.9612C106.729 88.7681 107.257 89.7333 107.544 90.7801C107.831 91.8269 107.869 92.9262 107.656 93.9906L107.391 95.3158C109.47 96.2066 111.453 112.038 111.927 114.249L112.635 117.553C113.24 118.352 117.237 123.682 117.237 125.139C117.237 125.358 117.076 125.569 116.729 125.804C114.005 127.649 103.146 140.735 96.4826 138.068C89.385 135.23 61.1707 139.488 60.8865 139.531L60.7398 139.554Z" fill="#A6F17E"/>
<path d="M59.031 109.212C59.031 109.212 62.2971 90.751 59.0067 83.8081L45.9536 84.7406L47.9401 111.078L59.3509 140.32C59.1767 141.221 59.244 142.152 59.5459 143.018C59.8478 143.885 60.3736 144.656 61.0698 145.254C61.7661 145.851 62.608 146.254 63.5102 146.421C64.4124 146.588 65.3427 146.513 66.2066 146.204C67.0706 145.895 67.8374 145.363 68.4293 144.662C69.0212 143.961 69.417 143.116 69.5767 142.212C69.7363 141.308 69.6541 140.378 69.3383 139.517C69.0225 138.655 68.4844 137.893 67.7786 137.306L59.031 109.212Z" fill="#F7C4A7"/>
<path d="M45.9535 74.0169L46.7613 65.2182C47.0654 61.9067 48.0211 58.688 49.5734 55.7472C51.1257 52.8064 53.244 50.2016 55.8065 48.0826C57.3987 46.7757 59.3246 45.9403 61.3666 45.6707C63.4086 45.4011 65.4853 45.7081 67.362 46.557V46.557C69.8983 47.7248 71.8965 49.8123 72.9527 52.3973C74.0089 54.9824 74.0442 57.8721 73.0516 60.4822C70.0347 68.3957 71.1241 76.7643 65.2414 77.7846L65.8805 80.8257L60.0965 99.7044L43.6226 97.7958L45.9535 74.0169Z" fill="#A6F17E"/>
<path d="M110.65 134.25C110.073 134.963 109.694 135.816 109.553 136.723C109.413 137.63 109.514 138.558 109.848 139.413C110.181 140.267 110.735 141.019 111.453 141.59C112.171 142.162 113.027 142.533 113.935 142.667C114.842 142.801 115.769 142.692 116.621 142.351C117.473 142.011 118.22 141.451 118.786 140.728C119.351 140.006 119.716 139.146 119.842 138.237C119.968 137.329 119.852 136.402 119.504 135.553L124.965 104.642L121.753 78.4258L108.77 80.0695C106.904 87.5226 113.724 104.986 113.724 104.986L110.65 134.25Z" fill="#F7C4A7"/>
<path d="M126.597 90.771L110.816 95.8712L104.74 86.3914L104.771 83.2841C98.8026 83.4365 94.9363 67.1171 90.4275 59.9483C88.9427 57.5833 88.4112 54.7427 88.9405 52.0008C89.4697 49.2589 91.0203 46.8202 93.2785 45.178V45.178C94.9525 43.9778 96.9288 43.2697 98.9841 43.1339C101.039 42.9981 103.092 43.4399 104.909 44.4094V44.4094C107.837 45.9851 110.424 48.1243 112.523 50.7038C114.621 53.2833 116.189 56.2524 117.136 59.4401L119.652 67.91L126.597 90.771Z" fill="#A6F17E"/>
<path d="M79.8454 33.9777C87.6462 33.9777 93.97 27.653 93.97 19.8509C93.97 12.0489 87.6462 5.72412 79.8454 5.72412C72.0445 5.72412 65.7207 12.0489 65.7207 19.8509C65.7207 27.653 72.0445 33.9777 79.8454 33.9777Z" fill="#F7C4A7"/>
<path d="M69.5948 29.8082C69.4716 29.7 69.3552 29.5845 69.2347 29.4734C69.2304 29.4848 69.2297 29.4965 69.2251 29.5078L69.5948 29.8082Z" fill="#2F2E41"/>
<path d="M91.4207 4.93285C90.7189 3.80295 89.7469 2.8656 88.5923 2.2054C87.8031 1.82259 86.9739 1.52873 86.1198 1.32923L83.8844 0.719234C82.7391 0.364777 81.5608 0.127484 80.3675 0.0109986C78.7105 -0.0707551 77.0629 0.304479 75.6047 1.09571C74.1465 1.88694 72.9337 3.06374 72.0988 4.49757C71.4235 5.69563 70.8817 7.18857 69.5783 7.62689C68.5273 7.98034 67.3806 7.48178 66.276 7.5785C65.6288 7.67231 65.0146 7.92435 64.488 8.31229C63.9614 8.70024 63.5387 9.2121 63.2571 9.80253C62.7066 10.9907 62.4357 12.2892 62.4652 13.5984C62.4218 16.5707 63.0018 19.5191 64.1678 22.2534C65.3338 24.9878 67.0599 27.4473 69.2348 29.4733C69.5994 28.5123 68.999 27.4746 68.5243 26.5553C68.044 25.625 67.7472 24.3281 68.5516 23.6581C69.4467 22.9125 70.8807 23.6355 71.9393 23.1493C72.2779 22.9547 72.5631 22.6793 72.7694 22.3477C72.9757 22.016 73.0967 21.6384 73.1215 21.2486C73.224 20.4761 73.117 19.6909 73.1655 18.9132C73.2133 18.1468 73.4115 17.3972 73.7489 16.7074C74.0863 16.0175 74.5563 15.4009 75.1319 14.8927C75.7076 14.3845 76.3777 13.9947 77.104 13.7456C77.8303 13.4964 78.5985 13.3927 79.3649 13.4405C79.3825 13.4416 79.4001 13.4428 79.4178 13.444C81.8272 13.6162 84.1655 15.2629 86.4842 14.5854C87.5726 14.2674 88.5009 13.4578 89.6266 13.3216C90.8732 13.1708 92.046 13.8745 93.1045 14.5501C93.4892 12.9165 93.5382 11.2219 93.2488 9.56876C92.9594 7.91565 92.3375 6.33851 91.4207 4.93285V4.93285Z" fill="#1F1D20"/>
<path d="M165.229 265.848L161.635 260.071L160.917 263.372C160.791 263.95 160.665 264.537 160.549 265.12C159.528 264.248 158.442 263.442 157.379 262.668C154.116 260.299 150.854 257.927 147.594 255.553L148.615 261.474C149.244 265.12 149.901 268.841 151.458 272.175C151.631 272.552 151.817 272.925 152.018 273.289H167.187C167.309 272.951 167.394 272.601 167.439 272.245C167.443 272.221 167.444 272.198 167.444 272.175C167.682 269.913 166.432 267.782 165.229 265.848Z" fill="#A6F17E"/>
<path d="M182.88 273.857L35.8658 274C35.719 273.999 35.5786 273.94 35.4751 273.836C35.3716 273.732 35.3135 273.592 35.3135 273.445C35.3135 273.298 35.3716 273.157 35.4751 273.053C35.5786 272.949 35.719 272.89 35.8658 272.89L182.88 272.746C183.026 272.747 183.167 272.806 183.27 272.91C183.374 273.014 183.432 273.155 183.432 273.301C183.432 273.448 183.374 273.589 183.27 273.693C183.167 273.797 183.026 273.856 182.88 273.857V273.857Z" fill="#C2F5A6"/>
<path d="M334.841 90.1712C334.809 106.493 328.674 122.212 317.641 134.238C306.608 146.265 291.477 153.728 275.221 155.162C258.965 156.596 242.761 151.896 229.794 141.987C216.827 132.077 208.036 117.675 205.148 101.611C202.26 85.547 205.485 68.9838 214.188 55.1774C222.892 41.371 236.444 31.3203 252.182 27.0011C267.919 22.6819 284.702 24.4067 299.232 31.8364C313.763 39.2661 324.988 51.8632 330.703 67.1513C330.845 67.5352 330.984 67.9191 331.119 68.3067V68.3104C331.723 70.0142 332.254 71.7497 332.713 73.5169C334.131 78.9547 334.846 84.5517 334.841 90.1712V90.1712Z" fill="#1F1D20"/>
<path d="M261.839 45.768C258.882 44.1686 255.598 43.2658 252.239 43.1283C248.88 42.9909 245.534 43.6225 242.456 44.9749C239.746 46.1545 236.893 48.2705 235.989 52.0917C239.645 49.9335 244.378 53.3434 245.319 58.8136L245.1 58.8742C244.603 62.6631 245.712 66.7882 247.86 69.1376C248.019 68.0775 248.413 67.0663 249.012 66.1775C249.612 65.2886 250.401 64.5444 251.324 63.9989C252.902 62.9614 254.648 62.2077 255.852 60.4244C257.28 58.3102 257.643 55.2204 258.21 52.4017C258.777 49.583 259.853 46.5534 261.839 45.768Z" fill="#A6F17E"/>
<path d="M241.372 78.0104C240.359 79.5314 239.007 80.4858 237.793 81.674C236.392 82.9487 235.473 84.6674 235.19 86.5405C235.036 87.8641 235.274 89.2096 235.241 90.5478C235.208 91.8859 234.762 93.3924 233.852 93.7251C232.415 94.2442 231.319 91.5752 229.842 91.3887C228.668 91.2425 227.612 93.0889 227.952 94.6903C228.292 96.2918 229.889 97.0011 230.807 95.9554C231.637 97.3484 231.052 99.8749 229.805 100.303C229.673 101.18 229.542 102.054 229.414 102.932C226.263 100.727 223.079 98.4856 220.399 95.257C217.419 91.6968 215.57 87.3271 215.091 82.7088C214.744 78.9976 215.259 74.7527 213.555 71.8972C212.192 69.612 209.852 69.1074 207.746 69.25C207.363 69.2756 206.975 69.3195 206.591 69.367C207.833 65.6367 209.41 62.0267 211.303 58.581C211.732 58.3971 212.13 58.1493 212.484 57.8461C214.444 56.1825 215.314 52.8151 216.904 50.486C217.006 50.3361 217.112 50.1898 217.222 50.0473C218.849 47.9229 221.028 46.8297 223.133 45.8133C227.794 43.5501 232.591 41.2576 237.511 41.572L236.111 41.7073C234.477 46.285 232.842 50.8626 231.205 55.4403C230.956 56.1422 230.705 56.8455 230.452 57.5499C229.524 60.1532 228.566 62.9246 228.708 65.8387C228.792 67.5644 229.392 69.4072 230.532 69.9995C231.596 70.548 232.759 69.8752 233.786 69.2098C234.221 68.9319 234.652 68.654 235.087 68.3725C236.648 67.367 238.378 66.3359 240.026 67.0087C241.536 67.6229 242.651 69.6741 242.863 71.8861C243.058 74.0364 242.533 76.1904 241.372 78.0104Z" fill="#A6F17E"/>
<path d="M250.656 109.263C246.097 106.456 241.538 103.648 236.979 100.841L237.056 100.641C234.221 101.721 233.045 106.761 233.513 110.882C233.982 115.003 235.57 118.687 236.372 122.703C237.454 128.198 237.046 133.882 235.19 139.166C241.185 132.439 246.49 125.127 251.026 117.341C251.66 116.359 252.143 115.289 252.459 114.164C252.793 112.965 252.674 111.685 252.124 110.569C251.751 110.019 251.246 109.57 250.656 109.263Z" fill="#A6F17E"/>
<path d="M232.663 58.1867C232.127 59.3364 232.045 60.6456 232.432 61.8533C232.882 62.8264 233.698 63.5823 234.702 63.9564L237.221 65.2053C238.059 65.6207 238.962 66.0404 239.817 65.6985C240.847 65.2863 241.562 63.6706 241.377 62.1706C241.18 60.5745 240.174 59.4766 239.244 58.5416C237.942 57.2332 236.64 55.9248 235.338 54.6165L234.604 55.5153C233.811 56.2895 233.154 57.1928 232.663 58.1867V58.1867Z" fill="#A6F17E"/>
<path d="M321.337 75.2499C322.47 75.5168 323.604 75.7837 324.737 76.0506C324.539 79.8788 322.642 83.4217 320.098 84.705C319.038 85.2389 317.857 85.4363 316.979 86.4345C316.186 87.3412 315.784 88.7525 315.415 90.1017C314.768 92.4563 314.121 94.8109 313.473 97.1655C312.779 99.703 311.887 102.522 310.081 103.436C308.531 104.222 306.758 103.261 305.566 101.648C304.374 100.036 303.647 97.8676 302.941 95.7543C302.985 98.0577 301.914 100.317 300.397 101.118C298.876 101.919 297.026 101.195 296.01 99.4069C295.279 98.1235 294.976 96.4306 294.259 95.129C293.543 93.8274 292.04 93.0815 291.258 94.3027C290.742 95.1144 290.808 96.3575 290.552 97.3886C290.423 98.0731 290.084 98.7005 289.583 99.1834C289.081 99.6664 288.441 99.9809 287.752 100.083C287.118 100.069 286.495 99.9254 285.918 99.6621C285.342 99.3987 284.825 99.0207 284.4 98.5513C282.161 96.2609 280.704 93.3214 280.236 90.1528C279.919 88.6337 279.959 87.0616 280.353 85.5606C280.802 84.1383 281.888 83.0415 282.967 83.312C283.676 81.8128 282.276 79.8239 281.014 79.9994C279.75 80.1749 278.759 81.5313 277.721 82.5734C276.686 83.6154 275.238 84.3723 274.197 83.3375C274.22 83.716 274.092 84.0882 273.841 84.3723C273.59 84.6564 273.236 84.8291 272.858 84.8524C272.82 84.8547 272.783 84.8556 272.745 84.8549C272.052 84.656 271.409 84.3148 270.855 83.8531C268.468 82.365 265.437 83.3522 263.741 86.1675C264.801 81.6556 266.355 76.4784 269.612 75.418C270.943 74.983 272.394 75.3413 273.652 74.5881C275.878 73.2536 276.328 68.2115 274.405 66.1312C274.65 68.0982 274.602 70.3944 273.564 71.7399C272.526 73.0854 270.347 72.2079 270.479 70.2189C270.449 70.4986 270.332 70.7619 270.144 70.9708C269.955 71.1798 269.706 71.3238 269.431 71.3823C269.155 71.4407 268.869 71.4106 268.612 71.2962C268.355 71.1818 268.141 70.989 268 70.7454C267.309 69.6924 267.368 67.9703 267.858 66.7125C268.363 65.5734 269.087 64.5447 269.989 63.6852C271.725 61.8242 273.487 59.9412 275.498 58.7711C277.512 57.6011 279.837 57.2063 281.855 58.369C282.919 58.9832 283.855 60.007 284.941 60.5481C285.196 60.7064 285.48 60.813 285.776 60.8616C286.072 60.9102 286.375 60.9 286.668 60.8315C286.96 60.763 287.236 60.6376 287.48 60.4625C287.724 60.2873 287.931 60.0658 288.089 59.8106C288.101 59.791 288.113 59.7711 288.125 59.751C288.933 58.3323 288.553 56.2263 288.852 54.4531C289.39 51.3197 292.523 49.8535 294.259 51.9229C292.961 51.5902 291.62 53.1259 291.459 54.9869C291.294 56.848 292.234 58.7273 293.491 59.2904C295.605 60.2263 297.674 57.8717 299.271 55.6926C300.938 53.411 302.608 51.1308 304.279 48.8517C304.546 48.4637 304.846 48.0991 305.175 47.7621C305.699 47.2517 306.397 46.9594 307.128 46.9444C307.859 46.9295 308.568 47.1931 309.112 47.6817C310.801 49.0601 311.595 51.8864 312.98 53.8315C314.991 56.6578 317.999 57.3452 320.8 57.8936C322.887 58.2995 324.976 58.7078 327.066 59.1185C328.459 61.7106 329.674 64.3944 330.703 67.1514C326.871 68.8991 323.62 71.7098 321.337 75.2499Z" fill="#A6F17E"/>
<path d="M332.713 73.5168C332.285 74.7795 332.051 76.0998 332.019 77.4327C330.228 75.2462 329.942 71.1476 331.119 68.3103C331.723 70.0141 332.254 71.7496 332.713 73.5168Z" fill="#A6F17E"/>
<path d="M328.086 119.242C326.519 122.423 324.698 125.471 322.638 128.357C321.322 127.794 319.908 128.799 318.676 129.743C317.389 130.73 315.843 131.692 314.523 130.792C313.174 129.871 312.739 127.293 313.167 125.249C313.658 123.364 314.518 121.594 315.696 120.043C316.793 118.405 317.966 116.705 319.491 116.068C321.019 115.432 322.982 116.332 323.428 118.503L324.51 118.467C323.903 117.633 324.221 115.907 325.037 115.604C325.976 115.249 326.791 116.54 327.347 117.681C327.596 118.196 327.848 118.716 328.086 119.242Z" fill="#A6F17E"/>
<path d="M286.642 103.798C284.316 103.945 282.474 101.081 281.25 98.2635C280.025 95.4463 278.908 92.2245 276.81 90.7905C275.611 89.9711 274.243 89.8588 272.943 89.4617C272.205 89.2753 271.522 88.9158 270.951 88.4129C270.38 87.91 269.937 87.2783 269.659 86.57L268.183 85.9739C266.12 87.0057 264.23 88.3535 262.582 89.9687C260.699 91.9693 259.526 94.5339 259.244 97.2671C258.962 100.221 260.003 103.514 261.947 104.624C263.484 105.5 265.273 104.948 266.829 105.75C268.774 106.753 269.929 109.666 270.366 112.542C270.803 115.419 270.692 118.408 271.005 121.316C271.317 124.225 272.179 127.252 273.962 128.743C276.194 130.608 279.469 129.058 280.47 125.662C280.961 123.997 280.944 122.117 281.312 120.388C281.958 117.343 283.704 115.084 285.089 112.587C286.473 110.089 287.563 106.697 286.642 103.798Z" fill="#A6F17E"/>
<path d="M263.659 73.8786C263.876 74.0783 264.078 74.2932 264.265 74.5217C264.457 74.8543 264.556 75.2333 264.549 75.6177C264.543 76.0022 264.432 76.3776 264.227 76.7034C264.508 76.6875 264.781 76.6136 265.032 76.4864C265.282 76.3593 265.503 76.1816 265.681 75.9647C266.105 75.4811 266.479 74.955 266.795 74.3947C266.944 74.2028 267.05 73.9815 267.107 73.7453C267.163 73.5092 267.169 73.2637 267.124 73.0252C267.014 72.7116 266.754 72.5778 266.572 72.342C266.319 71.8808 266.147 71.3801 266.062 70.8612C265.961 70.3749 265.727 69.9264 265.385 69.566C265.043 69.2057 264.607 68.9479 264.127 68.8215L264.244 68.8438C264.045 68.9616 263.889 69.1385 263.796 69.3497C263.703 69.5609 263.678 69.7959 263.726 70.0217C263.796 70.478 264.089 70.8568 264.06 71.3221C264.018 71.9913 263.35 72.3053 263.308 72.9745C263.302 73.3102 263.428 73.635 263.659 73.8786V73.8786Z" fill="#A6F17E"/>
<path d="M259.674 62.5074L259.684 62.5054C259.756 62.4401 259.822 62.3695 259.883 62.2939L259.674 62.5074Z" fill="#A6F17E"/>
<path d="M260.371 65.6483C260.651 65.4031 260.857 65.0859 260.969 64.7313C261.08 64.3766 261.092 63.9982 261.003 63.6373C260.834 62.8765 260.236 62.3649 259.684 62.5054C259.524 62.6677 259.325 62.7866 259.107 62.8509C258.888 62.9153 258.657 62.923 258.435 62.8734C258.093 62.7856 257.719 62.5594 257.423 62.8164C257.254 63.0083 257.136 63.2396 257.079 63.4891C256.969 63.8252 256.86 64.1613 256.75 64.4973C256.698 64.6177 256.685 64.7511 256.712 64.8794C256.733 64.9309 256.766 64.976 256.81 65.0106C256.853 65.0451 256.905 65.0679 256.96 65.0768C257.617 65.2704 258.274 65.4641 258.93 65.6578C259.156 65.762 259.403 65.8152 259.652 65.8135C259.901 65.8119 260.146 65.7555 260.371 65.6483V65.6483Z" fill="#A6F17E"/>
<path d="M309.958 109.011C309.655 108.514 309.351 108.017 309.047 107.52C308.749 106.944 308.341 106.432 307.847 106.012C307.74 105.923 307.616 105.855 307.483 105.813C307.35 105.771 307.21 105.756 307.071 105.768C306.931 105.781 306.796 105.82 306.672 105.885C306.548 105.949 306.439 106.038 306.349 106.145L306.333 106.164L306.37 106.448C307.183 107.32 307.737 108.401 307.97 109.57C308.039 110.078 308.015 110.604 308.076 111.114C308.082 111.351 308.135 111.584 308.232 111.8C308.328 112.016 308.466 112.211 308.638 112.374C309.116 112.693 309.678 112.222 310.018 111.648C310.322 111.176 310.459 110.615 310.405 110.056C310.329 109.681 310.177 109.325 309.958 109.011V109.011Z" fill="#A6F17E"/>
<path d="M314.721 109.658C314.779 109.193 314.741 108.72 314.61 108.27C314.588 107.661 314.75 107.059 315.074 106.543C315.395 106.055 315.639 105.521 315.796 104.959C315.862 104.702 315.85 104.432 315.762 104.183C315.661 103.957 315.418 103.854 315.278 104.033L315.577 104.225C315.173 104.153 314.759 104.173 314.364 104.284C314.139 104.37 313.938 104.509 313.778 104.69C313.618 104.87 313.504 105.086 313.445 105.32C313.396 105.685 313.315 106.045 313.204 106.395C313.026 106.762 312.681 106.884 312.464 107.205C312.316 107.49 312.242 107.808 312.247 108.129C312.252 108.45 312.337 108.765 312.494 109.045C312.767 109.503 313.2 109.844 313.709 110C314.074 110.131 314.554 110.138 314.721 109.658Z" fill="#A6F17E"/>
<path d="M323.203 112.218C323.335 112.561 323.512 112.886 323.729 113.183C324.135 113.592 324.687 113.34 325.18 113.241C325.627 113.17 326.084 113.222 326.504 113.39C326.925 113.559 327.291 113.838 327.565 114.198C327.374 113.245 326.957 112.352 326.35 111.593C325.742 110.835 324.961 110.234 324.073 109.84C322.918 109.44 321.702 109.25 320.481 109.278L320.272 109.331C320.804 110.879 322.473 110.844 323.203 112.218Z" fill="#A6F17E"/>
<path d="M287.278 115.383L287.281 115.39L287.342 115.273L287.278 115.383Z" fill="#A6F17E"/>
<path d="M285.992 117.874C285.711 118.384 285.47 118.914 285.27 119.46C285.005 120.345 284.83 121.254 284.747 122.174C284.681 122.697 284.661 123.365 284.989 123.62C285.083 123.682 285.196 123.709 285.308 123.693C285.42 123.678 285.523 123.623 285.597 123.537C285.779 123.345 285.928 123.123 286.037 122.882C286.681 121.773 287.181 120.586 287.525 119.351C287.884 118.04 287.798 116.647 287.282 115.39C286.852 116.218 286.422 117.046 285.992 117.874Z" fill="#A6F17E"/>
<path d="M273.578 51.5072C273.782 51.707 274.041 51.8426 274.321 51.8974C274.602 51.9522 274.892 51.9236 275.157 51.8154C275.704 51.5758 276.207 51.2439 276.642 50.834C277.003 50.5673 277.308 50.2337 277.543 49.8514C277.672 49.623 277.755 49.3713 277.786 49.1108C277.818 48.8503 277.798 48.5862 277.727 48.3335C277.626 48.0914 277.466 47.8789 277.26 47.7163C277.054 47.5536 276.811 47.4461 276.552 47.4038C275.823 47.1876 275.094 46.9713 274.365 46.7551L274.892 46.2797C274.349 45.9885 273.749 46.529 273.41 47.1982C273.193 47.6352 273.041 48.102 272.96 48.5834C272.845 49.0864 272.84 49.6085 272.947 50.1133C273.054 50.6182 273.269 51.0939 273.578 51.5072V51.5072Z" fill="#A6F17E"/>
<path d="M286.45 47.1855C286.655 47.412 286.939 47.5519 287.244 47.5767C287.549 47.6015 287.852 47.5094 288.091 47.319C288.297 47.1642 288.468 46.9678 288.594 46.7424C288.719 46.5171 288.795 46.2679 288.817 46.0111C288.869 45.4376 288.585 44.8001 288.18 44.7505L288.273 44.2135C287.493 44.0726 286.533 44.0444 286.115 44.9919C285.974 45.3549 285.931 45.7485 285.989 46.1334C286.048 46.5184 286.207 46.8811 286.45 47.1855V47.1855Z" fill="#A6F17E"/>
<g opacity="0.35">
<path opacity="0.35" d="M409.873 93.4134C414.179 91.536 405.447 90.443 395.541 90.0837C385.635 89.7243 373.652 89.7442 367.321 88.7221C361.199 87.7336 361.65 85.9759 361.135 84.3834C360.62 82.7909 358.266 81.1581 348.713 80.804C336.808 80.3629 317.176 82.0609 308.189 81.0415C299.803 80.0902 304.788 77.1062 292.559 76.992C285.576 76.9267 276.58 77.9105 268.81 78.148C263.302 78.3869 257.784 78.0992 252.331 77.2887C248.544 76.6681 245.906 75.8813 241.644 75.3332C230.453 73.894 208.559 74.3778 189.018 76.2222C169.477 78.0666 152.727 81.0894 143.28 84.0832C133.834 87.077 131.224 90.0247 133.424 92.5243C134.829 94.1204 138.425 95.6129 147.147 96.2543C163.462 97.454 192.508 95.389 209.366 96.4805C218.762 97.0888 222.93 98.597 231.174 99.4223C240.03 100.309 252.996 100.356 265.734 100.335C292.257 100.291 319.458 100.019 347.195 99.5187C358.78 99.31 370.919 99.0385 383.247 98.0436C395.575 97.0487 408.149 95.1292 410.75 93.3296" fill="#F5F5F5"/>
</g>
<path d="M335.022 176.338C329.002 176.338 322.405 176.111 315.229 175.656C278.115 173.298 230.04 165.103 179.861 152.58C129.683 140.057 83.3944 124.701 49.5238 109.342C33.0245 101.86 20.3613 94.7782 11.8865 88.2921C2.91391 81.4256 -1.01085 75.4403 0.220838 70.5033C2.62072 60.885 23.8707 58.7807 41.2746 58.7092L41.2805 60.108C17.3803 60.2061 3.2804 64.0183 1.57797 70.842C-0.590637 79.533 17.0956 93.1013 50.1014 108.068C83.8974 123.393 130.101 138.719 180.2 151.223C230.299 163.726 278.285 171.907 315.318 174.26C351.484 176.557 373.471 172.89 375.639 164.199C377.44 156.983 365.571 146.353 342.219 134.266L342.862 133.024C359.829 141.806 379.525 154.402 376.996 164.538C375.765 169.475 369.488 172.914 358.342 174.759C351.988 175.811 344.184 176.338 335.022 176.338Z" fill="#A6F17E"/>
<path d="M105.355 178.159C88.7597 178.16 73.3313 177.59 59.5193 176.441C41.4657 174.939 27.1595 172.523 16.9987 169.262C6.24079 165.81 0.533478 161.491 0.0351997 156.427C-0.935856 146.562 18.372 137.439 34.7402 131.523L35.2155 132.839C12.7377 140.963 0.738134 149.291 1.42692 156.291C2.3042 165.205 23.5202 172.041 59.6352 175.047C96.6151 178.124 145.281 177.034 196.668 171.974C248.055 166.916 296 158.497 331.67 148.267C366.506 138.278 385.982 127.435 385.105 118.521C384.377 111.12 369.627 105.096 343.572 101.559L343.76 100.173C362.692 102.743 385.474 107.989 386.497 118.384C386.995 123.448 382.239 128.796 372.361 134.28C363.03 139.46 349.47 144.618 332.056 149.612C296.306 159.864 248.274 168.3 196.805 173.367C164.518 176.545 133.29 178.159 105.355 178.159Z" fill="#A6F17E"/>
<path d="M204.117 207.704C208.618 207.704 212.267 204.054 212.267 199.552C212.267 195.05 208.618 191.401 204.117 191.401C199.615 191.401 195.966 195.05 195.966 199.552C195.966 204.054 199.615 207.704 204.117 207.704Z" fill="#A6F17E"/>
<path d="M43.6224 159.577C48.1237 159.577 51.7727 155.928 51.7727 151.426C51.7727 146.924 48.1237 143.274 43.6224 143.274C39.1212 143.274 35.4722 146.924 35.4722 151.426C35.4722 155.928 39.1212 159.577 43.6224 159.577Z" fill="#E6E6E6"/>
<path d="M193.266 34.6306C196.022 34.6306 198.255 32.3965 198.255 29.6406C198.255 26.8847 196.022 24.6506 193.266 24.6506C190.511 24.6506 188.277 26.8847 188.277 29.6406C188.277 32.3965 190.511 34.6306 193.266 34.6306Z" fill="#A6F17E"/>
<path d="M163.079 72.2994C167.581 72.2994 171.23 68.6498 171.23 64.1479C171.23 59.6459 167.581 55.9963 163.079 55.9963C158.578 55.9963 154.929 59.6459 154.929 64.1479C154.929 68.6498 158.578 72.2994 163.079 72.2994Z" fill="#E6E6E6"/>
<path d="M252.568 20.6837C253.611 23.7106 251.875 34.2967 250.794 40.1175C250.721 40.5125 250.542 40.882 250.277 41.188C250.011 41.4939 249.668 41.7251 249.283 41.8578C248.899 41.9904 248.486 42.0196 248.088 41.9423C247.691 41.865 247.322 41.6841 247.021 41.4182C242.583 37.5001 234.692 30.2325 233.649 27.2055C232.186 22.962 235.235 18.062 240.46 16.261C245.684 14.4601 251.105 16.4402 252.568 20.6837Z" fill="#A6F17E"/>
<path d="M211.896 108.81C214.612 108.673 222.841 112.589 227.335 114.846C227.64 114.999 227.9 115.232 228.087 115.521C228.274 115.81 228.381 116.144 228.399 116.489C228.416 116.835 228.342 117.178 228.186 117.484C228.029 117.791 227.794 118.049 227.506 118.232C223.261 120.928 215.467 125.652 212.751 125.788C208.943 125.98 205.664 122.335 205.428 117.647C205.192 112.958 208.087 109.002 211.896 108.81Z" fill="#A6F17E"/>
<path d="M333.118 51.6906C330.96 53.3461 321.963 54.7966 316.982 55.4922C316.644 55.5394 316.299 55.4949 315.981 55.3632C315.663 55.2315 315.384 55.0175 315.173 54.7432C314.963 54.4689 314.829 54.1444 314.784 53.8031C314.739 53.4618 314.786 53.1162 314.919 52.8021C316.881 48.1714 320.613 39.8576 322.771 38.2022C325.796 35.8814 330.565 37.0195 333.423 40.7442C336.28 44.4689 336.144 49.3698 333.118 51.6906Z" fill="#A6F17E"/>
<path d="M245.614 30.1912C248.38 29.2378 249.763 25.9735 248.704 22.9003C247.644 19.8271 244.543 18.1087 241.778 19.0622C239.012 20.0156 237.628 23.2799 238.688 26.3531C239.747 29.4263 242.848 31.1447 245.614 30.1912Z" fill="#342E37"/>
<path d="M217.413 117.043C217.288 114.561 214.951 112.661 212.193 112.8C209.435 112.939 207.3 115.064 207.425 117.546C207.55 120.028 209.888 121.928 212.646 121.789C215.403 121.65 217.538 119.525 217.413 117.043Z" fill="#342E37"/>
<path d="M323.901 48.0479C325.414 50.0198 328.416 50.2558 330.607 48.5751C332.798 46.8943 333.348 43.9333 331.836 41.9613C330.323 39.9894 327.321 39.7534 325.129 41.4341C322.938 43.1149 322.389 46.0759 323.901 48.0479Z" fill="#342E37"/>
</g>
<defs>
<clipPath id="clip0_48_687">
<rect width="411" height="274" fill="white"/>
</clipPath>
</defs>
</svg>
