<svg width="334" height="249" viewBox="0 0 334 249" fill="none" xmlns="http://www.w3.org/2000/svg">
<g clip-path="url(#clip0_48_480)">
<path d="M92.5503 87.4934V87.4923C92.562 87.3983 92.61 87.3126 92.6839 87.2534C92.7579 87.1943 92.8521 87.1664 92.9463 87.1757L152.541 87.3345C152.635 87.3258 152.729 87.3541 152.802 87.4134C152.876 87.4728 152.923 87.5584 152.934 87.6522V87.6533C152.923 87.7473 152.875 87.8331 152.801 87.8922C152.727 87.9514 152.633 87.9793 152.538 87.97L92.9436 87.8111C92.8496 87.8199 92.7559 87.7916 92.6824 87.7322C92.6089 87.6729 92.5615 87.5872 92.5503 87.4934V87.4934Z" fill="#F5F5F5"/>
<path d="M170.179 95.7568C171.671 100.446 170.374 105.818 166.435 109.363C161.096 114.169 152.924 113.796 148.183 108.529C144.304 104.219 143.924 97.9679 146.84 93.205C148.871 89.6539 148.457 87.8811 145.976 85.8666C145.509 85.5053 145.067 85.0969 144.657 84.6422C140.942 80.5141 141.322 74.1139 145.507 70.3469C149.533 66.7232 155.613 66.8563 159.377 70.5463C161.946 72.9984 163.222 73.1732 166.208 71.7497C169.928 69.8548 174.564 70.5738 177.454 73.7844C180.914 77.6278 180.559 83.5865 176.663 87.0938C175.56 88.0862 174.292 88.776 172.962 89.1678C170.13 90.0965 169.073 91.8934 170.179 95.7568Z" fill="#E8E8E8"/>
<path d="M168.341 94.9373C169.654 98.9626 168.591 103.55 165.256 106.551C160.736 110.62 153.753 110.233 149.661 105.686C146.312 101.965 145.936 96.6122 148.387 92.5601C150.092 89.5378 149.724 88.0172 147.588 86.2725C147.186 85.9594 146.805 85.6062 146.451 85.2137C143.244 81.65 143.516 76.1757 147.059 72.9865C150.467 69.9185 155.661 70.0828 158.907 73.272C161.121 75.3918 162.212 75.552 164.75 74.3585C167.912 72.7676 171.878 73.4213 174.373 76.193C177.359 79.511 177.106 84.6077 173.807 87.577C172.874 88.4172 171.796 88.997 170.664 89.3214C168.252 90.0927 167.364 91.6218 168.341 94.9373Z" fill="#342E37"/>
<path d="M320.035 216.143C320.403 205.153 315.376 194.232 305.597 190.487C307.927 201.719 305.949 214.355 300.124 225.448C297.856 229.769 294.911 234.399 295.72 238.806C296.223 241.549 298.171 243.673 300.509 245.021C302.847 246.368 305.571 247.038 308.262 247.694L308.738 248.163C314.742 238.132 319.667 227.134 320.035 216.143Z" fill="#96C0ED"/>
<path d="M305.462 190.693C310.364 197.546 312.865 206.333 312.323 215.37C312.244 217.371 311.863 219.348 311.194 221.235C310.456 223.128 309.283 224.82 307.771 226.176C306.373 227.48 304.813 228.671 303.712 230.251C303.168 231.022 302.785 231.894 302.586 232.817C302.387 233.739 302.376 234.692 302.553 235.619C302.964 237.815 304.168 239.62 305.414 241.335C306.797 243.239 308.267 245.191 308.59 247.69C308.629 247.992 309.11 247.847 309.071 247.545C308.508 243.197 304.742 240.669 303.372 236.739C302.733 234.905 302.676 232.787 303.842 230.882C304.862 229.217 306.47 227.987 307.895 226.677C309.39 225.369 310.587 223.756 311.406 221.946C312.165 220.088 312.62 218.119 312.752 216.115C313.106 211.792 312.754 207.441 311.712 203.231C310.593 198.597 308.599 194.219 305.838 190.333C305.668 190.096 305.294 190.458 305.462 190.693L305.462 190.693Z" fill="white"/>
<path d="M312.654 212.42C314.23 212.056 315.653 211.209 316.725 209.998C317.797 208.787 318.466 207.272 318.637 205.663C318.661 205.35 318.177 205.366 318.152 205.679C317.995 207.177 317.373 208.588 316.373 209.714C315.372 210.84 314.044 211.623 312.576 211.955C312.545 211.96 312.515 211.97 312.489 211.987C312.462 212.003 312.439 212.025 312.421 212.05C312.402 212.075 312.389 212.104 312.382 212.134C312.375 212.165 312.374 212.196 312.379 212.227C312.384 212.258 312.396 212.288 312.412 212.314C312.429 212.34 312.451 212.363 312.477 212.381C312.502 212.399 312.531 212.412 312.562 212.418C312.592 212.425 312.624 212.426 312.654 212.42V212.42Z" fill="white"/>
<path d="M308.555 225.597C307.342 224.755 306.321 223.665 305.559 222.399C304.797 221.134 304.312 219.721 304.135 218.254C304.094 217.952 303.614 218.097 303.654 218.399C303.841 219.925 304.349 221.394 305.145 222.709C305.941 224.024 307.006 225.155 308.271 226.028C308.512 226.193 308.796 225.761 308.555 225.597V225.597Z" fill="white"/>
<path d="M310.04 198.975C309.495 199.232 308.894 199.344 308.293 199.303C307.692 199.262 307.111 199.067 306.606 198.738C306.367 198.57 306.084 199.003 306.322 199.17C306.881 199.53 307.522 199.744 308.186 199.792C308.849 199.839 309.514 199.718 310.119 199.44C310.182 199.42 310.236 199.378 310.273 199.323C310.309 199.267 310.326 199.201 310.32 199.135C310.315 199.105 310.303 199.076 310.285 199.051C310.267 199.026 310.244 199.005 310.217 198.99C310.191 198.975 310.161 198.965 310.13 198.963C310.1 198.96 310.069 198.964 310.04 198.975V198.975Z" fill="white"/>
<path d="M271.023 209.541C271.169 209.651 271.314 209.761 271.46 209.874C273.407 211.357 275.212 213.019 276.851 214.838C276.98 214.976 277.108 215.119 277.233 215.261C281.157 219.748 284.096 225.009 285.86 230.704C286.583 233.027 287.116 235.404 287.453 237.813C287.925 241.172 288.162 244.89 289.705 247.658C289.862 247.948 290.039 248.226 290.235 248.491L308.043 248.794C308.086 248.774 308.13 248.758 308.173 248.738L308.879 248.783C308.871 248.655 308.859 248.523 308.85 248.395C308.846 248.321 308.837 248.247 308.832 248.172C308.828 248.123 308.823 248.073 308.822 248.028C308.821 248.011 308.819 247.995 308.817 247.982C308.816 247.937 308.81 247.896 308.809 247.854C308.745 247.116 308.677 246.377 308.601 245.637C308.602 245.633 308.602 245.633 308.599 245.629C308.017 240.001 306.948 234.439 305.038 229.336C304.98 229.183 304.923 229.025 304.858 228.871C303.991 226.594 302.917 224.401 301.65 222.321C300.958 221.195 300.201 220.11 299.384 219.071C297.268 216.396 294.687 214.127 291.764 212.371C285.91 208.85 278.721 207.417 271.569 209.386C271.386 209.436 271.207 209.487 271.023 209.541Z" fill="#96C0ED"/>
<path d="M271.027 209.771C279.526 211.681 287.081 216.43 292.099 223.207C293.237 224.666 294.108 226.315 294.669 228.078C295.169 229.914 295.163 231.851 294.652 233.683C294.21 235.463 293.556 237.261 293.544 239.057C293.534 239.937 293.731 240.806 294.121 241.594C294.511 242.382 295.081 243.066 295.786 243.592C297.485 244.909 299.647 245.465 301.79 245.931C304.171 246.449 306.656 246.948 308.462 248.534C308.681 248.727 309.017 248.331 308.799 248.139C305.657 245.379 300.792 245.864 297.191 243.892C295.511 242.972 294.172 241.496 294.043 239.429C293.931 237.621 294.603 235.766 295.066 233.966C295.589 232.175 295.666 230.284 295.29 228.457C294.827 226.662 294.027 224.972 292.932 223.478C290.553 220.119 287.587 217.219 284.175 214.918C280.227 212.23 275.803 210.319 271.14 209.286C270.846 209.22 270.735 209.705 271.027 209.771V209.771Z" fill="white"/>
<path d="M290.598 220.901C292.989 218.48 293.486 214.86 291.773 212.444C291.604 212.206 291.185 212.512 291.354 212.75C292.959 215.014 292.481 218.354 290.245 220.617C290.01 220.855 290.364 221.138 290.598 220.901V220.901Z" fill="white"/>
<path d="M294.992 232.794C293.496 232.958 291.983 232.816 290.544 232.378C289.105 231.939 287.77 231.212 286.62 230.241C286.4 230.05 286.064 230.446 286.283 230.637C287.482 231.645 288.873 232.398 290.372 232.852C291.871 233.305 293.447 233.449 295.003 233.274C295.317 233.245 295.304 232.764 294.992 232.794L294.992 232.794Z" fill="white"/>
<path d="M280.109 212.897C279.753 213.431 279.284 213.88 278.734 214.211C278.185 214.543 277.57 214.749 276.932 214.816C276.618 214.841 276.631 215.322 276.943 215.296C277.647 215.22 278.327 214.992 278.935 214.626C279.542 214.261 280.063 213.768 280.462 213.182C280.505 213.135 280.528 213.073 280.526 213.01C280.525 212.947 280.499 212.886 280.454 212.842C280.4 212.805 280.335 212.791 280.27 212.801C280.206 212.811 280.149 212.846 280.109 212.897V212.897Z" fill="white"/>
<path d="M265.727 203.662C265.764 203.62 265.48 203.584 264.954 203.554V185.885H239.46V187.307H227.984C226.638 187.309 225.348 187.845 224.397 188.796C223.445 189.748 222.91 191.039 222.908 192.385V199.693C222.909 201.04 223.444 202.331 224.396 203.283C225.348 204.235 226.638 204.77 227.984 204.771L239.746 204.787L244.91 204.795H245.266L250.434 204.802L264.869 204.822H266.113C266.295 204.617 265.553 203.867 265.727 203.662Z" fill="#1F1D20"/>
<path d="M266.001 203.99C265.158 205.221 264.475 205.175 263.877 204.379C263.562 203.922 263.309 203.425 263.123 202.902C261.307 198.241 260.118 187.549 256.692 191.288C256.016 192.026 255.329 192.758 254.639 193.483C253.358 194.831 252.019 196.295 250.693 197.588C250.692 197.592 250.723 197.448 250.718 197.451C250.064 198.092 250.557 192.554 250.298 190.996C250.243 190.659 250.153 190.509 250.01 190.643C249.999 190.492 249.992 190.341 249.993 190.188C249.992 189.947 250.004 189.706 250.03 189.467C250.051 189.247 250.081 189.025 250.123 188.8L261.324 128.876C261.619 127.306 262.407 125.871 263.572 124.78C264.738 123.689 266.221 122.998 267.806 122.807C268.557 122.724 269.316 122.751 270.059 122.887L272.098 123.268C272.903 123.419 273.677 123.702 274.39 124.106L274.393 124.107C275.755 124.875 276.843 126.05 277.505 127.468C278.166 128.885 278.369 130.473 278.083 132.011L266.001 203.99Z" fill="#1F1D20"/>
<path d="M170.35 238.125L165.091 235.609L172.315 213.617L180.076 217.331L170.35 238.125Z" fill="#F7C4A7"/>
<path d="M205.606 234.579C205.224 234.819 204.841 235.055 204.455 235.291C203.686 235.762 202.91 236.226 202.134 236.682C201.743 236.91 201.349 237.138 200.959 237.362V237.373L200.936 237.377L200.928 237.381L200.334 237.528L199.48 235.271L199.086 234.232L198.53 232.759L197.51 230.066L192.141 215.883L200.488 213.823L200.801 215.102H200.805L200.959 215.736L203.876 227.569L204.471 229.988L204.49 230.062L204.849 231.507L205.158 232.759L205.502 234.158L205.606 234.579Z" fill="#F7C4A7"/>
<path d="M255.401 184.772C254.872 185.622 254.331 186.469 253.787 187.307C252.774 188.869 251.735 190.407 250.669 191.922C250.669 191.926 250.665 191.926 250.662 191.929C250.04 192.506 249.353 193.008 248.614 193.425C248.583 193.448 248.549 193.464 248.518 193.483C247.974 193.784 247.395 194.016 246.795 194.175C246.579 194.229 246.358 194.283 246.142 194.337C245.362 194.523 244.589 194.681 243.821 194.82C242.453 195.064 241.101 195.237 239.757 195.346C239.649 195.357 239.541 195.365 239.433 195.373C233.905 195.779 228.524 195.125 222.908 194.055C220.134 193.529 217.303 192.899 214.371 192.246C213.413 192.03 212.451 191.817 211.478 191.605C211.404 191.589 211.327 191.57 211.25 191.555C209.859 191.249 208.446 190.948 206.997 190.65C205.174 190.275 203.293 189.912 201.338 189.568L201.477 192.324C201.593 194.443 202.033 196.533 202.783 198.518C203.617 200.961 204.278 202.893 202.883 206.916L202.211 208.864C202.56 209.831 202.679 210.866 202.56 211.887C202.442 212.908 202.088 213.888 201.527 214.75L201.392 214.954L206.997 229.141L207.36 230.061H204.49L200.96 230.065H194.976L186.343 212.736L185.93 211.909V211.867L186.822 178.566C186.834 178.272 186.857 177.974 186.895 177.681C187.053 176.346 187.474 175.055 188.136 173.885C188.797 172.714 189.684 171.687 190.747 170.864C191.764 170.068 192.93 169.482 194.176 169.141C195.422 168.8 196.724 168.711 198.005 168.877L200.96 169.26L206.997 170.041L211.25 170.593L211.335 170.605L223.877 172.228L224.777 168.557L224.943 168.495L230.224 166.559L248.487 159.861L248.533 159.846L249.735 159.405L249.877 159.637C249.92 159.707 249.962 159.776 250.001 159.846C251.188 161.975 252.155 164.221 252.887 166.547C254.116 170.347 255.129 174.214 255.919 178.129C255.954 178.299 255.984 178.454 256.011 178.593L256.023 178.635C256.035 178.701 256.042 178.744 256.046 178.755C256.467 180.51 256.174 182.651 255.401 184.772Z" fill="#96C0ED"/>
<path d="M256.172 172.5C256.114 172.253 256.041 172.001 255.964 171.758C255.35 169.914 254.636 168.105 253.824 166.34C252.912 164.33 251.819 162.178 250.517 159.847C249.887 158.719 249.21 157.545 248.485 156.327C248.122 155.716 247.745 155.094 247.354 154.46C247.338 154.431 247.321 154.403 247.303 154.375L247.191 154.19L229.121 156.609L222.392 157.509L221.991 160.864L221.894 161.695C221.89 161.695 221.89 161.695 221.894 161.698L221.624 163.963V163.967L221.265 166.958L221.234 166.954L211.248 165.66L200.958 164.326L195.431 163.611C194.15 163.444 192.848 163.534 191.602 163.875C190.356 164.216 189.19 164.802 188.172 165.598C187.11 166.422 186.223 167.449 185.562 168.619C184.901 169.789 184.479 171.08 184.321 172.415C184.287 172.685 184.263 172.964 184.252 173.238L179.037 185.601C175.917 192.994 173.929 200.817 173.142 208.804L169.318 221.035L169.863 221.085L177.967 221.839L180.107 222.04L184.82 215.157C185.356 214.372 185.866 213.565 186.341 212.738C187.124 211.387 187.819 209.988 188.423 208.548L198.617 184.279C199.405 184.414 200.186 184.543 200.958 184.665C204.531 185.245 207.961 185.718 211.248 186.084C221.937 187.278 231.192 187.371 239.431 186.358C241.745 186.076 243.981 185.705 246.141 185.245C246.933 185.079 247.714 184.9 248.485 184.708C248.667 184.665 248.845 184.623 249.022 184.577C250.619 184.165 252.086 183.359 253.291 182.233C254.495 181.107 255.398 179.696 255.917 178.131C256.537 176.316 256.625 174.363 256.172 172.5Z" fill="#96C0ED"/>
<path d="M206.997 229.141L207.36 230.061H206.997V229.141Z" fill="#2F2E41"/>
<path d="M139.013 162.257C139.013 160.186 138.318 158.505 137.464 158.501H73.1534C72.2959 158.505 71.6044 160.186 71.6006 162.257V247.526C71.6006 247.718 71.5291 247.904 71.3999 248.046C71.2708 248.189 71.0932 248.278 70.9019 248.297C70.2773 248.357 69.6526 248.412 69.028 248.464C69.0125 248.464 68.9971 248.468 68.9816 248.468C68.6417 248.499 68.3018 248.522 67.9619 248.549H67.958C67.7832 248.226 67.6103 247.899 67.4395 247.57C67.3818 247.459 67.3516 247.336 67.3516 247.211V157.384C67.3516 156.812 67.3747 156.236 67.4134 155.668C67.4685 154.888 67.5652 154.112 67.7031 153.342C68.3559 149.752 69.8314 147.321 71.5079 147.313H139.106C139.351 147.315 139.592 147.366 139.817 147.464C140.146 147.61 140.444 147.818 140.693 148.078C141.032 148.431 141.322 148.827 141.555 149.257C142.382 150.714 142.973 152.886 143.181 155.413C143.181 155.436 143.185 155.46 143.185 155.483C143.239 156.109 143.266 156.746 143.262 157.384L143.316 165.666L143.351 170.605L143.455 186.102L143.494 191.605L143.664 248.105C143.664 248.31 143.583 248.506 143.438 248.651C143.293 248.796 143.096 248.878 142.891 248.878H139.786C139.581 248.878 139.384 248.796 139.239 248.651C139.095 248.506 139.013 248.31 139.013 248.105L139.013 162.257Z" fill="#1F1D20"/>
<path d="M93.1706 124.338L88.6971 144.03L85.8387 147.163H83.7764L92.2759 111.359L92.6962 117.442V117.446L93.1706 124.338Z" fill="#F5F5F5"/>
<path d="M114.699 144.463L88.4556 144.296L86.1264 144.281L84.4654 144.269L82.5302 144.258H82.5147C82.234 144.258 81.9648 144.369 81.7654 144.567L78.4975 147.836C78.4251 147.908 78.3662 147.991 78.3237 148.084C78.3033 148.11 78.2864 148.138 78.2734 148.169C78.2027 148.333 78.1735 148.512 78.1883 148.691C78.2032 148.869 78.2616 149.041 78.3586 149.191C78.4555 149.342 78.5879 149.466 78.7442 149.553C78.9004 149.64 79.0757 149.688 79.2546 149.691H113.251C113.455 149.69 113.654 149.632 113.827 149.523C113.999 149.413 114.137 149.257 114.224 149.073L114.491 148.493L115.039 147.315L115.661 145.985C115.727 145.844 115.762 145.689 115.761 145.533C115.76 145.251 115.648 144.981 115.449 144.78C115.25 144.58 114.981 144.466 114.699 144.463V144.463Z" fill="#F5F5F5"/>
<path opacity="0.17" d="M114.491 148.492L114.222 149.074C114.135 149.258 113.998 149.414 113.826 149.523C113.654 149.632 113.455 149.691 113.252 149.692H79.2542C79.0754 149.689 78.9002 149.641 78.7439 149.554C78.5877 149.467 78.4554 149.343 78.3585 149.192C78.2617 149.042 78.2034 148.87 78.1887 148.692C78.1741 148.513 78.2035 148.334 78.2745 148.17C78.2865 148.139 78.3031 148.111 78.3238 148.085L114.491 148.492Z" fill="#F5F5F5"/>
<path opacity="0.17" d="M92.6962 117.442V117.446L85.418 147.163H83.7764L92.2759 111.359L92.6962 117.442Z" fill="#F5F5F5"/>
<path d="M101.628 122.887L91.3256 44.4709C91.2878 44.177 91.135 43.9101 90.9007 43.7289L83.8087 34.8482L83.1713 34.3574C82.9352 34.1786 82.6384 34.0995 82.3447 34.1371L81.2786 34.2801C80.9846 34.318 80.7176 34.4712 80.5365 34.7061C80.3554 34.9409 80.275 35.2381 80.3129 35.5322L90.9895 116.781V116.785L91.6423 121.754L92.4187 127.656V127.663L93.6239 136.845C93.6431 137.003 93.6962 137.154 93.7796 137.289C93.8629 137.424 93.9746 137.539 94.1068 137.626C94.2366 137.716 94.3841 137.776 94.5393 137.804C94.6945 137.832 94.8538 137.827 95.0068 137.788L95.6827 137.618C95.9417 137.552 96.1688 137.396 96.324 137.178L96.6253 136.749L96.7643 136.548L101.431 123.679C101.594 123.449 101.665 123.166 101.628 122.887Z" fill="#F5F5F5"/>
<path opacity="0.17" d="M83.8071 34.8485L96.7657 136.55L96.6249 136.749L96.3246 137.176C96.1697 137.395 95.9424 137.551 95.6832 137.617L95.0063 137.788C94.8531 137.826 94.6935 137.831 94.5381 137.803C94.3827 137.775 94.235 137.715 94.1045 137.626C93.974 137.537 93.8637 137.421 93.7809 137.287C93.6981 137.152 93.6445 137.002 93.6237 136.845L80.3147 35.5334C80.2761 35.2392 80.3559 34.9417 80.5365 34.7064C80.7171 34.471 80.9837 34.3171 81.2777 34.2783L82.3466 34.1377C82.4916 34.1181 82.6391 34.1276 82.7804 34.1656C82.9217 34.2036 83.0541 34.2694 83.1697 34.359L83.8071 34.8485Z" fill="#F5F5F5"/>
<path d="M84.189 37.7571L91.0658 47.5773L99.2394 109.797L94.808 118.592L84.189 37.7571Z" fill="#96C0ED"/>
<path d="M231.981 248.23L227.265 248.319L240.372 202.764L245.089 204.221L231.981 248.23Z" fill="#1F1D20"/>
<path d="M262.911 248.317L258.198 248.228L245.266 204.795L245.088 204.223L248.112 203.287C248.711 203.299 249.333 203.307 249.974 203.314L250.434 204.802L262.911 248.317Z" fill="#1F1D20"/>
<path d="M168.83 102.39C169.113 102.941 169.513 103.423 170.002 103.803C170.491 104.182 171.057 104.45 171.661 104.587C172.265 104.724 172.891 104.727 173.496 104.595C174.101 104.464 174.67 104.201 175.162 103.826L187.699 112.152L187.723 104.329L175.814 97.6217C175.129 96.8357 174.18 96.3283 173.146 96.1957C172.113 96.0631 171.066 96.3145 170.205 96.9022C169.344 97.49 168.729 98.3732 168.475 99.3847C168.222 100.396 168.348 101.465 168.83 102.39V102.39Z" fill="#A0616A"/>
<path d="M178.196 106.006L184.045 99.3485L207.861 113.494L239.432 110.601C240.992 110.458 242.565 110.661 244.039 111.194C245.512 111.728 246.85 112.58 247.958 113.689C249.065 114.798 249.915 116.137 250.447 117.612C250.979 119.087 251.18 120.661 251.036 122.222C250.772 125.041 249.401 127.641 247.223 129.45C245.046 131.259 242.24 132.13 239.421 131.872L203.865 128.58L178.196 106.006Z" fill="#96C0ED"/>
<path d="M251.471 106.109L251.416 106.04L236.495 104.567L231 120.5C223.5 132 226.5 137.5 224.421 141.331L221.413 155.208L222.087 159.852L222.424 161.232L256.762 179.182L249.704 155.659L256.595 134.207C258.123 129.464 258.455 124.417 257.561 119.514C256.667 114.612 254.575 110.006 251.471 106.109Z" fill="#96C0ED"/>
<path d="M255.981 163.2C255.981 163.88 255.775 164.544 255.39 165.104C255.005 165.664 254.46 166.095 253.825 166.338C253.524 166.454 253.208 166.524 252.887 166.547C252.802 166.555 252.713 166.559 252.628 166.559H246.142V198.039C246.046 198.167 245.945 198.294 245.845 198.422C245.289 199.133 244.725 199.844 244.153 200.543C244.029 200.698 243.906 200.849 243.786 201C243.597 201.228 243.411 201.456 243.226 201.68C243.16 201.757 243.099 201.83 243.037 201.908C242.72 202.286 242.403 202.665 242.079 203.044V203.048C242.075 203.052 242.075 203.052 242.075 203.055L241.913 203.241C241.654 203.546 241.395 203.855 241.129 204.161C240.766 203.96 240.447 203.691 240.186 203.368C240.024 203.175 239.887 202.962 239.777 202.735C239.773 202.731 239.773 202.727 239.769 202.719C239.764 202.711 239.76 202.701 239.757 202.692C239.54 202.24 239.43 201.744 239.433 201.243V166.559H224.893C224.464 166.561 224.039 166.478 223.642 166.315C223.141 166.115 222.696 165.797 222.345 165.388C221.994 164.979 221.747 164.491 221.626 163.965V163.962C221.444 163.198 221.54 162.396 221.896 161.697C221.892 161.693 221.892 161.693 221.896 161.693C222.046 161.388 222.246 161.11 222.487 160.87V160.866C222.487 160.862 222.487 160.862 222.491 160.858C222.804 160.538 223.178 160.284 223.59 160.11C224.003 159.936 224.446 159.846 224.893 159.846H252.628C253.517 159.846 254.37 160.2 254.998 160.829C255.627 161.458 255.98 162.311 255.981 163.2V163.2Z" fill="#1F1D20"/>
<path d="M274.449 98.2261C273.092 97.9722 271.698 97.9882 270.347 98.2732C268.997 98.5582 267.715 99.1065 266.576 99.887C265.437 100.667 264.463 101.665 263.709 102.822C262.956 103.979 262.437 105.273 262.183 106.631V106.631C261.735 109.029 262.135 111.509 263.313 113.645C264.491 115.781 266.374 117.441 268.641 118.341L265.481 135.249L272.076 136.483L279.066 99.0899L274.449 98.2261Z" fill="#1F1D20"/>
<path d="M224.168 210.325H213.153C212.548 210.325 211.962 210.106 211.505 209.708C211.048 209.311 210.749 208.761 210.664 208.161C209.984 203.154 209.984 198.078 210.664 193.071C210.748 192.478 211.041 191.935 211.489 191.538C211.938 191.142 212.513 190.918 213.111 190.908C216.577 189.353 220.309 189.354 224.206 190.907C224.569 190.912 224.926 190.996 225.253 191.154C225.58 191.312 225.869 191.539 226.098 191.821C226.338 192.113 226.509 192.455 226.6 192.822C226.691 193.189 226.699 193.572 226.623 193.942C225.739 198.348 225.739 202.885 226.623 207.29C226.699 207.661 226.691 208.043 226.6 208.41C226.509 208.777 226.338 209.12 226.098 209.412C225.865 209.698 225.57 209.929 225.236 210.087C224.902 210.245 224.537 210.326 224.168 210.325V210.325Z" fill="#96C0ED"/>
<path d="M223.015 196.661H213.744C213.59 196.661 213.443 196.6 213.334 196.491C213.226 196.382 213.165 196.235 213.165 196.081C213.165 195.927 213.226 195.78 213.334 195.671C213.443 195.562 213.59 195.501 213.744 195.501H223.015C223.168 195.501 223.316 195.562 223.424 195.671C223.533 195.78 223.594 195.927 223.594 196.081C223.594 196.235 223.533 196.382 223.424 196.491C223.316 196.6 223.168 196.661 223.015 196.661Z" fill="white"/>
<path d="M223.015 201.298H213.744C213.59 201.298 213.443 201.237 213.334 201.128C213.226 201.02 213.165 200.872 213.165 200.718C213.165 200.565 213.226 200.417 213.334 200.309C213.443 200.2 213.59 200.139 213.744 200.139H223.015C223.168 200.139 223.316 200.2 223.424 200.309C223.533 200.417 223.594 200.565 223.594 200.718C223.594 200.872 223.533 201.02 223.424 201.128C223.316 201.237 223.168 201.298 223.015 201.298Z" fill="white"/>
<path d="M223.015 205.936H213.744C213.59 205.936 213.443 205.875 213.334 205.766C213.226 205.657 213.165 205.51 213.165 205.356C213.165 205.202 213.226 205.055 213.334 204.946C213.443 204.837 213.59 204.776 213.744 204.776H223.015C223.168 204.776 223.316 204.837 223.424 204.946C223.533 205.055 223.594 205.202 223.594 205.356C223.594 205.51 223.533 205.657 223.424 205.766C223.316 205.875 223.168 205.936 223.015 205.936Z" fill="white"/>
<path d="M108.31 124.215L105.779 126.999C105.662 127.098 105.519 127.161 105.367 127.18C105.215 127.2 105.06 127.176 104.921 127.11C104.502 126.962 104.128 126.706 103.838 126.368C102.03 124.314 99.9999 122.467 97.7849 120.861C97.4211 120.605 97.1309 120.257 96.9431 119.853C96.867 119.723 96.8284 119.575 96.8317 119.424C96.8351 119.273 96.8802 119.127 96.9621 119C96.9873 117.477 97.8451 116.533 99.512 116.194C99.8042 115.89 100.464 116.006 101.056 116.467C103.491 118.367 105.778 120.448 107.9 122.692C108.421 123.244 108.597 123.898 108.31 124.215Z" fill="#96C0ED"/>
<path d="M101.806 118.221L99.6758 120.565C99.6023 120.645 99.425 120.604 99.2798 120.472C99.1346 120.34 99.0765 120.167 99.15 120.086L101.28 117.743C101.353 117.662 101.531 117.703 101.676 117.835C101.821 117.967 101.879 118.14 101.806 118.221Z" fill="white"/>
<path d="M103.909 120.134L101.779 122.478C101.706 122.559 101.529 122.517 101.383 122.385C101.238 122.253 101.18 122.08 101.254 121.999L103.383 119.656C103.457 119.575 103.634 119.616 103.779 119.748C103.925 119.88 103.983 120.053 103.909 120.134Z" fill="white"/>
<path d="M106.012 122.047L103.882 124.391C103.809 124.472 103.632 124.43 103.486 124.298C103.341 124.166 103.283 123.993 103.357 123.912L105.486 121.569C105.56 121.488 105.737 121.529 105.882 121.661C106.028 121.794 106.086 121.966 106.012 122.047Z" fill="white"/>
<path d="M334 248.54C334 248.601 333.988 248.66 333.965 248.716C333.942 248.772 333.909 248.823 333.866 248.866C333.823 248.908 333.772 248.942 333.716 248.965C333.661 248.988 333.601 249 333.54 249H0.459668C0.337756 249 0.220837 248.952 0.134633 248.865C0.0484284 248.779 0 248.662 0 248.54C0 248.418 0.0484284 248.301 0.134633 248.215C0.220837 248.129 0.337756 248.08 0.459668 248.08H333.54C333.601 248.08 333.661 248.092 333.716 248.115C333.772 248.138 333.823 248.172 333.866 248.214C333.909 248.257 333.942 248.308 333.965 248.364C333.988 248.42 334 248.48 334 248.54V248.54Z" fill="#CCCCCC"/>
<path d="M227.395 196.239C227.928 195.924 228.386 195.496 228.735 194.985C229.085 194.474 229.319 193.892 229.419 193.281C229.52 192.67 229.486 192.044 229.319 191.448C229.152 190.852 228.856 190.299 228.452 189.83L236.016 176.815L228.209 177.255L222.223 189.547C221.48 190.277 221.03 191.255 220.959 192.296C220.888 193.336 221.201 194.366 221.838 195.191C222.476 196.016 223.393 196.578 224.418 196.771C225.442 196.964 226.501 196.775 227.395 196.239V196.239Z" fill="#F7C4A7"/>
<path d="M230.448 186.671L223.458 181.224L236.159 156.6L231.4 125.241C231.165 123.691 231.273 122.108 231.718 120.605C232.163 119.102 232.934 117.715 233.975 116.543C235.016 115.371 236.302 114.443 237.741 113.824C239.181 113.205 240.74 112.911 242.306 112.963V112.963C245.135 113.059 247.81 114.274 249.744 116.342C251.679 118.409 252.714 121.159 252.624 123.99L251.448 159.695L230.448 186.671Z" fill="#96C0ED"/>
<path d="M167.768 80.0596H151.531C151.461 80.0598 151.392 80.0462 151.328 80.0197C151.263 79.9931 151.205 79.9541 151.156 79.9049C151.106 79.8557 151.067 79.7972 151.04 79.7329C151.014 79.6685 151 79.5995 151 79.5298C151 79.4601 151.014 79.3911 151.04 79.3267C151.067 79.2623 151.106 79.2039 151.156 79.1547C151.205 79.1055 151.263 79.0665 151.328 79.0399C151.392 79.0134 151.461 78.9998 151.531 79H167.768C167.837 78.9998 167.906 79.0134 167.971 79.0399C168.035 79.0665 168.094 79.1055 168.143 79.1547C168.192 79.2039 168.231 79.2623 168.258 79.3267C168.285 79.3911 168.299 79.4601 168.299 79.5298C168.299 79.5995 168.285 79.6685 168.258 79.7329C168.231 79.7972 168.192 79.8557 168.143 79.9049C168.094 79.9541 168.035 79.9931 167.971 80.0197C167.906 80.0462 167.837 80.0598 167.768 80.0596V80.0596Z" fill="#96C0ED"/>
<path d="M167.768 82.1529H151.531C151.391 82.1529 151.256 82.0971 151.157 81.9977C151.057 81.8983 151.001 81.7636 151.001 81.6231C151.001 81.4826 151.057 81.3478 151.157 81.2484C151.256 81.1491 151.391 81.0933 151.531 81.0933H167.768C167.837 81.0933 167.906 81.107 167.97 81.1336C168.035 81.1602 168.093 81.1992 168.142 81.2484C168.191 81.2976 168.23 81.356 168.257 81.4203C168.284 81.4846 168.297 81.5535 168.297 81.6231C168.297 81.6926 168.284 81.7615 168.257 81.8258C168.23 81.8901 168.191 81.9485 168.142 81.9977C168.093 82.0469 168.035 82.0859 167.97 82.1125C167.906 82.1392 167.837 82.1529 167.768 82.1529V82.1529Z" fill="#96C0ED"/>
<path d="M158.569 84.2466H151.531C151.391 84.2466 151.256 84.1908 151.157 84.0915C151.057 83.9921 151.001 83.8573 151.001 83.7168C151.001 83.5763 151.057 83.4415 151.157 83.3422C151.256 83.2428 151.391 83.187 151.531 83.187H158.569C158.71 83.187 158.844 83.2428 158.944 83.3422C159.043 83.4415 159.099 83.5763 159.099 83.7168C159.099 83.8573 159.043 83.9921 158.944 84.0915C158.844 84.1908 158.71 84.2466 158.569 84.2466V84.2466Z" fill="#96C0ED"/>
<path d="M167.768 88.6309H151.531C151.461 88.631 151.392 88.6175 151.328 88.5909C151.263 88.5644 151.205 88.5254 151.156 88.4762C151.106 88.427 151.067 88.3685 151.04 88.3041C151.014 88.2398 151 88.1708 151 88.1011C151 88.0314 151.014 87.9624 151.04 87.898C151.067 87.8336 151.106 87.7752 151.156 87.726C151.205 87.6767 151.263 87.6377 151.328 87.6112C151.392 87.5847 151.461 87.5711 151.531 87.5713H167.768C167.837 87.5711 167.906 87.5847 167.971 87.6112C168.035 87.6377 168.094 87.6767 168.143 87.726C168.192 87.7752 168.231 87.8336 168.258 87.898C168.285 87.9624 168.299 88.0314 168.299 88.1011C168.299 88.1708 168.285 88.2398 168.258 88.3041C168.231 88.3685 168.192 88.427 168.143 88.4762C168.094 88.5254 168.035 88.5644 167.971 88.5909C167.906 88.6175 167.837 88.631 167.768 88.6309Z" fill="#E4E4E4"/>
<path d="M167.768 90.7241H151.531C151.461 90.7243 151.392 90.7108 151.328 90.6842C151.263 90.6577 151.205 90.6187 151.156 90.5695C151.106 90.5203 151.067 90.4618 151.04 90.3974C151.014 90.333 151 90.264 151 90.1943C151 90.1247 151.014 90.0556 151.04 89.9913C151.067 89.9269 151.106 89.8684 151.156 89.8192C151.205 89.77 151.263 89.731 151.328 89.7045C151.392 89.6779 151.461 89.6644 151.531 89.6646H167.768C167.837 89.6644 167.906 89.6779 167.971 89.7045C168.035 89.731 168.094 89.77 168.143 89.8192C168.192 89.8684 168.232 89.9269 168.258 89.9913C168.285 90.0556 168.299 90.1247 168.299 90.1943C168.299 90.264 168.285 90.333 168.258 90.3974C168.232 90.4618 168.192 90.5203 168.143 90.5695C168.094 90.6187 168.035 90.6577 167.971 90.6842C167.906 90.7108 167.837 90.7243 167.768 90.7241V90.7241Z" fill="#E4E4E4"/>
<path d="M158.569 92.8174H151.531C151.391 92.8174 151.256 92.7616 151.157 92.6623C151.057 92.5629 151.001 92.4281 151.001 92.2876C151.001 92.1471 151.057 92.0123 151.157 91.913C151.256 91.8136 151.391 91.7578 151.531 91.7578H158.569C158.71 91.7578 158.844 91.8136 158.944 91.913C159.043 92.0123 159.099 92.1471 159.099 92.2876C159.099 92.4281 159.043 92.5629 158.944 92.6623C158.844 92.7616 158.71 92.8174 158.569 92.8174Z" fill="#E4E4E4"/>
<path d="M167.768 97.2021H151.531C151.391 97.2021 151.256 97.1463 151.157 97.047C151.057 96.9476 151.001 96.8129 151.001 96.6724C151.001 96.5319 151.057 96.3971 151.157 96.2977C151.256 96.1984 151.391 96.1426 151.531 96.1426H167.768C167.908 96.1426 168.043 96.1984 168.142 96.2977C168.241 96.3971 168.297 96.5319 168.297 96.6724C168.297 96.8129 168.241 96.9476 168.142 97.047C168.043 97.1463 167.908 97.2021 167.768 97.2021V97.2021Z" fill="#E4E4E4"/>
<path d="M167.768 99.2954H151.531C151.391 99.2954 151.256 99.2396 151.157 99.1403C151.057 99.0409 151.001 98.9062 151.001 98.7656C151.001 98.6251 151.057 98.4904 151.157 98.391C151.256 98.2917 151.391 98.2358 151.531 98.2358H167.768C167.908 98.2358 168.043 98.2917 168.142 98.391C168.242 98.4904 168.297 98.6251 168.297 98.7656C168.297 98.9062 168.242 99.0409 168.142 99.1403C168.043 99.2396 167.908 99.2954 167.768 99.2954V99.2954Z" fill="#E4E4E4"/>
<path d="M158.569 101.389H151.531C151.391 101.389 151.256 101.333 151.157 101.234C151.057 101.134 151.001 100.999 151.001 100.859C151.001 100.718 151.057 100.584 151.157 100.484C151.256 100.385 151.391 100.329 151.531 100.329H158.569C158.71 100.329 158.844 100.385 158.944 100.484C159.043 100.584 159.099 100.718 159.099 100.859C159.099 100.999 159.043 101.134 158.944 101.234C158.844 101.333 158.71 101.389 158.569 101.389Z" fill="#E4E4E4"/>
<path d="M89.5176 67.4207L152.834 13.2384H152.934V14.0337H153.127L90.0348 68.0251L89.5176 67.4207Z" fill="#F5F5F5"/>
<path d="M133.233 129.645H104.12C103.665 129.645 103.229 129.826 102.907 130.148C102.586 130.47 102.405 130.906 102.404 131.361V149.495C102.405 149.95 102.586 150.386 102.907 150.708C103.229 151.03 103.665 151.211 104.12 151.211H133.233C133.687 151.211 134.124 151.03 134.445 150.708C134.767 150.386 134.948 149.95 134.948 149.495V131.361C134.948 130.906 134.767 130.47 134.445 130.148C134.124 129.826 133.687 129.645 133.233 129.645V129.645Z" fill="white"/>
<path d="M133.233 129.645H104.12C103.665 129.645 103.229 129.826 102.907 130.148C102.586 130.47 102.405 130.906 102.404 131.361V149.495C102.405 149.95 102.586 150.386 102.907 150.708C103.229 151.03 103.665 151.211 104.12 151.211H133.233C133.687 151.211 134.124 151.03 134.445 150.708C134.767 150.386 134.948 149.95 134.948 149.495V131.361C134.948 130.906 134.767 130.47 134.445 130.148C134.124 129.826 133.687 129.645 133.233 129.645ZM133.796 142.671C133.789 144.517 133.059 146.287 131.762 147.6C130.466 148.914 128.707 149.668 126.862 149.699C123.908 149.737 128.496 149.752 124.934 149.752C116.787 149.752 108.292 149.674 105.122 149.624C104.705 149.615 104.308 149.444 104.016 149.146C103.723 148.849 103.558 148.449 103.557 148.031V131.362C103.557 131.213 103.616 131.07 103.722 130.964C103.827 130.858 103.97 130.798 104.12 130.798H133.231C133.381 130.798 133.524 130.857 133.63 130.963C133.735 131.068 133.795 131.212 133.796 131.361V142.671Z" fill="#96C0ED"/>
<path d="M129.392 141.218H107.211C107.015 141.218 106.823 141.157 106.663 141.044C106.503 140.931 106.381 140.771 106.315 140.586L102.889 130.971C102.838 130.827 102.822 130.673 102.843 130.523C102.863 130.372 102.92 130.228 103.007 130.103C103.095 129.979 103.211 129.877 103.347 129.807C103.482 129.736 103.632 129.7 103.784 129.699L133.532 129.646H133.533C133.691 129.646 133.846 129.686 133.985 129.76C134.123 129.835 134.241 129.943 134.328 130.074C134.414 130.206 134.467 130.357 134.481 130.514C134.495 130.671 134.47 130.828 134.408 130.973L134.356 130.951L134.408 130.973L130.266 140.641C130.193 140.813 130.071 140.959 129.916 141.061C129.76 141.164 129.578 141.219 129.392 141.218V141.218Z" fill="#96C0ED"/>
<path d="M118.659 143.59C119.968 143.59 121.029 142.528 121.029 141.218C121.029 139.909 119.968 138.847 118.659 138.847C117.35 138.847 116.289 139.909 116.289 141.218C116.289 142.528 117.35 143.59 118.659 143.59Z" fill="#342E37"/>
<path d="M54.9019 236.669C54.4384 240.086 52.1169 243.17 49.131 245.183C48.4195 245.664 47.6688 246.084 46.8867 246.439C46.0268 246.827 45.1399 247.153 44.233 247.413C40.2544 248.576 35.9551 248.626 31.7718 248.65C27.5421 248.677 23.3137 248.704 19.0865 248.731C15.753 248.75 12.3113 248.75 9.23268 247.471C9.18664 247.454 9.14151 247.435 9.09748 247.413C6.07295 246.107 3.4965 243.235 3.56989 239.95C3.59939 238.793 3.92667 237.663 4.52012 236.669C4.91295 236.002 5.38506 235.384 5.92616 234.83C7.60259 233.091 9.92796 231.727 12.1066 230.629C15.6989 228.824 19.7587 226.482 20.8093 222.773C20.9202 222.382 20.9952 221.982 21.0334 221.578C21.2806 219.028 20.0406 216.682 18.4608 214.584C18.3063 214.375 18.144 214.166 17.9779 213.957C17.6226 213.513 17.2556 213.076 16.8925 212.659C16.738 212.481 16.5835 212.3 16.4251 212.118C14.965 210.425 13.4933 208.617 12.7246 206.595C12.3937 205.749 12.2095 204.853 12.1799 203.944C12.095 200.663 15.7607 197.359 18.5342 198.909C19.8938 198.777 21.2535 198.642 22.6132 198.503C24.2819 198.337 25.9429 198.171 27.6078 198.001H27.6116C27.9863 197.97 28.3533 197.931 28.7202 197.892C32.1851 197.549 35.6474 197.202 39.1071 196.853C40.6445 196.702 42.4523 196.644 43.4527 197.827C44.542 199.118 43.9781 201.158 42.9004 202.46C41.8227 203.759 40.3278 204.679 39.3157 206.024C38.0063 207.763 37.7011 209.962 38.0758 212.118C38.1843 212.744 38.3472 213.36 38.5625 213.957C38.9407 215.025 39.4645 216.036 40.1192 216.96C42.3905 220.145 45.7549 222.34 48.7408 224.863C51.7306 227.391 54.5272 230.598 54.9367 234.486C54.9483 234.598 54.9598 234.714 54.9637 234.83C55.0071 235.444 54.9864 236.06 54.9019 236.669V236.669Z" fill="#96C0ED"/>
<path d="M30.6097 201.283C27.5957 198.304 25.0283 194.905 22.9875 191.19C20.9529 187.494 19.4501 183.53 18.5237 179.414C17.5844 175.236 17.2733 170.942 17.6007 166.673C18.2795 157.978 21.4908 149.673 26.8375 142.785C27.1639 142.366 27.4982 141.954 27.8404 141.547C28.2218 141.093 28.8699 141.747 28.4911 142.198C23.0351 148.744 19.6169 156.746 18.6595 165.214C17.9671 171.686 18.7403 178.23 20.9217 184.361C23.1032 190.493 26.6368 196.054 31.2605 200.632C31.6829 201.049 31.0321 201.7 30.6097 201.283V201.283Z" fill="#96C0ED"/>
<path d="M26.4663 143.567C26.8389 143.428 27.2038 143.268 27.5593 143.09C27.5773 143.118 27.5948 143.146 27.6128 143.173L26.4663 143.567Z" fill="#E6E6E6"/>
<path d="M33.5716 135.445C33.421 136.289 33.1491 137.106 32.7643 137.872C31.7019 140.007 30.0096 141.763 27.9166 142.904C27.8007 142.965 27.6809 143.031 27.5612 143.089C27.4183 142.865 27.2715 142.641 27.1324 142.417C26.1465 140.948 25.4176 139.322 24.977 137.609C24.5289 135.596 24.7723 133.335 26.0624 131.723C27.3487 130.112 29.8054 129.389 31.5862 130.433C32.1003 130.74 32.5366 131.162 32.8609 131.666C32.6832 131.886 32.5055 132.102 32.3278 132.322C32.3122 132.343 32.2954 132.362 32.2776 132.38C32.1231 132.574 31.9647 132.763 31.8102 132.956C31.1651 133.749 30.5239 134.545 29.8788 135.333C30.7881 135.5 31.7133 135.564 32.6368 135.522C32.7102 135.518 32.7875 135.515 32.8609 135.511C33.0965 135.495 33.336 135.476 33.5716 135.445Z" fill="#96C0ED"/>
<path d="M20.5424 151.294L20.2952 154.517L20.2295 155.39C20.16 155.355 20.0866 155.32 20.0171 155.286C17.6144 154.093 15.4939 152.4 13.7973 150.321C12.1007 148.243 10.867 145.826 10.1786 143.232C9.94852 142.332 9.7871 141.416 9.6958 140.492C10.9473 140.299 12.2027 140.102 13.4542 139.909C12.441 138.59 11.1718 137.49 9.72284 136.674C10.0532 133.449 11.2182 130.365 13.1027 127.728C13.4272 133.13 19.0823 136.566 21.1527 141.563C21.7879 143.126 22.0629 144.813 21.9572 146.498C21.8515 148.182 21.368 149.822 20.5424 151.294V151.294Z" fill="#96C0ED"/>
<path d="M19.4685 179.601C19.1672 179.617 18.8659 179.625 18.5685 179.621C15.998 179.604 13.4578 179.063 11.1038 178.03C8.74979 176.996 6.63155 175.493 4.87897 173.611C3.46026 172.057 2.31955 170.27 1.50679 168.329C1.53383 168.325 1.55701 168.321 1.58405 168.317C2.83558 168.124 4.09097 167.927 5.3425 167.733C4.01329 166.001 2.24667 164.653 0.224365 163.83C-0.0491379 162.084 -0.069954 160.307 0.162559 158.555C2.99009 163.165 9.59925 163.536 13.7749 166.968C15.7663 168.629 17.1238 170.926 17.6183 173.472C17.7416 174.101 17.8075 174.74 17.8153 175.381C17.8192 175.536 17.8192 175.687 17.8153 175.837L17.908 176.046L19.4685 179.601Z" fill="#96C0ED"/>
<path d="M31.8913 184.938C31.0917 185.92 30.2921 186.909 29.4925 187.891C30.4756 188.072 31.477 188.131 32.4746 188.069C31.5887 191.243 29.8882 194.13 27.5418 196.443C27.3217 196.66 27.0938 196.872 26.862 197.073C26.8156 197.116 26.7654 197.158 26.7191 197.201L26.5105 196.609L26.5066 196.605L25.3246 193.332C23.825 191.824 22.7865 189.919 22.331 187.841V187.833C22.054 186.617 21.9899 185.361 22.1417 184.123C22.8023 178.755 27.3371 173.928 26.2092 168.638C28.6945 170.651 30.6227 173.268 31.8102 176.239C31.1651 177.032 30.5239 177.828 29.8788 178.616C30.788 178.783 31.7133 178.847 32.6368 178.805C32.9603 180.114 33.1365 181.454 33.1621 182.801C33.166 182.995 33.166 183.184 33.1621 183.377C32.7565 183.88 32.3471 184.378 31.9415 184.88C31.9259 184.901 31.9091 184.92 31.8913 184.938V184.938Z" fill="#96C0ED"/>
<path d="M245.298 101.458C239.058 101.458 234 96.4014 234 90.164C234 83.9266 239.058 78.8701 245.298 78.8701C251.537 78.8701 256.596 83.9266 256.596 90.164C256.596 96.4014 251.537 101.458 245.298 101.458Z" fill="#F7C4A7"/>
<path d="M248.875 81.1288C248.875 81.1288 243.603 82.5405 240.873 83.1052C238.142 83.6699 238.425 82.0699 238.425 82.0699C238.425 82.0699 234.847 82.5405 235.036 82.164C235.224 81.7876 233.529 79.8112 235.506 77.5524C237.483 75.2936 236.919 73.5995 236.919 73.5995H238.613L239.084 72.9407H241.72C241.72 72.9407 244.635 70.3859 249.813 71.1388C254.991 71.8917 261.115 73.8819 261.68 76.9877C261.756 77.409 261.857 77.877 261.974 78.3713C263.39 84.3471 260.382 89.9383 257.261 95.2282C256.495 96.5283 252.785 99.3632 252.88 97.4182C252.975 95.4732 256.219 91.105 253.96 90.8227C251.7 90.5403 247.84 84.7993 248.875 81.1288Z" fill="#1F1D20"/>
<path d="M205.341 234L195.971 238.911L195.971 238.912C194.388 239.742 193.199 241.167 192.666 242.873C192.133 244.579 192.299 246.427 193.129 248.01L193.231 248.204L208.571 240.163L205.341 234Z" fill="#96C0ED"/>
<path d="M170.617 237.611L161.114 232.962L161.114 232.962C159.507 232.177 157.655 232.061 155.964 232.641C154.273 233.22 152.882 234.448 152.097 236.054L152 236.25L167.559 243.861L170.617 237.611Z" fill="#96C0ED"/>
<path d="M176.255 10.7595C174.824 6.05169 170.707 2.36408 165.452 1.67973C158.328 0.751913 151.812 5.69612 150.896 12.723C150.147 18.473 153.381 23.8358 158.485 26.1032C162.172 27.8752 162.837 29.5697 161.938 32.636C161.757 33.1991 161.625 33.7861 161.546 34.3928C160.829 39.9002 164.774 44.9545 170.357 45.6817C175.729 46.3813 180.66 42.8219 181.665 37.6476C182.389 34.1713 183.341 33.303 186.607 32.7812C190.745 32.2308 194.155 29.0078 194.713 24.7244C195.381 19.5967 191.709 14.891 186.51 14.214C185.039 14.0224 183.603 14.1739 182.286 14.6059C179.427 15.4481 177.536 14.5685 176.255 10.7595Z" fill="#E8E8E8"/>
<path d="M175.234 12.4473C174.03 8.38306 170.547 5.20599 166.094 4.62598C160.056 3.83962 154.521 8.12503 153.73 14.1977C153.082 19.1671 155.813 23.7933 160.135 25.7413C163.257 27.2643 163.817 28.7267 163.048 31.3778C162.894 31.8646 162.781 32.3721 162.713 32.8964C162.093 37.656 165.426 42.0142 170.159 42.6305C174.711 43.2234 178.899 40.1378 179.763 35.6654C180.384 32.6605 181.193 31.9083 183.963 31.4505C187.473 30.9662 190.371 28.1745 190.853 24.4726C191.43 20.0412 188.326 15.9837 183.92 15.4098C182.673 15.2474 181.456 15.3814 180.338 15.7574C177.912 16.4911 176.312 15.7353 175.234 12.4473Z" fill="#342E37"/>
<path d="M177.571 20H164.429C164.315 20 164.206 19.9473 164.126 19.8535C164.045 19.7598 164 19.6326 164 19.5C164 19.3674 164.045 19.2402 164.126 19.1464C164.206 19.0527 164.315 19 164.429 19H177.571C177.685 19 177.794 19.0527 177.874 19.1464C177.955 19.2402 178 19.3674 178 19.5C178 19.6326 177.955 19.7598 177.874 19.8535C177.794 19.9473 177.685 20 177.571 20V20Z" fill="#96C0ED"/>
<path d="M177.571 18H164.429C164.315 18 164.206 17.9473 164.126 17.8535C164.045 17.7598 164 17.6326 164 17.5C164 17.3674 164.045 17.2402 164.126 17.1464C164.206 17.0527 164.315 17 164.429 17H177.571C177.685 17 177.794 17.0527 177.874 17.1464C177.955 17.2402 178 17.3674 178 17.5C178 17.6326 177.955 17.7598 177.874 17.8535C177.794 17.9473 177.685 18 177.571 18V18Z" fill="#96C0ED"/>
<path d="M170.542 22H164.458C164.336 22 164.22 21.9473 164.134 21.8536C164.048 21.7598 164 21.6326 164 21.5C164 21.3674 164.048 21.2402 164.134 21.1465C164.22 21.0527 164.336 21 164.458 21H170.542C170.664 21 170.78 21.0527 170.866 21.1465C170.952 21.2402 171 21.3674 171 21.5C171 21.6326 170.952 21.7598 170.866 21.8536C170.78 21.9473 170.664 22 170.542 22V22Z" fill="#96C0ED"/>
<path d="M177.57 25H164.43C164.373 25.0002 164.318 24.9874 164.265 24.9623C164.213 24.9373 164.166 24.9005 164.126 24.854C164.086 24.8076 164.054 24.7524 164.033 24.6917C164.011 24.6309 164 24.5658 164 24.5C164 24.4342 164.011 24.3691 164.033 24.3083C164.054 24.2476 164.086 24.1924 164.126 24.146C164.166 24.0995 164.213 24.0627 164.265 24.0377C164.318 24.0126 164.373 23.9998 164.43 24H177.57C177.627 23.9998 177.683 24.0126 177.735 24.0377C177.787 24.0627 177.834 24.0995 177.874 24.146C177.914 24.1924 177.946 24.2476 177.967 24.3083C177.989 24.3691 178 24.4342 178 24.5C178 24.5658 177.989 24.6309 177.967 24.6917C177.946 24.7524 177.914 24.8076 177.874 24.854C177.834 24.9005 177.787 24.9373 177.735 24.9623C177.683 24.9874 177.627 25.0002 177.57 25Z" fill="#E4E4E4"/>
<path d="M177.57 27H164.43C164.373 27.0002 164.318 26.9874 164.265 26.9623C164.213 26.9373 164.166 26.9005 164.126 26.854C164.086 26.8076 164.054 26.7524 164.033 26.6917C164.011 26.6309 164 26.5658 164 26.5C164 26.4342 164.011 26.3691 164.033 26.3083C164.054 26.2476 164.086 26.1924 164.126 26.146C164.166 26.0995 164.213 26.0627 164.265 26.0377C164.318 26.0126 164.373 25.9998 164.43 26H177.57C177.627 25.9998 177.682 26.0126 177.735 26.0377C177.787 26.0627 177.834 26.0995 177.874 26.146C177.914 26.1924 177.946 26.2476 177.967 26.3083C177.989 26.3691 178 26.4342 178 26.5C178 26.5658 177.989 26.6309 177.967 26.6917C177.946 26.7524 177.914 26.8076 177.874 26.854C177.834 26.9005 177.787 26.9373 177.735 26.9623C177.682 26.9874 177.627 27.0002 177.57 27V27Z" fill="#E4E4E4"/>
</g>
<defs>
<clipPath id="clip0_48_480">
<rect width="334" height="249" fill="white"/>
</clipPath>
</defs>
</svg>
