<svg width="439" height="469" viewBox="0 0 439 469" fill="none" xmlns="http://www.w3.org/2000/svg">
<g clip-path="url(#clip0_48_736)">
<path opacity="0.2" d="M89.5555 134.456C84.3639 135.576 78.7564 137.2 75.6681 142.072C72.0169 147.832 73.2501 156.024 75.677 162.731C78.1038 169.438 81.5945 175.882 82.1602 183.07C83.0256 194.501 76.0267 204.844 67.5693 210.693C59.1119 216.542 49.224 219.023 39.8841 222.801C31.1742 226.338 22.9479 230.964 15.4019 236.569C8.99818 241.315 2.66213 247.35 0.645122 255.833C-2.66125 269.746 6.68085 283.445 15.6533 293.898C43.1645 325.948 77.3423 356.055 116.079 356.176C145.014 356.247 172.571 339.334 201.433 342.306C214.691 343.664 227.394 349.157 240.124 353.867C252.854 358.578 266.168 362.603 279.326 360.858C292.484 359.113 305.563 350.488 310.15 336.295C312.86 327.907 312.422 318.476 314.865 309.975C322.346 283.896 351.859 277.316 367.601 256.85C375.866 246.101 379.924 231.943 383.126 217.983C388.284 195.274 391.593 171.516 388.472 148.086C387.112 137.887 384.315 127.41 377.974 119.977C373.361 114.567 367.273 111.228 361.328 108.003C347.796 100.661 333.297 93.1252 318.635 95.3482C310.187 96.6287 302.463 101.074 294.603 104.708C279.627 111.616 263.75 115.74 247.951 119.818C221.849 126.56 195.365 133.333 168.337 133.291C156.402 133.266 144.874 130.168 133.076 129.486C118.728 128.659 103.528 131.445 89.5555 134.456Z" fill="#A6F17E"/>
<path opacity="0.1" d="M188.709 178.137L185.729 178.385C186.012 178.374 186.29 178.306 186.546 178.185C186.802 178.064 187.031 177.893 187.218 177.681C187.406 177.47 187.549 177.222 187.639 176.953C187.728 176.685 187.762 176.401 187.739 176.119C187.715 175.837 187.635 175.563 187.503 175.313C187.37 175.063 187.188 174.842 186.968 174.664C186.748 174.486 186.494 174.355 186.222 174.278C185.949 174.201 185.664 174.18 185.384 174.216L161.251 176.218C160.716 176.287 160.229 176.559 159.89 176.978C159.551 177.397 159.387 177.93 159.431 178.467C159.476 179.004 159.726 179.503 160.129 179.861C160.532 180.218 161.058 180.406 161.596 180.386L164.576 180.139C164.293 180.15 164.015 180.217 163.759 180.338C163.503 180.459 163.274 180.631 163.087 180.842C162.899 181.054 162.756 181.302 162.666 181.57C162.577 181.839 162.543 182.123 162.566 182.404C162.59 182.686 162.67 182.961 162.803 183.211C162.935 183.461 163.117 183.682 163.337 183.86C163.557 184.037 163.811 184.169 164.083 184.246C164.356 184.323 164.641 184.344 164.922 184.308L160.751 184.654C160.469 184.664 160.191 184.732 159.935 184.853C159.679 184.974 159.45 185.145 159.262 185.357C159.074 185.569 158.932 185.816 158.842 186.085C158.753 186.353 158.719 186.637 158.742 186.919C158.765 187.201 158.846 187.475 158.978 187.725C159.111 187.976 159.292 188.196 159.513 188.374C159.733 188.552 159.987 188.683 160.259 188.76C160.531 188.837 160.816 188.859 161.097 188.822L185.23 186.82C185.513 186.81 185.791 186.742 186.047 186.621C186.303 186.5 186.531 186.329 186.719 186.117C186.907 185.906 187.05 185.658 187.139 185.389C187.229 185.121 187.263 184.837 187.239 184.555C187.216 184.273 187.136 183.999 187.003 183.749C186.871 183.499 186.689 183.278 186.469 183.1C186.249 182.922 185.995 182.791 185.723 182.714C185.45 182.637 185.165 182.616 184.884 182.652L189.054 182.306C189.337 182.295 189.615 182.228 189.871 182.107C190.127 181.986 190.356 181.814 190.544 181.603C190.731 181.391 190.874 181.143 190.964 180.875C191.053 180.606 191.087 180.323 191.064 180.041C191.04 179.759 190.96 179.484 190.828 179.234C190.695 178.984 190.513 178.764 190.293 178.586C190.073 178.408 189.819 178.276 189.547 178.199C189.274 178.122 188.989 178.101 188.709 178.137V178.137Z" fill="#252223"/>
<path opacity="0.1" d="M305.627 168.439L302.648 168.686C302.931 168.675 303.208 168.608 303.464 168.487C303.72 168.366 303.949 168.195 304.137 167.983C304.325 167.771 304.468 167.523 304.557 167.255C304.646 166.987 304.68 166.703 304.657 166.421C304.634 166.139 304.553 165.864 304.421 165.614C304.289 165.364 304.107 165.144 303.887 164.966C303.667 164.788 303.413 164.656 303.14 164.579C302.868 164.502 302.583 164.481 302.302 164.517L278.169 166.519C277.635 166.588 277.147 166.86 276.808 167.279C276.47 167.698 276.305 168.232 276.35 168.769C276.394 169.306 276.644 169.805 277.048 170.162C277.451 170.52 277.976 170.708 278.515 170.688L281.494 170.441C281.211 170.451 280.934 170.519 280.678 170.64C280.422 170.761 280.193 170.932 280.005 171.144C279.817 171.356 279.674 171.603 279.585 171.872C279.495 172.14 279.461 172.424 279.485 172.706C279.508 172.988 279.589 173.262 279.721 173.512C279.853 173.763 280.035 173.983 280.255 174.161C280.475 174.339 280.729 174.47 281.002 174.547C281.274 174.624 281.559 174.646 281.84 174.609L277.67 174.955C277.387 174.966 277.109 175.033 276.853 175.154C276.597 175.275 276.369 175.447 276.181 175.658C275.993 175.87 275.85 176.118 275.761 176.386C275.671 176.655 275.637 176.939 275.661 177.221C275.684 177.503 275.764 177.777 275.897 178.027C276.029 178.277 276.211 178.498 276.431 178.676C276.651 178.853 276.905 178.985 277.177 179.062C277.45 179.139 277.735 179.16 278.016 179.124L302.148 177.122C302.431 177.111 302.709 177.044 302.965 176.923C303.221 176.802 303.45 176.631 303.638 176.419C303.825 176.207 303.968 175.959 304.058 175.691C304.147 175.422 304.181 175.139 304.158 174.857C304.134 174.575 304.054 174.3 303.922 174.05C303.789 173.8 303.608 173.58 303.387 173.402C303.167 173.224 302.913 173.092 302.641 173.015C302.369 172.938 302.083 172.917 301.803 172.953L305.973 172.607C306.256 172.597 306.533 172.529 306.789 172.408C307.045 172.287 307.274 172.116 307.462 171.904C307.65 171.693 307.793 171.445 307.882 171.176C307.971 170.908 308.006 170.624 307.982 170.342C307.959 170.06 307.878 169.786 307.746 169.536C307.614 169.286 307.432 169.065 307.212 168.887C306.992 168.709 306.738 168.578 306.465 168.501C306.193 168.424 305.908 168.403 305.627 168.439V168.439Z" fill="#252223"/>
<path opacity="0.1" d="M61.0508 242.337L58.0716 242.584C58.3544 242.573 58.6322 242.505 58.8882 242.385C59.1441 242.264 59.3729 242.092 59.5607 241.881C59.7485 241.669 59.8915 241.421 59.9809 241.153C60.0703 240.884 60.1043 240.6 60.0809 240.318C60.0575 240.036 59.9772 239.762 59.8448 239.512C59.7124 239.262 59.5306 239.041 59.3105 238.863C59.0903 238.685 58.8364 238.554 58.5641 238.477C58.2917 238.4 58.0065 238.379 57.7258 238.415L33.593 240.417C33.0585 240.486 32.5711 240.758 32.2323 241.177C31.8934 241.596 31.7292 242.13 31.7737 242.666C31.8183 243.203 32.0681 243.702 32.4714 244.06C32.8746 244.417 33.4002 244.606 33.9388 244.586L36.918 244.338C36.3835 244.407 35.8961 244.68 35.5573 245.099C35.2185 245.518 35.0542 246.051 35.0988 246.588C35.1433 247.125 35.3932 247.624 35.7964 247.981C36.1997 248.339 36.7252 248.527 37.2638 248.507L33.0937 248.853C32.8109 248.863 32.5331 248.931 32.2771 249.052C32.0211 249.173 31.7924 249.344 31.6046 249.556C31.4167 249.768 31.2738 250.015 31.1844 250.284C31.095 250.552 31.061 250.836 31.0844 251.118C31.1078 251.4 31.1881 251.675 31.3205 251.925C31.4529 252.175 31.6347 252.395 31.8548 252.573C32.075 252.751 32.3289 252.883 32.6012 252.96C32.8736 253.037 33.1588 253.058 33.4395 253.021L57.5723 251.02C57.8552 251.009 58.133 250.941 58.3889 250.821C58.6449 250.7 58.8737 250.528 59.0615 250.316C59.2493 250.105 59.3922 249.857 59.4816 249.589C59.571 249.32 59.605 249.036 59.5817 248.754C59.5583 248.472 59.4779 248.198 59.3455 247.948C59.2131 247.698 59.0313 247.477 58.8112 247.299C58.5911 247.121 58.3372 246.99 58.0648 246.913C57.7924 246.836 57.5073 246.815 57.2265 246.851L61.3966 246.505C61.9311 246.436 62.4185 246.164 62.7573 245.745C63.0962 245.326 63.2604 244.793 63.2159 244.256C63.1713 243.719 62.9215 243.22 62.5182 242.862C62.115 242.505 61.5894 242.317 61.0508 242.337V242.337Z" fill="#252223"/>
<path d="M297.979 200.691C322.175 198.683 340.161 177.43 338.153 153.22C336.145 129.01 314.902 111.01 290.706 113.017C266.511 115.024 248.524 136.278 250.532 160.488C252.54 184.698 273.783 202.698 297.979 200.691Z" fill="#FF6584"/>
<path d="M417.228 179.57C417.324 179.544 417.391 179.47 417.505 179.478C417.44 179.293 417.36 179.112 417.267 178.939C417.143 179.141 417.017 179.347 416.906 179.527L417.228 179.57Z" fill="white"/>
<path d="M52.0856 309.796C53.1348 319.339 55.5223 328.687 59.1776 337.563C59.2614 337.769 59.3481 337.972 59.4351 338.178L77.184 336.705C77.1493 336.518 77.1128 336.308 77.0748 336.079C74.7621 322.563 61.0662 240.275 68.049 225.429C67.4311 226.638 47.1215 266.655 52.0856 309.796Z" fill="#A6F17E"/>
<path d="M132.947 303.063C133.113 303.263 133.285 303.461 133.46 303.657L146.775 302.552C146.659 302.381 146.525 302.179 146.369 301.95C143.84 298.16 136.344 286.823 129.28 275.012C121.687 262.32 114.59 249.081 114.679 244.069C114.617 245.203 112.958 279.749 132.947 303.063Z" fill="#E6E6E6"/>
<path d="M271.496 293.864C271.965 302.22 271.255 310.601 269.387 318.759C269.344 318.948 269.299 319.135 269.253 319.325L253.78 320.608C253.782 320.442 253.784 320.256 253.783 320.054C253.831 308.1 253.787 235.372 245.65 223.61C246.355 224.56 269.568 256.053 271.496 293.864Z" fill="#A6F17E"/>
<path d="M272.372 318.512C272.258 318.707 272.138 318.902 272.016 319.095L260.408 320.058C260.483 319.894 260.569 319.701 260.67 319.482C262.301 315.86 267.118 305.035 271.496 293.864C276.202 281.859 280.403 269.455 279.606 265.158C279.822 266.124 286.212 295.593 272.372 318.512Z" fill="#A6F17E"/>
<path d="M74.2105 63.0678L80.9476 56.6943C75.2904 56.5405 73.2408 59.7907 72.499 62.2902C67.9686 60.8338 63.3987 63.614 63.3987 63.614L78.2718 67.661C77.382 65.7748 75.9731 64.1814 74.2105 63.0678V63.0678Z" fill="#F5F5F5"/>
<path d="M289.087 15.3136L295.824 8.94016C290.166 8.78632 288.117 12.0365 287.375 14.536C282.845 13.0797 278.275 15.8599 278.275 15.8599L293.148 19.9069C292.258 18.0206 290.849 16.4273 289.087 15.3136V15.3136Z" fill="#F5F5F5"/>
<path d="M414.201 234.877C414.598 239.662 414.825 244.422 414.883 249.156C415.393 286.503 405.484 323.252 386.271 355.273C383.761 359.472 381.1 363.572 378.288 367.573C371.004 377.952 362.762 387.625 353.671 396.465L308.82 374.902L278.296 317.306C278.296 317.306 310.037 236.847 413.7 229.659C413.887 231.391 414.054 233.13 414.201 234.877Z" fill="#F5F5F5"/>
<path d="M414.882 249.156C415.217 277.069 409.765 304.747 398.872 330.444C387.979 356.141 371.881 379.3 351.593 398.458L309.926 378.428L282.857 327.347C282.857 327.347 313.427 249.857 414.882 249.156Z" fill="#A6F17E"/>
<path d="M386.27 355.273C383.761 359.472 381.1 363.572 378.288 367.573C359.453 394.46 334.352 416.348 305.158 431.342C299.246 434.375 293.166 437.121 286.917 439.581C241.66 455.735 192.373 456.687 146.524 442.294C101.037 426.344 62.723 394.689 38.4624 353.016C35.2012 347.405 32.2075 341.623 29.4811 335.67C65.8003 304.117 138.633 257.207 224.953 289.759C248.831 298.763 270.168 307.006 288.966 314.488C336.661 333.409 368.508 347.26 386.27 355.273Z" fill="#F5F5F5"/>
<path d="M378.288 367.573C358.813 395.301 332.68 417.683 302.295 432.659C271.91 447.635 238.248 454.724 204.406 453.274C170.564 451.825 137.629 441.883 108.631 424.363C79.6335 406.843 55.5039 382.308 38.4625 353.016C68.6391 324.782 139.32 272.679 224.286 304.715C246.137 312.955 265.661 320.499 282.857 327.347C332.98 347.229 363.981 360.995 378.288 367.573Z" fill="#A6F17E"/>
<path d="M325.204 419.54C318.752 423.852 312.059 427.793 305.158 431.342C281.671 443.387 256.045 450.692 229.739 452.841C198.614 455.411 167.317 450.725 138.305 439.152C109.293 427.579 83.3568 409.435 62.5333 386.143C110.156 377.089 242.391 359.238 325.204 419.54Z" fill="#F5F5F5"/>
<path d="M305.158 431.342C268.735 449.985 227.513 457.125 186.945 451.819C146.376 446.512 108.371 429.009 77.9578 401.624C95.2195 397.606 230.951 368.586 305.158 431.342Z" fill="#A6F17E"/>
<path d="M371.202 126.059L371.203 126.066C218.752 31.7165 60.3887 120.161 59.1652 120.841L59.1647 120.835C76.2695 100.626 97.191 83.992 120.731 71.886C144.271 59.78 169.967 52.4397 196.347 50.2854C266.179 44.4928 330.652 74.9962 371.202 126.059Z" fill="#E6E6E6"/>
<path d="M82.8303 266.293C106.765 259.894 115.586 215.092 102.532 166.225C89.4781 117.357 59.4925 82.9304 35.5575 89.3295C11.6224 95.7287 2.80161 140.531 15.8556 189.398C28.9097 238.265 58.8952 272.692 82.8303 266.293Z" fill="#A6F17E"/>
<path d="M93.8806 323.712C83.4014 214.866 38.4827 115.631 38.0305 114.642L34.807 116.117C35.2571 117.101 79.9314 215.817 90.3524 324.053L93.8806 323.712Z" fill="#F5F5F5"/>
<path d="M15.9561 168.986L15.1479 172.44L59.9404 182.937L60.7486 179.483L15.9561 168.986Z" fill="#F5F5F5"/>
<path d="M97.6979 158.39L64.1191 189.853L66.5426 192.443L100.121 160.98L97.6979 158.39Z" fill="#F5F5F5"/>
<path d="M198.364 240.892C225.082 238.676 243.072 192.661 238.548 138.114C234.023 83.5673 208.696 41.145 181.979 43.3612C155.262 45.5774 137.271 91.5929 141.796 146.14C146.32 200.686 171.647 243.109 198.364 240.892Z" fill="#A6F17E"/>
<path d="M199.114 304.16C208.841 186.237 180.047 71.9319 179.756 70.792L176.04 71.7434C176.33 72.8778 204.963 186.583 195.292 303.846L199.114 304.16Z" fill="#F5F5F5"/>
<path d="M145.819 124.422L144.296 127.945L189.983 147.729L191.506 144.206L145.819 124.422Z" fill="#F5F5F5"/>
<path d="M234.903 128.841L193.106 155.895L195.19 159.118L236.987 132.064L234.903 128.841Z" fill="#F5F5F5"/>
<path d="M405.86 191.692C387.284 183.193 368.036 176.248 348.314 170.927C239.255 141.375 135.489 164.858 98.9449 223.131C125.351 153.266 237.715 122.666 356.334 154.808C370.139 158.544 383.721 163.063 397.014 168.342C400.445 175.934 403.399 183.732 405.86 191.692V191.692Z" fill="#F5F5F5"/>
<path d="M253.891 95.3964L260.628 89.0229C254.971 88.8691 252.921 92.1193 252.18 94.6188C247.649 93.1625 243.079 95.9426 243.079 95.9426L257.952 99.9896C257.063 98.1034 255.654 96.5101 253.891 95.3964Z" fill="#F5F5F5"/>
<path d="M135.795 280.617C135.795 280.617 127.599 266.89 129.899 254.619C130.865 249.47 130.241 244.132 127.948 239.411C126.856 237.171 125.563 235.036 124.085 233.032" fill="#A6F17E"/>
<path d="M135.795 280.617C135.795 280.617 127.599 266.89 129.899 254.619C130.865 249.47 130.241 244.132 127.948 239.411C126.856 237.171 125.563 235.036 124.085 233.032" stroke="#577248" stroke-width="2" stroke-miterlimit="10"/>
<path d="M125.681 224.914C126.163 226.766 124.171 233.01 124.171 233.01C124.171 233.01 119.387 228.521 118.907 226.676C118.781 226.232 118.745 225.767 118.802 225.308C118.859 224.849 119.008 224.406 119.241 224.004C119.473 223.603 119.784 223.251 120.155 222.969C120.526 222.687 120.949 222.482 121.4 222.364C121.852 222.247 122.322 222.22 122.783 222.285C123.244 222.35 123.687 222.506 124.086 222.744C124.484 222.981 124.83 223.296 125.104 223.669C125.378 224.041 125.573 224.465 125.679 224.914L125.681 224.914Z" fill="#A6F17E"/>
<path d="M133.637 233.562C133.072 235.256 128.353 239.155 128.353 239.155C128.353 239.155 126.916 233.23 127.482 231.535C127.769 230.742 128.356 230.091 129.118 229.722C129.879 229.352 130.755 229.293 131.558 229.557C132.361 229.821 133.028 230.388 133.416 231.135C133.805 231.883 133.884 232.753 133.637 233.56L133.637 233.562Z" fill="#A6F17E"/>
<path d="M137.887 251.695C136.478 252.945 130.145 253.983 130.145 253.983C130.145 253.983 131.971 247.776 133.38 246.526C133.712 246.219 134.103 245.981 134.529 245.829C134.954 245.676 135.407 245.61 135.858 245.636C136.31 245.662 136.753 245.778 137.161 245.978C137.569 246.179 137.933 246.459 138.233 246.803C138.533 247.147 138.762 247.547 138.908 247.981C139.053 248.414 139.111 248.872 139.079 249.328C139.047 249.783 138.925 250.227 138.72 250.634C138.516 251.04 138.233 251.401 137.888 251.695L137.887 251.695Z" fill="#A6F17E"/>
<path d="M137.797 264.939C136.674 266.418 130.817 268.48 130.817 268.48C130.817 268.48 131.473 261.958 132.595 260.477C132.861 260.121 133.193 259.826 133.571 259.609C133.949 259.393 134.366 259.259 134.798 259.215C135.23 259.171 135.669 259.219 136.089 259.355C136.51 259.49 136.903 259.712 137.246 260.006C137.589 260.301 137.876 260.663 138.089 261.071C138.303 261.479 138.44 261.925 138.491 262.383C138.542 262.842 138.507 263.304 138.388 263.743C138.269 264.181 138.068 264.588 137.797 264.939V264.939Z" fill="#A6F17E"/>
<path d="M120.748 241.627C122.424 242.471 129.108 242.058 129.108 242.058C129.108 242.058 126.065 236.752 124.388 235.906C123.584 235.525 122.633 235.455 121.74 235.71C120.846 235.966 120.079 236.527 119.604 237.274C119.129 238.02 118.983 238.894 119.197 239.707C119.411 240.52 119.968 241.208 120.749 241.625L120.748 241.627Z" fill="#A6F17E"/>
<path d="M121.806 257.946C123.644 258.35 129.68 256.17 129.68 256.17C129.68 256.17 125.06 251.64 123.222 251.236C122.781 251.129 122.324 251.113 121.878 251.187C121.432 251.261 121.005 251.424 120.623 251.666C120.241 251.909 119.911 252.227 119.653 252.6C119.394 252.974 119.213 253.397 119.118 253.843C119.024 254.289 119.019 254.751 119.104 255.2C119.188 255.649 119.36 256.077 119.61 256.46C119.86 256.842 120.183 257.17 120.56 257.425C120.936 257.681 121.359 257.858 121.804 257.947L121.806 257.946Z" fill="#A6F17E"/>
<path d="M124.257 273.629C125.958 274.373 132.076 273.318 132.076 273.318C132.076 273.318 128.324 267.941 126.621 267.198C126.215 267.016 125.782 266.92 125.347 266.915C124.911 266.91 124.482 266.997 124.083 267.169C123.684 267.342 123.324 267.597 123.024 267.92C122.723 268.244 122.488 268.629 122.332 269.053C122.176 269.478 122.102 269.933 122.114 270.393C122.126 270.854 122.225 271.31 122.403 271.735C122.582 272.161 122.838 272.547 123.156 272.872C123.473 273.197 123.847 273.454 124.255 273.629L124.257 273.629Z" fill="#A6F17E"/>
<path d="M125.681 224.914C126.163 226.766 124.171 233.01 124.171 233.01C124.171 233.01 119.387 228.521 118.907 226.676C118.781 226.232 118.745 225.767 118.802 225.308C118.859 224.849 119.008 224.406 119.241 224.004C119.473 223.603 119.784 223.251 120.155 222.969C120.526 222.687 120.949 222.482 121.4 222.364C121.852 222.247 122.322 222.22 122.783 222.285C123.244 222.35 123.687 222.506 124.086 222.744C124.484 222.981 124.83 223.296 125.104 223.669C125.378 224.041 125.573 224.465 125.679 224.914L125.681 224.914Z" fill="#A6F17E"/>
<path d="M133.637 233.562C133.072 235.256 128.353 239.155 128.353 239.155C128.353 239.155 126.916 233.23 127.482 231.535C127.769 230.742 128.356 230.091 129.118 229.722C129.879 229.352 130.755 229.293 131.558 229.557C132.361 229.821 133.028 230.388 133.416 231.135C133.805 231.883 133.884 232.753 133.637 233.56L133.637 233.562Z" fill="#A6F17E"/>
<path d="M137.887 251.695C136.478 252.945 130.145 253.983 130.145 253.983C130.145 253.983 131.971 247.776 133.38 246.526C133.712 246.219 134.103 245.981 134.529 245.829C134.954 245.676 135.407 245.61 135.858 245.636C136.31 245.662 136.753 245.778 137.161 245.978C137.569 246.179 137.933 246.459 138.233 246.803C138.533 247.147 138.762 247.547 138.908 247.981C139.053 248.414 139.111 248.872 139.079 249.328C139.047 249.783 138.925 250.227 138.72 250.634C138.516 251.04 138.233 251.401 137.888 251.695L137.887 251.695Z" fill="#A6F17E"/>
<path d="M137.797 264.939C136.674 266.418 130.817 268.48 130.817 268.48C130.817 268.48 131.473 261.958 132.595 260.477C132.861 260.121 133.193 259.826 133.571 259.609C133.949 259.393 134.366 259.259 134.798 259.215C135.23 259.171 135.669 259.219 136.089 259.355C136.51 259.49 136.903 259.712 137.246 260.006C137.589 260.301 137.876 260.663 138.089 261.071C138.303 261.479 138.44 261.925 138.491 262.383C138.542 262.842 138.507 263.304 138.388 263.743C138.269 264.181 138.068 264.588 137.797 264.939V264.939Z" fill="#A6F17E"/>
<path d="M120.748 241.627C122.424 242.471 129.108 242.058 129.108 242.058C129.108 242.058 126.065 236.752 124.388 235.906C123.584 235.525 122.633 235.455 121.74 235.71C120.846 235.966 120.079 236.527 119.604 237.274C119.129 238.02 118.983 238.894 119.197 239.707C119.411 240.52 119.968 241.208 120.749 241.625L120.748 241.627Z" fill="#A6F17E"/>
<path d="M121.806 257.946C123.644 258.35 129.68 256.17 129.68 256.17C129.68 256.17 125.06 251.64 123.222 251.236C122.781 251.129 122.324 251.113 121.878 251.187C121.432 251.261 121.005 251.424 120.623 251.666C120.241 251.909 119.911 252.227 119.653 252.6C119.394 252.974 119.213 253.397 119.118 253.843C119.024 254.289 119.019 254.751 119.104 255.2C119.188 255.649 119.36 256.077 119.61 256.46C119.86 256.842 120.183 257.17 120.56 257.425C120.936 257.681 121.359 257.858 121.804 257.947L121.806 257.946Z" fill="#A6F17E"/>
<path d="M124.257 273.629C125.958 274.373 132.076 273.318 132.076 273.318C132.076 273.318 128.324 267.941 126.621 267.198C126.215 267.016 125.782 266.92 125.347 266.915C124.911 266.91 124.482 266.997 124.083 267.169C123.684 267.342 123.324 267.597 123.024 267.92C122.723 268.244 122.488 268.629 122.332 269.053C122.176 269.478 122.102 269.933 122.114 270.393C122.126 270.854 122.225 271.31 122.403 271.735C122.582 272.161 122.838 272.547 123.156 272.872C123.473 273.197 123.847 273.454 124.255 273.629L124.257 273.629Z" fill="#A6F17E"/>
<path d="M393.303 233.57C393.303 233.57 388.855 223.252 392.445 215.089C393.952 211.664 394.237 207.934 393.12 204.444C392.587 202.787 391.881 201.18 391.01 199.643" fill="#A6F17E"/>
<path d="M393.303 233.57C393.303 233.57 388.855 223.252 392.445 215.089C393.952 211.664 394.237 207.934 393.12 204.444C392.587 202.787 391.881 201.18 391.01 199.643" stroke="#577248" stroke-width="2" stroke-miterlimit="10"/>
<path d="M392.682 194.744C392.783 195.958 390.583 199.678 390.583 199.678C390.583 199.678 387.8 196.366 387.7 195.157C387.668 194.865 387.702 194.569 387.802 194.286C387.901 194.004 388.062 193.74 388.277 193.512C388.492 193.283 388.755 193.094 389.051 192.955C389.348 192.816 389.672 192.73 390.004 192.702C390.336 192.675 390.669 192.706 390.985 192.794C391.3 192.883 391.591 193.026 391.84 193.216C392.09 193.406 392.293 193.64 392.437 193.902C392.581 194.164 392.664 194.451 392.681 194.744L392.682 194.744Z" fill="#A6F17E"/>
<path d="M396.954 201.984C396.356 203.203 392.573 205.534 392.573 205.534C392.573 205.534 392.253 200.803 392.851 199.585C393.146 199.018 393.636 198.601 394.216 198.423C394.796 198.245 395.421 198.321 395.956 198.634C396.491 198.947 396.895 199.472 397.082 200.098C397.268 200.724 397.222 201.4 396.954 201.983L396.954 201.984Z" fill="#A6F17E"/>
<path d="M397.996 213.847C396.853 214.436 392.311 214.472 392.311 214.472C392.311 214.472 394.399 211.089 395.543 210.5C396.091 210.23 396.739 210.144 397.348 210.261C397.957 210.378 398.478 210.69 398.799 211.128C399.12 211.566 399.216 212.096 399.067 212.604C398.917 213.113 398.533 213.559 397.998 213.847L397.996 213.847Z" fill="#A6F17E"/>
<path d="M396.995 223.186C395.924 223.995 391.155 224.717 391.155 224.717C391.155 224.717 392.602 220.742 393.674 219.932C393.928 219.736 394.224 219.585 394.544 219.487C394.864 219.389 395.202 219.345 395.538 219.359C395.874 219.373 396.202 219.444 396.503 219.567C396.804 219.691 397.072 219.866 397.291 220.08C397.51 220.295 397.677 220.546 397.78 220.819C397.884 221.092 397.924 221.381 397.896 221.669C397.869 221.958 397.775 222.241 397.62 222.501C397.466 222.761 397.253 222.994 396.995 223.186V223.186Z" fill="#A6F17E"/>
<path d="M388.275 205.999C389.289 206.847 393.735 207.444 393.735 207.444C393.735 207.444 392.3 203.122 391.287 202.272C390.798 201.883 390.18 201.703 389.563 201.771C388.947 201.839 388.382 202.149 387.989 202.635C387.596 203.122 387.406 203.746 387.46 204.374C387.514 205.002 387.807 205.585 388.277 205.998L388.275 205.999Z" fill="#A6F17E"/>
<path d="M386.761 216.719C387.996 217.234 392.474 216.436 392.474 216.436C392.474 216.436 389.792 212.647 388.556 212.132C387.966 211.9 387.312 211.914 386.735 212.171C386.157 212.429 385.702 212.91 385.467 213.51C385.231 214.111 385.235 214.783 385.477 215.383C385.719 215.983 386.179 216.463 386.76 216.719L386.761 216.719Z" fill="#A6F17E"/>
<path d="M386.303 227.877C387.343 228.656 391.485 228.703 391.485 228.703C391.485 228.703 389.591 224.233 388.55 223.455C388.302 223.267 388.027 223.138 387.741 223.075C387.454 223.013 387.162 223.019 386.881 223.092C386.6 223.165 386.336 223.305 386.103 223.503C385.87 223.701 385.674 223.953 385.526 224.245C385.377 224.537 385.28 224.862 385.238 225.203C385.197 225.544 385.213 225.894 385.285 226.232C385.357 226.569 385.484 226.889 385.659 227.171C385.833 227.454 386.052 227.694 386.301 227.878L386.303 227.877Z" fill="#A6F17E"/>
<path d="M392.682 194.744C392.783 195.958 390.583 199.678 390.583 199.678C390.583 199.678 387.8 196.366 387.7 195.157C387.668 194.865 387.702 194.569 387.802 194.286C387.901 194.004 388.062 193.74 388.277 193.512C388.492 193.283 388.755 193.094 389.051 192.955C389.348 192.816 389.672 192.73 390.004 192.702C390.336 192.675 390.669 192.706 390.985 192.794C391.3 192.883 391.591 193.026 391.84 193.216C392.09 193.406 392.293 193.64 392.437 193.902C392.581 194.164 392.664 194.451 392.681 194.744L392.682 194.744Z" fill="#A6F17E"/>
<path d="M396.954 201.984C396.356 203.203 392.573 205.534 392.573 205.534C392.573 205.534 392.253 200.803 392.851 199.585C393.146 199.018 393.636 198.601 394.216 198.423C394.796 198.245 395.421 198.321 395.956 198.634C396.491 198.947 396.895 199.472 397.082 200.098C397.268 200.724 397.222 201.4 396.954 201.983L396.954 201.984Z" fill="#A6F17E"/>
<path d="M397.996 213.847C396.853 214.436 392.311 214.472 392.311 214.472C392.311 214.472 394.399 211.089 395.543 210.5C396.091 210.23 396.739 210.144 397.348 210.261C397.957 210.378 398.478 210.69 398.799 211.128C399.12 211.566 399.216 212.096 399.067 212.604C398.917 213.113 398.533 213.559 397.998 213.847L397.996 213.847Z" fill="#A6F17E"/>
<path d="M396.995 223.186C395.924 223.995 391.155 224.717 391.155 224.717C391.155 224.717 392.602 220.742 393.674 219.932C393.928 219.736 394.224 219.585 394.544 219.487C394.864 219.389 395.202 219.345 395.538 219.359C395.874 219.373 396.202 219.444 396.503 219.567C396.804 219.691 397.072 219.866 397.291 220.08C397.51 220.295 397.677 220.546 397.78 220.819C397.884 221.092 397.924 221.381 397.896 221.669C397.869 221.958 397.775 222.241 397.62 222.501C397.466 222.761 397.253 222.994 396.995 223.186V223.186Z" fill="#A6F17E"/>
<path d="M388.275 205.999C389.289 206.847 393.735 207.444 393.735 207.444C393.735 207.444 392.3 203.122 391.287 202.272C390.798 201.883 390.18 201.703 389.563 201.771C388.947 201.839 388.382 202.149 387.989 202.635C387.596 203.122 387.406 203.746 387.46 204.374C387.514 205.002 387.807 205.585 388.277 205.998L388.275 205.999Z" fill="#A6F17E"/>
<path d="M386.761 216.719C387.996 217.234 392.474 216.436 392.474 216.436C392.474 216.436 389.792 212.647 388.556 212.132C387.966 211.9 387.312 211.914 386.735 212.171C386.157 212.429 385.702 212.91 385.467 213.51C385.231 214.111 385.235 214.783 385.477 215.383C385.719 215.983 386.179 216.463 386.76 216.719L386.761 216.719Z" fill="#A6F17E"/>
<path d="M386.303 227.877C387.343 228.656 391.485 228.703 391.485 228.703C391.485 228.703 389.591 224.233 388.55 223.455C388.302 223.267 388.027 223.138 387.741 223.075C387.454 223.013 387.162 223.019 386.881 223.092C386.6 223.165 386.336 223.305 386.103 223.503C385.87 223.701 385.674 223.953 385.526 224.245C385.377 224.537 385.28 224.862 385.238 225.203C385.197 225.544 385.213 225.894 385.285 226.232C385.357 226.569 385.484 226.889 385.659 227.171C385.833 227.454 386.052 227.694 386.301 227.878L386.303 227.877Z" fill="#A6F17E"/>
<path opacity="0.2" d="M224.515 284.362L210.562 285.52L212.877 313.424L226.829 312.267L224.515 284.362Z" fill="black"/>
<path d="M214.808 258.075C216.735 257.915 218.093 255.332 217.842 252.304C217.591 249.277 215.826 246.953 213.899 247.113C211.973 247.272 210.615 249.856 210.866 252.883C211.117 255.91 212.882 258.235 214.808 258.075Z" fill="#A6F17E"/>
<path opacity="0.2" d="M214.808 258.075C216.735 257.915 218.093 255.332 217.842 252.304C217.591 249.277 215.826 246.953 213.899 247.113C211.973 247.272 210.615 249.856 210.866 252.883C211.117 255.91 212.882 258.235 214.808 258.075Z" fill="black"/>
<path d="M214.643 256.082C216.019 255.967 217.005 254.313 216.845 252.387C216.686 250.461 215.441 248.991 214.065 249.106C212.689 249.22 211.703 250.874 211.863 252.8C212.022 254.727 213.267 256.196 214.643 256.082Z" fill="#A6F17E"/>
<path d="M181.536 346.885L183.783 359.988L264.312 352.843L261.583 338.56L234.089 337.754L186.553 344.503L181.536 346.885Z" fill="#342E37"/>
<path opacity="0.05" d="M181.536 346.885L183.783 359.988L264.312 352.843L261.583 338.56L234.089 337.754L186.553 344.503L181.536 346.885Z" fill="#342E37"/>
<path d="M234.845 351.739L208.436 356.659C208.436 356.659 227.103 360.196 237.552 356.858L234.845 351.739Z" fill="#F7C4A7"/>
<path opacity="0.1" d="M234.845 351.739L208.436 356.659C208.436 356.659 227.103 360.196 237.552 356.858L234.845 351.739Z" fill="black"/>
<path d="M206.671 256.743C206.671 256.743 213.181 270.262 205.786 277.148C198.391 284.035 206.354 300.92 206.354 300.92L236.718 297.009C236.718 297.009 238.117 277.142 236.141 273.121C236.141 273.121 229.101 275.796 227.109 271.546C225.118 267.297 222.957 255.392 222.957 255.392L206.671 256.743Z" fill="#F7C4A7"/>
<path d="M206.966 341.664C206.966 341.664 181.584 343.196 173.983 341.985C166.382 340.774 160.688 350.076 163.74 354.864C166.793 359.653 174.407 362.457 174.407 362.457C174.407 362.457 212.271 361.148 219.987 355.355C219.987 355.355 222.357 346.337 219.119 344.888L179.805 348.149L208.756 345.174L206.966 341.664Z" fill="#342E37"/>
<path d="M246.929 335.417C246.929 335.417 255.449 336.534 266.613 331.048C266.613 331.048 288.162 328.575 282.07 342.984C275.977 357.393 235.648 357.322 235.648 357.322C235.648 357.322 232.84 352.424 235.112 350.869C237.384 349.313 257.355 338.878 263.825 338.795L246.23 343.788L246.929 335.417Z" fill="#342E37"/>
<path opacity="0.1" d="M224.696 262.355C223.976 259.052 223.49 256.351 223.49 256.351L207.251 257.698C208.18 259.786 208.885 261.968 209.355 264.206C211.765 265.629 214.568 266.218 217.337 265.884C220.107 265.55 222.69 264.31 224.696 262.355V262.355Z" fill="black"/>
<path d="M216.384 264.968C223.264 264.398 228.378 258.358 227.808 251.478C227.237 244.598 221.197 239.483 214.317 240.054C207.437 240.625 202.322 246.664 202.893 253.544C203.464 260.424 209.504 265.539 216.384 264.968Z" fill="#F7C4A7"/>
<path d="M209.57 274.954C209.57 274.954 194.683 279.101 193.166 283.066C191.65 287.03 192.964 300.086 192.964 300.086C192.964 300.086 195.427 321.426 190.375 324.521L171.815 340.035C171.815 340.035 156.806 328.818 153.974 336.39C151.141 343.962 171.303 344.969 171.303 344.969L192.979 336.42L199.701 331.204C199.701 331.204 202.889 329.31 202.907 325.347L203.911 301.273L215.543 296.816L234.789 295.22L236.752 287.576C236.752 287.576 241.828 291.027 241.436 294.669C241.045 298.31 244.806 321.393 244.806 321.393C244.806 321.393 246.726 326.475 249.946 327.717L268.366 332.732C268.366 332.732 287.43 333.013 287.999 324.582C288.568 316.152 269.528 327.278 269.528 327.278L254.395 317.354C254.395 317.354 252.867 312.823 252.139 309.621C251.412 306.419 249.575 292.6 249.575 292.6C249.575 292.6 252.721 277.665 239.905 276.169L223.208 272.43L209.57 274.954Z" fill="#F7C4A7"/>
<path opacity="0.07" d="M217.448 295.943C216.083 294.274 214.076 293.138 211.818 292.756C209.559 292.374 207.213 292.774 205.236 293.878C209.271 296.16 213.539 296.504 217.448 295.943Z" fill="white"/>
<path opacity="0.07" d="M224.259 293.371C225.33 291.5 227.123 290.048 229.287 289.299C231.451 288.551 233.832 288.559 235.964 289.322C232.363 292.236 228.207 293.283 224.259 293.371Z" fill="white"/>
<path d="M216.625 346.509L222.587 345.229C222.587 345.229 228.82 336.076 234.343 342.235C234.343 342.235 236.777 346.295 239.389 346.864C241.172 347.226 242.984 347.45 244.806 347.535L234.738 351.175C234.738 351.175 230.436 354.112 225.635 353.836C222.807 353.658 219.972 354.124 217.358 355.196L216.625 346.509Z" fill="#F7C4A7"/>
<path opacity="0.1" d="M207.52 309.328C207.52 309.328 217.896 310.353 219.357 306.866Z" fill="black"/>
<path opacity="0.1" d="M227.33 306.205C227.33 306.205 229.476 307.885 237.338 305.891Z" fill="black"/>
<path opacity="0.1" d="M217.585 345.143C217.585 345.143 220.546 355.517 218.491 356.062C216.435 356.607 213.294 354.744 213.275 354.508C213.255 354.272 214.015 347.454 214.015 347.454L217.585 345.143Z" fill="black"/>
<path d="M217.585 345.143C217.585 345.143 220.546 355.517 218.491 356.062C216.435 356.607 213.294 354.744 213.275 354.508C213.255 354.272 214.015 347.454 214.015 347.454L217.585 345.143Z" fill="#342E37"/>
<path d="M207.837 342.942L207.763 342.861C203.86 338.56 208.242 327.083 208.909 325.417C207.936 325.209 207.075 324.692 206.472 323.954C205.868 323.217 205.561 322.304 205.601 321.372L205.719 318.616L205.856 315.911L203.085 313.729L203.073 313.67L200.592 301.729L197.775 293.895C196.712 290.933 196.518 287.752 197.212 284.678C197.905 281.604 199.462 278.747 201.722 276.402L206.636 275.254L212.232 269.326L221.983 268.518L225.573 271.215C231.899 271.717 235.831 270.845 241.689 276.391L237.911 295.672L237.516 298.285L237.806 301.76L239.484 303.231C240.088 303.761 240.55 304.417 240.832 305.146C241.114 305.875 241.208 306.657 241.108 307.43L240.983 308.393C242.63 308.897 245.088 320.073 245.582 321.622L246.32 323.935C246.832 324.467 250.212 328.018 250.298 329.058C250.311 329.214 250.2 329.376 249.948 329.565C247.969 331.055 240.418 341.088 235.152 339.608C229.542 338.033 208.163 342.867 207.948 342.916L207.837 342.942Z" fill="#342E37"/>
<path d="M192.272 299.411L192.332 293.333C192.355 291.046 192.156 288.763 192.68 286.649C192.396 283.222 194.393 282.021 196.411 280.473C197.442 279.485 199.536 278.078 201.128 278.356C202.53 278.054 204.221 278.881 205.572 279.355C207.398 280.009 208.904 281.325 209.784 283.036C210.665 284.748 210.853 286.726 210.313 288.573C208.669 294.171 209.901 299.845 205.875 300.883L206.492 302.931L203.55 316.205L192.006 315.845L192.272 299.411Z" fill="#342E37"/>
<path d="M255.688 313.321L244.172 314.399L241.474 307.024L241.967 304.914C237.881 304.112 237.724 292.417 235.743 286.854C235.091 285.018 235.16 283.004 235.936 281.218C236.712 279.432 238.137 278.007 239.924 277.232C241.245 276.669 242.698 276.487 244.117 276.706C245.537 276.925 246.867 277.537 247.957 278.473C249.711 279.989 251.148 281.838 252.185 283.912C253.222 285.986 253.839 288.245 254 290.559L254.428 296.706L255.688 313.321Z" fill="#342E37"/>
<path d="M228.51 241.017C228.259 239.824 227.72 238.717 226.94 237.798C226.387 237.229 225.772 236.726 225.107 236.298L223.394 235.1C222.528 234.449 221.6 233.891 220.621 233.434C219.238 232.868 217.723 232.704 216.242 232.958C214.761 233.212 213.37 233.874 212.223 234.874C211.283 235.716 210.366 236.854 209.124 236.847C208.123 236.841 207.301 236.065 206.333 235.82C205.754 235.708 205.155 235.744 204.589 235.925C204.023 236.106 203.507 236.425 203.087 236.856C202.256 237.726 201.629 238.776 201.254 239.924C200.309 242.5 199.9 245.24 200.056 247.969C200.211 250.697 200.926 253.354 202.155 255.767C202.759 255.039 202.566 253.956 202.443 253.014C202.319 252.061 202.464 250.843 203.352 250.499C204.34 250.117 205.338 251.175 206.386 251.067C206.734 250.999 207.06 250.844 207.337 250.617C207.614 250.389 207.832 250.097 207.972 249.765C208.295 249.123 208.444 248.407 208.723 247.744C208.998 247.091 209.396 246.498 209.893 245.998C210.391 245.498 210.979 245.101 211.623 244.83C212.268 244.559 212.956 244.42 213.65 244.42C214.343 244.419 215.028 244.558 215.664 244.828C215.679 244.835 215.694 244.841 215.708 244.847C217.703 245.716 219.187 247.847 221.365 247.949C222.387 247.997 223.423 247.569 224.422 247.786C225.527 248.027 226.309 248.989 227.002 249.893C227.828 248.586 228.388 247.125 228.647 245.599C228.906 244.073 228.86 242.514 228.51 241.017V241.017Z" fill="#342E37"/>
</g>
<defs>
<clipPath id="clip0_48_736">
<rect width="404" height="437" fill="white" transform="translate(0 33.3972) rotate(-4.74183)"/>
</clipPath>
</defs>
</svg>
