<svg width="62" height="57" viewBox="0 0 62 57" fill="none" xmlns="http://www.w3.org/2000/svg">
<path d="M56.9943 33.9575C57.7026 30.5526 54.1103 26.4387 47.9886 23.0787C50.884 16.7309 51.3166 11.2893 48.7147 8.97651C48.0821 8.42653 47.3137 8.05609 46.4893 7.90372L46.0038 10.2379C46.4856 10.3381 46.8532 10.5151 47.1417 10.7605C48.3956 11.8747 48.3677 15.1128 47.0534 19.0148C46.7329 19.9758 46.3288 20.9731 45.8775 21.9828C43.798 20.9999 41.6553 20.1564 39.4637 19.458C38.5123 17.3394 37.4204 15.2867 36.1955 13.3136C40.2711 10.8505 43.8385 9.77852 46.0185 10.232L46.5044 7.89569C43.6221 7.29615 39.4239 8.56536 34.8693 11.3332C31.7935 7.00276 28.4435 4.18358 25.5633 3.58449L25.0778 5.91862C27.247 6.36983 30.1035 8.76911 32.8634 12.6317C31.0758 13.8684 29.2455 15.3107 27.4483 16.9587C25.1559 16.7217 22.8499 16.6437 20.5468 16.725C20.5237 15.6742 20.5523 14.6229 20.6323 13.5749C20.9728 9.46807 22.2277 6.48525 23.8151 5.9531C24.1669 5.82968 24.5937 5.8291 25.0756 5.92932L25.5611 3.5952C24.6831 3.41257 23.8452 3.43487 23.0732 3.6876C19.7756 4.77328 18.0158 9.92535 18.1524 16.8838C11.2174 17.5413 6.30667 19.8731 5.60067 23.2673C4.89244 26.6721 8.48472 30.786 14.6068 34.1438C11.711 40.4939 11.2784 45.9354 13.8807 48.2461C14.4789 48.786 15.2363 49.1402 16.1142 49.3228C18.9966 49.9223 23.1947 48.6531 27.7493 45.8853C30.8247 50.2179 34.173 53.0344 37.0554 53.634C37.8785 53.8234 38.7372 53.7908 39.5437 53.5394C42.8409 52.4559 44.6006 47.3038 44.4641 40.3454C51.375 39.6963 56.2883 37.3516 56.9943 33.9575ZM44.807 24.1327C44.1089 25.4482 43.3501 26.7307 42.5331 27.9759C42.0119 26.0909 41.3953 24.2335 40.6859 22.4109C42.1283 22.941 43.5065 23.5114 44.8092 24.1331L44.807 24.1327ZM37.6896 34.2917C36.6204 35.4979 35.5004 36.658 34.3324 37.7688C31.1317 37.392 27.9698 36.7381 24.8823 35.8143C23.6149 32.8635 22.6052 29.8086 21.8644 26.6837C23.7891 24.1063 25.9286 21.6965 28.2598 19.4799C31.4599 19.856 34.6212 20.509 37.7082 21.4319C38.3184 22.859 38.8915 24.3678 39.4152 25.9422C39.9267 27.4784 40.361 29.0209 40.7283 30.5629C39.7657 31.8459 38.752 33.0899 37.6896 34.2917ZM41.3563 33.6335C41.6299 35.1537 41.8217 36.6591 41.9345 38.1035C40.4941 38.1546 38.9877 38.1362 37.4454 38.0432C38.8215 36.6392 40.1268 35.1675 41.3563 33.6335ZM28.4099 42.6023C27.6449 41.3932 26.9035 40.0706 26.1951 38.6431C27.1284 38.8819 28.0853 39.1145 29.0597 39.3171C30.0447 39.522 31.0235 39.7033 31.9876 39.848C30.7901 40.879 29.5828 41.7963 28.4099 42.6023ZM21.8989 34.8094C20.4985 34.2999 19.1225 33.7259 17.7751 33.0893C18.4438 31.8187 19.2156 30.5249 20.049 29.2461C20.3057 30.1708 20.583 31.1042 20.9009 32.0461C21.2192 32.9858 21.5502 33.9081 21.8989 34.8094ZM34.1745 14.6202C34.9394 15.8293 35.6808 17.1519 36.3892 18.5794C35.4559 18.3406 34.499 18.108 33.5246 17.9053C32.5396 17.7005 31.5608 17.5192 30.5967 17.3745C31.7942 16.3435 33.0015 15.4262 34.1745 14.6202ZM25.1389 19.1793C23.7637 20.5798 22.4592 22.048 21.2302 23.5783C20.9643 22.0987 20.7713 20.6069 20.652 19.1083C22.0902 19.0679 23.5966 19.0863 25.1389 19.1793ZM12.9311 30.3213C9.5509 27.9695 7.58415 25.3956 7.92623 23.751C8.26832 22.1064 11.1005 20.5195 15.1359 19.7214C16.116 19.5209 17.1732 19.3788 18.2576 19.2671C18.4283 21.4428 18.7697 23.7434 19.2862 26.1363C17.9397 28.0058 16.7224 29.9649 15.6425 32.0001C14.7118 31.4852 13.8069 30.9249 12.9311 30.3213ZM15.4537 46.4621C14.199 45.3521 14.2278 42.1098 15.5416 38.2099C15.8622 37.2489 16.2666 36.2495 16.7179 35.2398C18.6647 36.1697 20.8262 37.0237 23.1313 37.7668C24.0828 39.8853 25.1747 41.9379 26.3995 43.9111C22.3239 46.3742 18.7565 47.4462 16.5766 46.9928C16.1643 46.9117 15.7785 46.7302 15.4533 46.4642L15.4537 46.4621ZM41.9627 43.6498C41.6227 47.7545 40.3673 50.7395 38.7799 51.2716C38.4281 51.395 38.0017 51.3935 37.5199 51.2933C35.3507 50.842 32.4937 48.4449 29.7343 44.5802C31.6364 43.2647 33.4456 41.8196 35.1489 40.2553C37.4413 40.4923 39.7473 40.5704 42.0505 40.489C42.0724 41.5972 42.0476 42.6509 41.9627 43.6498ZM47.4484 37.5011C46.4683 37.7016 45.4111 37.8436 44.3267 37.9554C44.1392 35.6451 43.7956 33.3501 43.2981 31.0862C44.7147 29.1089 45.9301 27.1432 46.9418 25.2224C47.8754 25.739 48.7839 26.3 49.6639 26.9034C53.0441 29.2552 55.0109 31.8291 54.6688 33.4737C54.316 35.1161 51.4838 36.7029 47.4484 37.5011Z" fill="#342E37"/>
<path d="M30.2909 33.3984C31.5608 33.6625 32.8836 33.4114 33.9683 32.7002C35.0531 31.989 35.8109 30.8761 36.075 29.6062C36.3392 28.3363 36.088 27.0134 35.3768 25.9287C34.6657 24.844 33.5527 24.0862 32.2828 23.822C31.0129 23.5579 29.6901 23.809 28.6053 24.5202C27.5206 25.2314 26.7628 26.3443 26.4987 27.6142C26.2345 28.8841 26.4856 30.207 27.1968 31.2917C27.908 32.3764 29.021 33.1342 30.2909 33.3984Z" fill="#342E37"/>
</svg>
