<svg width="62" height="57" viewBox="0 0 62 57" fill="none" xmlns="http://www.w3.org/2000/svg">
<path d="M56.9942 33.9576C57.7024 30.5528 54.1102 26.4388 47.9885 23.0789C50.8839 16.731 51.3165 11.2895 48.7146 8.97663C48.082 8.42665 47.3135 8.05621 46.4892 7.90384L46.0037 10.238C46.4855 10.3382 46.8531 10.5152 47.1416 10.7606C48.3955 11.8748 48.3676 15.1129 47.0533 19.015C46.7327 19.9759 46.3287 20.9732 45.8774 21.9829C43.7978 21 41.6552 20.1565 39.4636 19.4581C38.5121 17.3395 37.4203 15.2869 36.1954 13.3138C40.271 10.8507 43.8384 9.77864 46.0183 10.2321L46.5043 7.89581C43.622 7.29627 39.4238 8.56548 34.8692 11.3333C31.7934 7.00288 28.4434 4.18371 25.5632 3.58461L25.0777 5.91874C27.2469 6.36995 30.1034 8.76924 32.8633 12.6318C31.0757 13.8685 29.2454 15.3108 27.4482 16.9588C25.1558 16.7218 22.8498 16.6438 20.5467 16.7252C20.5236 15.6744 20.5522 14.6231 20.6322 13.5751C20.9726 9.46819 22.2275 6.48537 23.8149 5.95322C24.1668 5.82981 24.5936 5.82923 25.0754 5.92945L25.5609 3.59532C24.683 3.41269 23.845 3.43499 23.0731 3.68773C19.7754 4.7734 18.0157 9.92547 18.1522 16.8839C11.2172 17.5414 6.30655 19.8733 5.60055 23.2674C4.89232 26.6722 8.4846 30.7862 14.6067 34.144C11.7109 40.494 11.2783 45.9355 13.8806 48.2462C14.4787 48.7861 15.2361 49.1403 16.1141 49.3229C18.9964 49.9224 23.1946 48.6532 27.7492 45.8854C30.8246 50.218 34.1729 53.0346 37.0552 53.6341C37.8784 53.8235 38.7371 53.7909 39.5435 53.5396C42.8407 52.456 44.6005 47.3039 44.4639 40.3455C51.3748 39.6964 56.2882 37.3517 56.9942 33.9576ZM44.8069 24.1328C44.1088 25.4484 43.35 26.7308 42.533 27.976C42.0118 26.091 41.3952 24.2336 40.6858 22.411C42.1282 22.9412 43.5063 23.5116 44.809 24.1333L44.8069 24.1328ZM37.6895 34.2918C36.6203 35.498 35.5002 36.6581 34.3323 37.7689C31.1316 37.3922 27.9697 36.7382 24.8822 35.8144C23.6148 32.8636 22.605 29.8087 21.8642 26.6838C23.789 24.1064 25.9285 21.6966 28.2597 19.4801C31.4597 19.8561 34.6211 20.5092 37.7081 21.432C38.3183 22.8591 38.8914 24.3679 39.4151 25.9424C39.9266 27.4786 40.3609 29.021 40.7282 30.563C39.7656 31.8461 38.7519 33.09 37.6895 34.2918V34.2918ZM41.3562 33.6336C41.6298 35.1538 41.8215 36.6593 41.9344 38.1036C40.494 38.1547 38.9876 38.1363 37.4453 38.0434C38.8214 36.6393 40.1267 35.1676 41.3562 33.6336V33.6336ZM28.4097 42.6024C27.6447 41.3933 26.9034 40.0707 26.195 38.6432C27.1283 38.882 28.0852 39.1146 29.0596 39.3173C30.0446 39.5222 31.0234 39.7034 31.9874 39.8481C30.79 40.8791 29.5827 41.7964 28.4097 42.6024ZM21.8987 34.8096C20.4984 34.3 19.1224 33.7261 17.775 33.0895C18.4437 31.8189 19.2155 30.525 20.0489 29.2463C20.3056 30.1709 20.5828 31.1043 20.9008 32.0462C21.2191 32.986 21.5501 33.9082 21.8987 34.8096ZM34.1743 14.6203C34.9393 15.8294 35.6807 17.152 36.3891 18.5795C35.4558 18.3407 34.4988 18.1081 33.5245 17.9055C32.5395 17.7006 31.5607 17.5193 30.5966 17.3746C31.7941 16.3436 33.0014 15.4263 34.1743 14.6203ZM25.1387 19.1794C23.7636 20.5799 22.4591 22.0481 21.2301 23.5784C20.9642 22.0988 20.7712 20.607 20.6519 19.1084C22.0901 19.068 23.5965 19.0865 25.1387 19.1794ZM12.931 30.3214C9.55078 27.9696 7.58403 25.3957 7.92611 23.7511C8.2682 22.1065 11.1004 20.5197 15.1358 19.7215C16.1158 19.521 17.173 19.379 18.2575 19.2672C18.4282 21.4429 18.7696 23.7435 19.2861 26.1364C17.9396 28.0059 16.7222 29.9651 15.6424 32.0002C14.7117 31.4853 13.8068 30.925 12.931 30.3214V30.3214ZM15.4536 46.4622C14.1988 45.3523 14.2276 42.1099 15.5415 38.21C15.862 37.249 16.2665 36.2496 16.7178 35.2399C18.6646 36.1698 20.826 37.0238 23.1312 37.7669C24.0827 39.8854 25.1745 41.9381 26.3994 43.9112C22.3237 46.3743 18.7564 47.4463 16.5764 46.9929C16.1642 46.9118 15.7784 46.7303 15.4532 46.4643L15.4536 46.4622ZM41.9626 43.6499C41.6226 47.7546 40.3672 50.7396 38.7798 51.2717C38.428 51.3952 38.0016 51.3936 37.5198 51.2934C35.3505 50.8422 32.4936 48.445 29.7342 44.5803C31.6363 43.2648 33.4454 41.8198 35.1488 40.2555C37.4412 40.4924 39.7472 40.5705 42.0503 40.4891C42.0723 41.5973 42.0474 42.6511 41.9626 43.6499V43.6499ZM47.4482 37.5012C46.4682 37.7018 45.411 37.8438 44.3266 37.9555C44.1391 35.6452 43.7955 33.3502 43.298 31.0863C44.7146 29.109 45.93 27.1434 46.9416 25.2225C47.8753 25.7391 48.7837 26.3001 49.6638 26.9035C53.044 29.2554 55.0107 31.8293 54.6687 33.4738C54.3159 35.1162 51.4836 36.7031 47.4482 37.5012V37.5012Z" fill="#E06775"/>
<path d="M30.2906 33.3985C31.5605 33.6626 32.8833 33.4115 33.9681 32.7003C35.0528 31.9892 35.8106 30.8762 36.0748 29.6063C36.3389 28.3364 36.0878 27.0136 35.3766 25.9288C34.6654 24.8441 33.5525 24.0863 32.2826 23.8221C31.0127 23.558 29.6898 23.8091 28.6051 24.5203C27.5204 25.2315 26.7626 26.3444 26.4984 27.6143C26.2343 28.8843 26.4854 30.2071 27.1966 31.2918C27.9078 32.3766 29.0207 33.1344 30.2906 33.3985V33.3985Z" fill="#E06775"/>
</svg>
