<svg width="52" height="53" viewBox="0 0 52 53" fill="none" xmlns="http://www.w3.org/2000/svg">
<circle cx="26.0247" cy="26.4019" r="25.7061" transform="rotate(0.203763 26.0247 26.4019)" fill="#342E37" fill-opacity="0.2"/>
<path d="M21.701 39.9753H23.0303V37.3166H21.7156C21.3061 37.3086 17.7129 37.0866 17.7129 31.9992C17.7129 29.3498 16.8289 27.6842 15.7163 26.6818C16.8289 25.6795 17.7129 24.0139 17.7129 21.3645C17.7129 16.2771 21.3061 16.0551 21.701 16.0471H23.0303V13.3884H21.6983C19.3999 13.3937 15.0542 15.0687 15.0542 21.3645C15.0542 25.0866 12.8236 25.3392 12.377 25.3525L12.3956 28.0112C12.5046 28.0112 15.0542 28.0564 15.0542 31.9992C15.0542 38.295 19.3999 39.9699 21.701 39.9753ZM38.9824 25.3525C38.8734 25.3525 36.3237 25.3073 36.3237 21.3645C36.3237 15.0687 31.9781 13.3937 29.677 13.3884H28.3477V16.0471H29.6624C30.0718 16.0551 33.665 16.2771 33.665 21.3645C33.665 24.0139 34.549 25.6795 35.6617 26.6818C34.549 27.6842 33.665 29.3498 33.665 31.9992C33.665 37.0866 30.0718 37.3086 29.677 37.3166H28.3477V39.9753H29.6797C31.9781 39.9699 36.3237 38.295 36.3237 31.9992C36.3237 28.277 38.5543 28.0245 39.001 28.0112L38.9824 25.3525Z" fill="#342E37"/>
</svg>
