<svg width="71" height="71" viewBox="0 0 71 71" fill="none" xmlns="http://www.w3.org/2000/svg">
<g clip-path="url(#clip0_238_514)">
<path d="M55.2438 1.88048L7.33675 8.62316C3.63258 9.14451 1.05239 12.57 1.57374 16.2741L8.31641 64.1812C8.83776 67.8853 12.2632 70.4655 15.9674 69.9442L63.8744 63.2015C67.5786 62.6801 70.1588 59.2547 69.6374 55.5505L62.8947 7.64349C62.3734 3.93933 58.9479 1.35914 55.2438 1.88048Z" fill="#FCB55F"/>
<path d="M48.4493 25.8476L50.682 41.711C51.4513 47.1772 51.4202 49.855 50.5396 52.2901C49.7349 54.6243 48.4624 56.208 45.6535 58.1443L38.8734 56.017C41.6952 54.1697 42.9865 52.7192 43.6505 50.6764C44.3531 48.5839 44.3455 46.2736 43.5075 40.3193L41.6062 26.8107L48.4493 25.8476V25.8476ZM36.0752 16.8115L40.5334 48.4874C37.1168 49.6479 34.5769 50.2772 31.7775 50.6712C23.4232 51.847 18.5369 48.6832 17.5174 41.4397C16.5355 34.463 20.5192 29.2802 27.6732 28.2734C28.7841 28.117 29.641 28.0868 30.7006 28.2095L29.232 17.7751L36.0755 16.812L36.0752 16.8115ZM29.1155 33.6893C25.6494 34.1771 23.9498 36.5917 24.4751 40.3241C24.988 43.9684 27.1804 45.6988 30.691 45.2047C31.4461 45.0984 32.0621 44.9665 33.021 44.696L31.476 33.7193C30.6388 33.5655 29.9599 33.5705 29.1155 33.6893V33.6893ZM46.967 15.3157L47.9552 22.3369L41.1121 23.3001L40.124 16.279L46.967 15.3159L46.967 15.3157Z" fill="#F5F5F5"/>
</g>
<defs>
<clipPath id="clip0_238_514">
<rect width="61.9254" height="61.9254" fill="white" transform="translate(0.629578 9.56714) rotate(-8.01148)"/>
</clipPath>
</defs>
</svg>
