<svg width="91" height="92" viewBox="0 0 91 92" fill="none" xmlns="http://www.w3.org/2000/svg">
<g clip-path="url(#clip0_36_106)">
<path d="M58.0574 38.828C60.6819 39.4218 63.4345 38.97 65.7315 37.5684C68.0285 36.1668 69.6892 33.9256 70.3615 31.3201C71.0338 28.7146 70.6648 25.9497 69.3327 23.6117C68.0006 21.2737 65.8103 19.5465 63.2261 18.7963L43.1915 13.6269C40.567 13.0331 37.8144 13.4849 35.5174 14.8865C33.2204 16.2881 31.5597 18.5293 30.8874 21.1348C30.2151 23.7403 30.5842 26.5052 31.9162 28.8432C33.2483 31.1812 35.4387 32.9084 38.0228 33.6585C35.384 33.0262 32.6023 33.4556 30.2771 34.8543C27.9518 36.253 26.2689 38.5091 25.5909 41.1366C24.913 43.7641 25.2942 46.5528 26.6524 48.9019C28.0106 51.2511 30.2372 52.9728 32.8526 53.6961C30.2218 53.0856 27.4566 53.5278 25.1473 54.9282C22.8381 56.3286 21.1677 58.5762 20.493 61.1913C19.8183 63.8063 20.1925 66.5815 21.5359 68.9244C22.8793 71.2673 25.0854 72.9921 27.6832 73.7307C30.3404 74.4147 33.1604 74.0157 35.5235 72.6214C37.8867 71.2272 39.5996 68.9517 40.286 66.2952L48.0401 36.2432L58.0574 38.828Z" fill="#342E37"/>
<path d="M52.8879 58.8625C58.4203 60.29 64.0624 56.9623 65.4899 51.4299C66.9174 45.8975 63.5898 40.2554 58.0573 38.8279C52.5249 37.4004 46.8828 40.7281 45.4553 46.2605C44.0278 51.7929 47.3555 57.435 52.8879 58.8625Z" fill="#342E37"/>
</g>
<defs>
<clipPath id="clip0_36_106">
<rect width="74.5167" height="74.5167" fill="white" transform="translate(18.687 0.875) rotate(14.4682)"/>
</clipPath>
</defs>
</svg>
