<svg width="52" height="52" viewBox="0 0 52 52" fill="none" xmlns="http://www.w3.org/2000/svg">
<g clip-path="url(#clip0_701_456)">
<path d="M47.2486 39.6175L29.3649 1.63798C29.1426 1.17023 28.7979 0.771375 28.3672 0.483749C27.9365 0.196123 27.436 0.0304511 26.9188 0.00431217C26.4008 -0.0301555 25.8834 0.0780672 25.4227 0.317207C24.962 0.556347 24.5757 0.917247 24.3058 1.36065L4.90977 32.7773C4.61539 33.2518 4.4623 33.8003 4.46844 34.3586C4.47458 34.9169 4.63969 35.4619 4.94444 35.9298L14.4258 50.6155C14.7847 51.1661 15.3117 51.586 15.9286 51.8129C16.5454 52.0397 17.219 52.0612 17.8491 51.8743L45.3723 43.7341C46.2151 43.485 46.9041 42.8891 47.2638 42.0983C47.6234 41.3075 47.6191 40.4018 47.2486 39.6175ZM43.2446 41.2468L19.8901 48.152C19.7283 48.2012 19.5565 48.2077 19.3914 48.1708C19.2263 48.1339 19.0736 48.0549 18.9482 47.9414C18.8227 47.828 18.7288 47.6839 18.6755 47.5234C18.6223 47.3629 18.6115 47.1913 18.6443 47.0253L26.9859 7.07631C27.1419 6.32881 28.1754 6.20965 28.5004 6.90298L43.9466 39.702C44.0149 39.8482 44.0506 40.0075 44.0514 40.1689C44.0521 40.3303 44.0178 40.49 43.9509 40.6368C43.8839 40.7837 43.7859 40.9143 43.6636 41.0196C43.5413 41.1249 43.3998 41.2024 43.2446 41.2468Z" fill="#FCB55F"/>
</g>
<defs>
<clipPath id="clip0_701_456">
<rect width="52" height="52" fill="white"/>
</clipPath>
</defs>
</svg>
