<svg width="47" height="48" viewBox="0 0 47 48" fill="none" xmlns="http://www.w3.org/2000/svg">
<g clip-path="url(#clip0_206_648)">
<path d="M41.7897 15.9977L36.1348 10.9658C35.8155 10.6814 35.4156 10.5033 34.9906 10.4563C34.5656 10.4093 34.1365 10.4957 33.7628 10.7035L6.70122 24.1367C6.3732 24.2986 6.12292 24.5841 6.00543 24.9305C5.88794 25.2769 5.91286 25.6558 6.07471 25.9838C6.09436 26.0226 6.11434 26.0603 6.13725 26.0964L7.43459 28.1897C7.60401 28.4636 7.86402 28.6695 8.16945 28.7716C8.47488 28.8738 8.80644 28.8657 9.10656 28.7489L40.5685 16.5344C40.8061 16.442 41.0649 16.4178 41.3155 16.4645C41.5662 16.5112 41.7989 16.627 41.9873 16.7987C42.1758 16.9705 42.3125 17.1915 42.3822 17.4367C42.4519 17.682 42.4518 17.9419 42.3818 18.1871L42.4035 18.1109C42.5105 17.7366 42.5097 17.3397 42.4011 16.9659C42.2925 16.5921 42.0806 16.2565 41.7897 15.9977Z" fill="#E06775"/>
<path d="M34.6556 40.9498L27.195 42.2332C26.7737 42.3054 26.3403 42.2449 25.9548 42.0602C25.5693 41.8755 25.2506 41.5757 25.0428 41.2021L9.17207 15.4932C8.97919 15.1824 8.91766 14.8077 9.00103 14.4516C9.0844 14.0954 9.30583 13.787 9.61661 13.5941C9.65382 13.5715 9.69071 13.5501 9.72922 13.5316L11.937 12.4404C12.2261 12.2967 12.5565 12.259 12.8705 12.3339C13.1845 12.4088 13.4623 12.5917 13.6553 12.8505L33.9025 39.8487C34.0554 40.0528 34.2623 40.2101 34.4998 40.3029C34.7372 40.3958 34.9959 40.4205 35.2467 40.3743C35.4975 40.3281 35.7304 40.2128 35.9192 40.0415C36.108 39.8701 36.2452 39.6494 36.3154 39.4043L36.292 39.4862C36.184 39.8591 35.9733 40.1941 35.6839 40.453C35.3946 40.7118 35.0382 40.884 34.6556 40.9498V40.9498Z" fill="#E06775"/>
<path d="M27.1952 42.2333C26.7739 42.3054 26.3405 42.245 25.955 42.0603C25.5695 41.8756 25.2508 41.5757 25.043 41.2021C25.1603 41.41 25.3363 41.5787 25.5489 41.687C25.7616 41.7953 26.0015 41.8384 26.2386 41.811C26.4757 41.7835 26.6994 41.6867 26.8817 41.5326C27.064 41.3786 27.1967 41.1742 27.2633 40.945L35.5118 12.0942C35.5779 11.8638 35.5741 11.6188 35.5009 11.3905C35.4277 11.1622 35.2884 10.9607 35.1006 10.8116C34.9128 10.6626 34.685 10.5726 34.446 10.5531C34.207 10.5336 33.9676 10.5855 33.7581 10.7022C34.1319 10.4945 34.5609 10.4081 34.9859 10.4549C35.4109 10.5016 35.8108 10.6793 36.1304 10.9633L41.7856 15.9904C42.0777 16.2486 42.2909 16.5842 42.4005 16.9584C42.5101 17.3326 42.5117 17.7301 42.4051 18.1052L36.2922 39.4862C36.1852 39.8608 35.9745 40.1976 35.6844 40.4577C35.3944 40.7178 35.0367 40.8907 34.6527 40.9564L27.1952 42.2333Z" fill="#E06775"/>
</g>
<defs>
<clipPath id="clip0_206_648">
<rect width="37.8514" height="37.8514" fill="white" transform="translate(10.4325 0.844482) rotate(15.9553)"/>
</clipPath>
</defs>
</svg>
