<svg width="35" height="35" viewBox="0 0 35 35" fill="none" xmlns="http://www.w3.org/2000/svg">
<g clip-path="url(#clip0_238_509)">
<path fill-rule="evenodd" clip-rule="evenodd" d="M1.08951 12.0573C0.503094 8.06543 3.26379 4.35396 7.25569 3.76755L22.763 1.48951C26.7549 0.903098 30.4663 3.66379 31.0527 7.6557L33.3308 23.163C33.9172 27.1549 31.1565 30.8663 27.1646 31.4528L11.6573 33.7308C7.66543 34.3172 3.95396 31.5565 3.36754 27.5646L1.08951 12.0573ZM26.6234 26.5837C25.7961 26.7052 25.1453 26.5386 24.5962 26.1944C23.9551 25.7925 23.1213 25.6578 22.5292 26.129V26.129C21.9521 26.5883 21.8218 27.438 22.3842 27.9152C23.4872 28.8509 25.0535 29.3664 27.0553 29.0723C29.7295 28.6795 31.5169 26.9986 31.1444 24.463C30.799 22.1121 29.2947 21.2656 26.7517 20.5895L26.0034 20.3921C24.7178 20.0453 24.1446 19.7813 24.0205 18.9361C23.9202 18.2531 24.3677 17.653 25.1917 17.532C25.5368 17.4813 25.8386 17.5005 26.1187 17.6011C26.829 17.8561 27.6611 18.0532 28.2302 17.5577V17.5577C28.7549 17.1007 28.8463 16.289 28.3014 15.8563C27.3253 15.0812 26.1985 14.8753 24.8309 15.0762C22.3165 15.4456 20.9434 17.29 21.2537 19.4024C21.5903 21.6934 23.098 22.5802 25.2576 23.1468L26.0061 23.3455C27.3733 23.7186 28.1889 23.9483 28.3307 24.9133C28.4491 25.7198 27.7895 26.4124 26.6234 26.5837ZM15.709 28.1679C15.3036 28.2274 14.9802 28.1563 14.7003 28.0004C14.0092 27.6156 13.1783 27.4033 12.5685 27.907V27.907C12.0155 28.3638 11.881 29.1883 12.4188 29.6629C13.3038 30.444 14.5406 30.9056 16.1966 30.6624C18.6923 30.2957 20.2065 28.7175 19.7783 25.8024L18.5729 17.5968C18.4587 16.8194 17.7359 16.2817 16.9584 16.3959V16.3959C16.181 16.5102 15.6434 17.233 15.7576 18.0104L16.9575 26.1785C17.1642 27.5855 16.6329 28.0321 15.7078 28.168L15.709 28.1679Z" fill="#FCB55F"/>
</g>
<defs>
<clipPath id="clip0_238_509">
<rect width="30.2848" height="30.2848" fill="white" transform="translate(0.027832 4.82935) rotate(-8.35704)"/>
</clipPath>
</defs>
</svg>
