<svg width="35" height="35" viewBox="0 0 35 35" fill="none" xmlns="http://www.w3.org/2000/svg">
<g clip-path="url(#clip0_205_503)">
<path fill-rule="evenodd" clip-rule="evenodd" d="M1.08945 12.0573C0.503033 8.06543 3.26373 4.35396 7.25563 3.76755L22.7629 1.48951C26.7548 0.903098 30.4663 3.66379 31.0527 7.6557L33.3307 23.163C33.9171 27.1549 31.1564 30.8663 27.1645 31.4528L11.6573 33.7308C7.66536 34.3172 3.9539 31.5565 3.36748 27.5646L1.08945 12.0573ZM26.6233 26.5837C25.796 26.7052 25.1452 26.5386 24.5962 26.1944C23.955 25.7925 23.1212 25.6578 22.5291 26.129V26.129C21.952 26.5883 21.8217 27.438 22.3842 27.9152C23.4871 28.8509 25.0535 29.3664 27.0552 29.0723C29.7295 28.6795 31.5168 26.9986 31.1443 24.463C30.799 22.1121 29.2946 21.2656 26.7516 20.5895L26.0033 20.3921C24.7178 20.0453 24.1446 19.7813 24.0204 18.9361C23.9201 18.2531 24.3676 17.653 25.1916 17.532C25.5367 17.4813 25.8385 17.5005 26.1187 17.6011C26.8289 17.8561 27.661 18.0532 28.2301 17.5577V17.5577C28.7549 17.1007 28.8463 16.289 28.3013 15.8563C27.3252 15.0812 26.1985 14.8753 24.8308 15.0762C22.3164 15.4456 20.9434 17.29 21.2537 19.4024C21.5902 21.6934 23.098 22.5802 25.2576 23.1468L26.0061 23.3455C27.3733 23.7186 28.1888 23.9483 28.3306 24.9133C28.4491 25.7198 27.7894 26.4124 26.6233 26.5837ZM15.709 28.1679C15.3036 28.2274 14.9802 28.1563 14.7002 28.0004C14.0091 27.6156 13.1783 27.4033 12.5684 27.907V27.907C12.0154 28.3638 11.881 29.1883 12.4187 29.6629C13.3037 30.444 14.5405 30.9056 16.1966 30.6624C18.6923 30.2957 20.2065 28.7175 19.7782 25.8024L18.5728 17.5968C18.4586 16.8194 17.7358 16.2817 16.9584 16.3959V16.3959C16.181 16.5102 15.6433 17.233 15.7575 18.0104L16.9574 26.1785C17.1641 27.5855 16.6328 28.0321 15.7077 28.168L15.709 28.1679Z" fill="#96C0ED"/>
</g>
<defs>
<clipPath id="clip0_205_503">
<rect width="30.2848" height="30.2848" fill="white" transform="translate(0.027771 4.82935) rotate(-8.35704)"/>
</clipPath>
</defs>
</svg>
