<svg width="58" height="58" viewBox="0 0 58 58" fill="none" xmlns="http://www.w3.org/2000/svg">
<path d="M52.3289 0H5.67111C4.16704 0 2.72457 0.59749 1.66103 1.66103C0.59749 2.72457 0 4.16704 0 5.67111V52.3289C0 53.833 0.59749 55.2754 1.66103 56.339C2.72457 57.4025 4.16704 58 5.67111 58H52.3289C53.0736 58 53.8111 57.8533 54.4991 57.5683C55.1872 57.2833 55.8124 56.8656 56.339 56.339C56.8656 55.8124 57.2833 55.1872 57.5683 54.4991C57.8533 53.8111 58 53.0736 58 52.3289V5.67111C58 4.92637 57.8533 4.18892 57.5683 3.50087C57.2833 2.81282 56.8656 2.18764 56.339 1.66103C55.8124 1.13442 55.1872 0.716687 54.4991 0.431687C53.8111 0.146687 53.0736 0 52.3289 0ZM33.64 32.2222H26.39V52.9733H20.6222V32.2222H13.3722V27.5178H33.64V32.2222ZM52.3289 49.2356C51.8624 50.2274 51.1108 51.0576 50.17 51.62C49.1802 52.2292 48.0887 52.6549 46.9478 52.8767C45.6758 53.1393 44.3799 53.2689 43.0811 53.2633C41.7521 53.2622 40.4259 53.1436 39.1178 52.9089C38.0059 52.6812 36.9245 52.3243 35.8956 51.8456V46.3356L35.7022 46.1422H35.8956V46.3678C36.8647 47.1239 37.9539 47.7121 39.1178 48.1078C40.28 48.5503 41.5154 48.7689 42.7589 48.7522C43.4087 48.7636 44.0576 48.6987 44.6922 48.5589C45.1689 48.4473 45.6255 48.2625 46.0456 48.0111C46.3744 47.8106 46.6506 47.5344 46.8511 47.2056C47.0495 46.831 47.1367 46.4076 47.1025 45.9851C47.0682 45.5627 46.9139 45.1588 46.6578 44.8211C46.3549 44.3964 45.9717 44.0352 45.53 43.7578C44.9936 43.3806 44.4216 43.0569 43.8222 42.7911L41.6633 41.8889C39.9544 41.185 38.4401 40.0798 37.2489 38.6667C36.2519 37.4649 35.7252 35.942 35.7667 34.3811C35.7291 33.1953 35.9953 32.0196 36.54 30.9656C37.0598 30.0468 37.7883 29.2632 38.6667 28.6778C39.6453 28.0267 40.7388 27.5674 41.8889 27.3244C43.1462 27.0351 44.4332 26.8945 45.7233 26.9056C46.8982 26.8892 48.0725 26.9646 49.2356 27.1311C50.2032 27.2824 51.1532 27.5307 52.0711 27.8722V33.1889C51.647 32.8866 51.1936 32.6275 50.7178 32.4156C50.2054 32.195 49.6777 32.012 49.1389 31.8678C48.6225 31.7166 48.0943 31.6088 47.56 31.5456C47.067 31.4991 46.5708 31.4991 46.0778 31.5456C45.4706 31.5355 44.8646 31.6004 44.2733 31.7389C43.7883 31.8406 43.3213 32.0144 42.8878 32.2544C42.5494 32.4538 42.2625 32.7297 42.05 33.06C41.8571 33.3809 41.7568 33.7489 41.76 34.1233C41.7521 34.523 41.8644 34.9159 42.0822 35.2511C42.3469 35.6171 42.6742 35.9334 43.0489 36.1856C43.5032 36.5472 44.0012 36.8503 44.5311 37.0878L46.5611 37.99C47.4945 38.3759 48.3991 38.8281 49.2678 39.3433C50.0317 39.7614 50.7271 40.2939 51.33 40.9222C51.9207 41.4946 52.3821 42.1868 52.6833 42.9522C52.9923 43.8319 53.145 44.7588 53.1344 45.6911C53.1114 46.8946 52.837 48.0799 52.3289 49.1711V49.2356Z" fill="#E06775"/>
</svg>
